<?xml version="1.0" encoding="UTF-8"?>
<svg xmlns="http://www.w3.org/2000/svg" viewBox="0 0 1196.41 941.78">
  <defs>
    <style>
      .cls-1 {
        fill: #f9f9f9;
      }

      .cls-1, .cls-2, .cls-3 {
        stroke: #000;
        stroke-linejoin: round;
        stroke-width: 2px;
      }

      .cls-4 {
        fill: none;
        mix-blend-mode: multiply;
        stroke: #ff7002;
        stroke-dasharray: 4.09 4.09 4.09 4.09 4.09 4.09;
        stroke-width: 1.36px;
      }

      .cls-2 {
        fill: #9e9e9e;
      }

      .cls-5 {
        isolation: isolate;
      }

      .cls-3 {
        fill: #cecccc;
      }
    </style>
  </defs>
  <g class="cls-5">
    <g id="Layer_1" data-name="Layer 1">
      <path class="cls-1" d="M501.13,723.26l110.2-60.72s110.19,60.71,110.2,60.71l-110.2,60.72-110.2-60.71Z"/>
      <path class="cls-3" d="M611.34,662.54h0v-121.43s110.2,60.72,110.2,60.72v121.43l-110.2-60.72Z"/>
      <path class="cls-1" d="M611.33,662.54l55.1,30.36,165.3-91.08-165.29-91.07h0s-55.1,30.36-55.1,30.36l110.2,60.72-110.2,60.72Z"/>
      <path class="cls-3" d="M501.13,723.26v60.72h0l165.3,91.07v-182.15l-55.1-30.36v121.43l-110.2-60.72Z"/>
      <path class="cls-2" d="M666.43,875.05l165.3-91.08h0v-182.15l-165.3,91.07v182.15Z"/>
      <path class="cls-2" d="M556.24,389.31v121.43l-110.2,60.71v-121.43s110.2-60.72,110.2-60.72Z"/>
      <path class="cls-1" d="M335.84,450.03l55.1,30.36,55.1-30.36-55.1-30.36-55.1,30.36Z"/>
      <path class="cls-3" d="M390.94,358.96v60.72l55.1,30.36v-60.72l-55.1-30.36Z"/>
      <path class="cls-3" d="M391.11,419.15v60.72l-55.1-30.36v60.72l110.2,60.72v-121.43s-55.1-30.36-55.1-30.36Z"/>
      <path class="cls-1" d="M556.24,389.31l-110.2-60.72-55.1,30.36,55.1,30.36-55.1,30.36,55.1,30.36,110.2-60.72Z"/>
      <path class="cls-4" d="M501.41,729.08s-165.29-90.66-165.29-213.34"/>
      <path class="cls-4" d="M611.33,662.46s-165.29-90.66-165.29-213.34M556.24,389.31c0,121.44,165.18,212.5,165.18,212.5"/>
      <path class="cls-2" d="M280.75,358.96l55.1-30.36v-60.72l-55.1,30.36v60.72Z"/>
      <path class="cls-1" d="M335.85,267.88l-55.1-30.36-55.1,30.36,55.1,30.36,55.1-30.36Z"/>
      <path class="cls-4" d="M335.84,267.88c.08,60.67,55.09,91.07,55.09,91.07l55.1,30.36M280.75,298.24c0,61.22,55.09,91.07,55.09,91.07l55.1,30.36"/>
      <path class="cls-4" d="M225.65,332.99c0,61.22,55.09,91.07,55.09,91.07l55.1,30.36"/>
      <path class="cls-3" d="M225.65,267.88v60.72l55.1,30.36v-60.72l-55.1-30.36Z"/>
      <g>
        <path d="M110.79,261.7l.3-17.71,6.9,4.03c1,.59,1.89,1.36,2.67,2.33.78.96,1.39,2.02,1.84,3.17.45,1.15.66,2.27.65,3.37-.02,1.15-.27,2.04-.75,2.67s-1.12.98-1.91,1.04c-.79.06-1.69-.2-2.7-.79l-3.02-1.76-.1,5.92-3.88-2.27ZM114.77,254.24l2.53,1.48c.34.2.64.28.92.26.28-.02.5-.15.67-.37.17-.22.26-.54.27-.97,0-.44-.07-.86-.23-1.26-.16-.4-.38-.77-.65-1.1-.27-.33-.57-.59-.91-.79l-2.53-1.48-.07,4.23Z"/>
        <path d="M127.83,255.41c-.69-.4-1.22-.9-1.6-1.49s-.57-1.22-.56-1.9c.01-.61.22-.99.62-1.15.4-.16.94-.04,1.61.35.69.4,1.22.89,1.59,1.48.37.59.56,1.21.55,1.87-.01.62-.21,1.02-.61,1.18-.4.16-.93.05-1.6-.35ZM125.73,270.44l.23-13.44,3.65,2.14-.23,13.44-3.65-2.14Z"/>
        <path d="M138.13,277.94c-1.17-.69-2.22-1.6-3.14-2.75-.92-1.15-1.64-2.41-2.16-3.78s-.77-2.72-.75-4.05.31-2.37.87-3.11c.56-.74,1.31-1.14,2.25-1.2.94-.06,1.99.25,3.17.93,1.08.63,2.07,1.42,2.97,2.38.9.95,1.61,1.96,2.13,3.03l-2.03,1.47c-.21-.39-.46-.8-.74-1.2-.29-.4-.6-.78-.95-1.12-.35-.34-.71-.62-1.09-.84-.58-.34-1.09-.49-1.54-.45-.45.04-.8.25-1.05.63-.25.38-.38.91-.39,1.58-.01.64.11,1.3.35,1.97.24.67.58,1.29,1.02,1.85.44.56.94,1.01,1.5,1.34.4.23.76.39,1.1.48.34.09.65.1.93.05.28-.05.55-.17.8-.35l1.92,3.81c-.53.42-1.26.58-2.19.46-.93-.12-1.92-.48-2.97-1.1Z"/>
        <path d="M144.28,271.29l.06-3.54,8.15,4.77-.06,3.54-8.15-4.77ZM146.26,282.44l.28-16.83,3.65,2.14-.28,16.83-3.65-2.14Z"/>
        <path d="M159.94,290.7c-1.26-.74-2.38-1.7-3.35-2.88-.97-1.18-1.73-2.46-2.29-3.84-.55-1.38-.82-2.74-.8-4.09.02-1.35.33-2.38.92-3.09.59-.71,1.38-1.09,2.37-1.12s2.12.32,3.38,1.06,2.38,1.7,3.35,2.88c.97,1.18,1.73,2.46,2.28,3.84.55,1.38.81,2.74.78,4.09-.02,1.35-.32,2.38-.91,3.1-.58.72-1.37,1.09-2.36,1.12-.99.03-2.12-.32-3.38-1.06ZM160,287.2c.55.32,1.04.45,1.47.4.43-.06.77-.27,1.03-.65.25-.38.38-.91.37-1.6.03-.67-.08-1.34-.31-2.01-.24-.67-.56-1.29-.98-1.84-.42-.55-.91-.99-1.45-1.31-.55-.32-1.04-.46-1.48-.41-.44.05-.79.27-1.04.66-.25.39-.38.93-.37,1.61-.03.67.08,1.33.31,2,.24.67.57,1.28,1,1.83.43.56.92,1,1.47,1.32Z"/>
        <path d="M169.26,295.89l.3-17.71,3.47,2.03,8.17,17.55-.75-.57c-.07-.6-.12-1.17-.16-1.7-.04-.53-.07-1.06-.1-1.57-.03-.51-.05-1.03-.07-1.55-.01-.52-.02-1.08-.02-1.67,0-.6,0-1.24.02-1.93l.07-4.38,3.77,2.2-.3,17.71-3.52-2.06-8.53-18.17,1.16.86c.06.85.12,1.58.16,2.18.04.6.08,1.13.11,1.59.03.46.05.87.06,1.24.01.36.02.72.02,1.07,0,.35,0,.74,0,1.16l-.1,5.92-3.77-2.2Z"/>
        <path d="M193.08,310.08c-1.34-.78-2.5-1.76-3.48-2.94-.98-1.18-1.74-2.45-2.27-3.8-.53-1.36-.79-2.7-.76-4.04.02-1.03.19-1.89.5-2.57.32-.68.76-1.18,1.32-1.49.56-.31,1.22-.42,1.98-.33.76.1,1.59.4,2.49.93.85.5,1.63,1.12,2.33,1.87.7.75,1.31,1.58,1.82,2.49.51.91.89,1.86,1.15,2.85s.37,1.96.32,2.92l-.04,1.08-9.66-5.65-.49-2.59,7.22,4.22-.4.25v-.51c-.01-.44-.13-.88-.33-1.33-.2-.45-.47-.86-.8-1.25-.33-.38-.71-.7-1.14-.95-.59-.35-1.1-.51-1.53-.5-.42.02-.75.21-.97.59-.22.37-.34.92-.35,1.65-.01.74.12,1.47.39,2.18.27.71.68,1.38,1.21,2,.53.62,1.18,1.15,1.92,1.58.52.3.98.49,1.39.56.41.07.85.03,1.33-.09l1.67,3.68c-.48.18-.99.26-1.53.23-.54-.02-1.09-.13-1.64-.31-.56-.18-1.11-.43-1.66-.75Z"/>
        <path d="M199.72,303.71l.06-3.54,8.15,4.77-.06,3.54-8.15-4.77ZM201.69,314.86l.28-16.83,3.65,2.14-.28,16.83-3.65-2.14Z"/>
      </g>
      <g>
        <path d="M196.2,425.54l.3-17.71,6.9,4.03c1.01.59,1.9,1.36,2.67,2.33.77.96,1.39,2.02,1.84,3.17s.66,2.27.65,3.37c-.02,1.15-.27,2.04-.75,2.67-.48.63-1.12.98-1.91,1.04-.79.06-1.69-.2-2.7-.79l-3.02-1.76-.1,5.92-3.88-2.27ZM200.18,418.08l2.53,1.48c.33.19.64.28.92.26.28-.02.5-.15.67-.37.17-.22.26-.54.27-.97,0-.44-.07-.86-.23-1.26-.16-.4-.38-.77-.65-1.09-.27-.33-.58-.59-.91-.79l-2.53-1.48-.07,4.23Z"/>
        <path d="M213.23,419.25c-.68-.4-1.22-.89-1.6-1.49-.38-.59-.57-1.22-.56-1.9.01-.61.22-.99.62-1.15.4-.16.94-.04,1.61.35.69.4,1.22.89,1.59,1.48.37.59.56,1.21.55,1.86-.01.62-.21,1.02-.61,1.18-.4.16-.93.05-1.6-.35ZM211.14,434.27l.23-13.44,3.65,2.14-.23,13.44-3.65-2.14Z"/>
        <path d="M223.54,441.78c-1.17-.69-2.22-1.6-3.14-2.75-.92-1.15-1.64-2.41-2.16-3.78-.52-1.37-.77-2.72-.75-4.05s.31-2.37.87-3.11,1.31-1.14,2.25-1.2c.94-.07,1.99.25,3.17.93,1.08.63,2.07,1.42,2.97,2.38.9.95,1.61,1.96,2.13,3.03l-2.03,1.47c-.21-.39-.46-.79-.74-1.2-.29-.41-.6-.78-.95-1.12-.35-.34-.71-.62-1.09-.84-.58-.34-1.09-.49-1.54-.45-.45.04-.8.25-1.05.63-.25.38-.38.91-.4,1.58-.01.64.11,1.3.35,1.97.24.67.58,1.29,1.02,1.85s.94,1.01,1.5,1.34c.4.23.76.39,1.1.48.34.09.65.1.93.05.28-.05.55-.17.8-.35l1.92,3.81c-.53.42-1.26.58-2.19.46-.93-.12-1.92-.48-2.97-1.1Z"/>
        <path d="M229.69,435.13l.06-3.54,8.15,4.77-.06,3.54-8.15-4.77ZM231.67,446.28l.28-16.83,3.65,2.14-.28,16.83-3.65-2.14Z"/>
        <path d="M245.35,454.53c-1.26-.74-2.38-1.7-3.35-2.88s-1.73-2.46-2.29-3.84c-.55-1.38-.82-2.74-.8-4.09.02-1.35.33-2.38.92-3.09.59-.71,1.38-1.08,2.37-1.12.99-.03,2.12.32,3.38,1.06s2.38,1.7,3.35,2.88c.97,1.18,1.73,2.46,2.28,3.84.55,1.38.81,2.74.78,4.09-.02,1.35-.33,2.38-.91,3.1-.58.72-1.37,1.09-2.36,1.12-.99.03-2.12-.32-3.39-1.06ZM245.41,451.04c.55.32,1.04.45,1.47.4.43-.05.77-.27,1.03-.65.25-.38.38-.91.37-1.6.03-.67-.08-1.34-.31-2.01-.23-.67-.56-1.29-.98-1.84-.42-.55-.91-.99-1.45-1.31-.55-.32-1.04-.46-1.48-.41-.44.05-.79.27-1.04.66-.25.39-.38.93-.37,1.61-.03.67.08,1.33.31,2,.23.67.57,1.28,1,1.83.43.56.92,1,1.47,1.32Z"/>
        <path d="M254.67,459.73l.3-17.71,3.88,2.27-.3,17.71-3.88-2.27ZM256.59,454l.06-3.59,8.27,4.84-.06,3.59-8.27-4.84ZM256.71,446.87l.06-3.8,9.21,5.38-.06,3.79-9.21-5.38Z"/>
        <path d="M273.76,471.15c-1.26-.74-2.38-1.7-3.35-2.88s-1.73-2.46-2.29-3.84c-.56-1.38-.82-2.74-.8-4.09.02-1.35.33-2.38.92-3.09.59-.71,1.38-1.08,2.37-1.12.99-.03,2.12.32,3.39,1.06,1.26.74,2.38,1.7,3.35,2.88.97,1.18,1.73,2.46,2.28,3.84.55,1.38.81,2.74.78,4.09-.02,1.35-.33,2.38-.91,3.1-.58.72-1.37,1.09-2.36,1.12-.99.03-2.12-.32-3.38-1.06ZM273.82,467.66c.55.32,1.04.45,1.47.4.43-.05.77-.27,1.03-.65.25-.38.38-.91.37-1.6.03-.67-.08-1.34-.31-2.01-.23-.67-.56-1.29-.98-1.84-.42-.55-.91-.99-1.45-1.31-.55-.32-1.04-.46-1.48-.41-.44.05-.79.27-1.04.66-.25.39-.38.92-.37,1.61-.03.67.08,1.33.31,2,.23.67.57,1.28,1,1.83.43.56.92,1,1.47,1.32Z"/>
        <path d="M282.69,476.12l.23-13.44,3.47,2.03.09,4.47-.67-1.24c.19-.62.51-1.09.93-1.42.43-.33.93-.5,1.5-.5.57,0,1.17.17,1.81.55.27.16.53.34.76.52.23.19.45.38.65.56l-1.08,3.89c-.17-.22-.39-.44-.67-.69-.28-.24-.57-.45-.88-.63-.34-.2-.65-.32-.94-.36-.29-.04-.54,0-.74.12-.2.12-.36.31-.48.56-.12.25-.18.58-.19.99l-.11,6.73-3.68-2.15Z"/>
        <path d="M298.19,491.06c-.99-.58-1.97-1.32-2.95-2.21-.98-.89-1.77-1.77-2.37-2.63l1.33-2.09c.32.42.67.84,1.05,1.24.38.4.79.78,1.21,1.13.42.35.86.65,1.3.91.78.45,1.41.7,1.9.73.49.03.86-.14,1.12-.51.25-.37.39-.95.4-1.72l.04-2.25.71.54c-.12.5-.39.85-.81,1.06-.43.21-.95.28-1.56.2-.62-.08-1.27-.32-1.95-.72-1.1-.64-2.07-1.5-2.92-2.56-.85-1.07-1.52-2.25-1.99-3.54-.48-1.29-.71-2.6-.68-3.91.02-1.35.28-2.4.79-3.15.51-.75,1.19-1.18,2.05-1.28.86-.1,1.83.16,2.89.78.46.27.89.58,1.31.95.42.36.8.75,1.16,1.15.35.4.67.82.95,1.24.28.43.5.84.67,1.25.17.41.28.79.34,1.14l-.76-.24.19-2.96,3.47,2.03-.21,12.35c-.02,1.1-.18,1.98-.49,2.66-.31.68-.76,1.15-1.34,1.41-.58.26-1.28.31-2.09.15-.81-.17-1.73-.55-2.75-1.15ZM298.44,482.05c.59.35,1.11.5,1.55.46.44-.04.78-.25,1.03-.64.25-.38.37-.93.39-1.64.01-.71-.1-1.4-.32-2.07-.23-.67-.55-1.28-.98-1.83s-.94-1-1.53-1.34c-.58-.34-1.08-.48-1.52-.44s-.77.27-1.01.66c-.25.39-.37.94-.39,1.65-.01.71.1,1.39.32,2.05.23.66.55,1.26.97,1.81.42.54.92.99,1.5,1.32Z"/>
        <path d="M313.8,494.56c-1.34-.78-2.5-1.76-3.48-2.94-.98-1.18-1.74-2.45-2.26-3.8-.53-1.36-.79-2.7-.76-4.04.02-1.03.19-1.88.5-2.57s.76-1.18,1.32-1.49c.56-.31,1.22-.42,1.98-.33.76.1,1.59.4,2.49.93.85.5,1.63,1.12,2.33,1.87.7.75,1.31,1.58,1.82,2.49.51.91.89,1.86,1.15,2.85.26.99.37,1.96.32,2.92l-.04,1.08-9.66-5.65-.49-2.59,7.22,4.22-.4.25v-.51c-.01-.44-.13-.88-.33-1.33-.2-.45-.47-.87-.8-1.25-.33-.38-.71-.7-1.14-.95-.59-.35-1.1-.51-1.53-.5-.42.02-.75.21-.97.58-.22.37-.34.92-.35,1.65-.01.74.12,1.47.39,2.18.27.71.68,1.38,1.21,2,.54.62,1.18,1.15,1.92,1.58.52.3.98.49,1.39.56.41.07.85.04,1.33-.09l1.67,3.68c-.48.18-.99.26-1.53.23-.54-.02-1.09-.13-1.64-.31-.56-.18-1.11-.43-1.66-.75Z"/>
      </g>
      <g>
        <path d="M330.26,684.22l.3-17.71,3.47,2.03,5.65,13.91-2.49-1.48,6.07-7.03,3.33,1.95-.3,17.71-3.77-2.2.09-5.52c.03-1.52.08-2.87.17-4.04.09-1.17.23-2.31.42-3.41l.41,1.57-4.56,5.03-1.51-.88-4.21-10.1.46-1.11c.15,1.23.25,2.46.3,3.69.05,1.23.06,2.66.03,4.3l-.09,5.52-3.77-2.2Z"/>
        <path d="M355.7,699.35c-1.34-.78-2.5-1.76-3.48-2.94-.98-1.18-1.74-2.45-2.27-3.8-.53-1.36-.79-2.7-.76-4.04.02-1.03.19-1.89.5-2.57.32-.68.76-1.18,1.32-1.49.56-.31,1.22-.42,1.98-.33.76.09,1.59.4,2.49.93.85.5,1.63,1.13,2.33,1.88.7.75,1.31,1.58,1.82,2.49.51.91.89,1.86,1.15,2.85.26.99.37,1.96.32,2.92l-.04,1.08-9.66-5.65-.49-2.58,7.22,4.22-.4.25v-.51c-.01-.44-.13-.88-.33-1.33s-.47-.87-.8-1.25-.71-.7-1.14-.95c-.59-.35-1.1-.51-1.53-.5-.42.02-.75.21-.97.58-.22.37-.34.92-.35,1.65-.01.74.12,1.47.39,2.18.27.71.68,1.38,1.21,2,.54.62,1.18,1.15,1.92,1.58.52.3.98.49,1.39.55.41.07.85.04,1.33-.09l1.67,3.68c-.48.18-.99.26-1.53.23-.54-.02-1.09-.13-1.65-.31-.56-.18-1.11-.43-1.66-.75Z"/>
        <path d="M367.9,706.51c-1.05-.61-1.98-1.46-2.78-2.54-.8-1.07-1.43-2.28-1.89-3.61-.45-1.33-.67-2.67-.65-4.02.02-1.35.28-2.41.77-3.19.49-.78,1.15-1.23,1.98-1.36s1.78.12,2.85.74c.55.32,1.07.72,1.57,1.2.5.48.95,1,1.36,1.56.41.56.74,1.12.99,1.69.25.57.4,1.08.44,1.55l-.87-.28.15-8.66,3.68,2.15-.32,18.73-3.4-1.99-.15-3.18.73.55c-.05.4-.21.71-.46.96-.26.24-.59.39-.99.46-.4.06-.86.03-1.37-.09-.51-.12-1.05-.35-1.61-.67ZM368.89,703.69c.56.33,1.05.46,1.47.4.42-.06.74-.3.97-.71.23-.41.35-.98.36-1.7.01-.74-.09-1.45-.3-2.12-.21-.67-.52-1.28-.93-1.82-.41-.55-.89-.98-1.45-1.31-.56-.33-1.05-.46-1.46-.39-.41.07-.73.31-.97.71-.24.41-.36.98-.37,1.72-.01.73.09,1.42.31,2.1.22.67.53,1.28.93,1.82.4.54.88.97,1.44,1.31Z"/>
        <path d="M380.55,697.37c-.68-.4-1.22-.89-1.6-1.49-.38-.59-.57-1.22-.56-1.9.01-.61.22-.99.62-1.15.4-.16.94-.04,1.61.35.69.4,1.22.89,1.59,1.48.38.59.56,1.21.55,1.86-.01.63-.21,1.02-.61,1.18-.39.16-.93.05-1.6-.35ZM378.46,712.4l.23-13.44,3.65,2.14-.23,13.44-3.65-2.14Z"/>
        <path d="M390.01,719.39c-1.02-.6-1.93-1.43-2.71-2.49-.79-1.07-1.41-2.27-1.87-3.6-.45-1.33-.67-2.66-.65-4,.02-1.37.28-2.44.77-3.2.49-.77,1.15-1.21,1.98-1.33.83-.12,1.77.13,2.82.74.58.34,1.11.74,1.58,1.21.48.47.89.97,1.26,1.51.36.54.66,1.1.92,1.69.25.58.43,1.15.55,1.71l-.75-.54.05-3.19,3.63,2.12-.23,13.44-3.7-2.16.05-3.24.82.46c-.13.4-.34.73-.62.99-.28.26-.62.44-1.02.52s-.85.08-1.34-.01c-.49-.1-1.01-.31-1.56-.63ZM391.07,716.56c.56.33,1.05.47,1.47.42s.74-.27.98-.67c.24-.4.36-.96.37-1.69.01-.72-.09-1.42-.31-2.08-.22-.66-.53-1.26-.94-1.8-.41-.54-.89-.97-1.45-1.3-.55-.32-1.03-.45-1.43-.39-.41.06-.73.29-.97.69-.24.4-.36.96-.37,1.69-.01.72.09,1.42.31,2.08.22.67.53,1.26.93,1.78.4.52.87.94,1.42,1.26Z"/>
        <path d="M400.98,725.57l.3-17.71,3.88,2.27-.3,17.71-3.88-2.27ZM402.9,719.84l.06-3.59,8.27,4.84-.06,3.59-8.27-4.84ZM403.02,712.71l.06-3.8,9.21,5.38-.06,3.8-9.21-5.38Z"/>
        <path d="M414.5,733.48l.23-13.44,3.47,2.03.09,4.47-.67-1.24c.19-.62.51-1.09.94-1.42.43-.33.93-.5,1.49-.5.57,0,1.17.17,1.81.55.27.16.53.33.77.52.23.19.45.38.65.56l-1.08,3.89c-.17-.22-.39-.44-.67-.69-.28-.24-.57-.45-.88-.63-.34-.19-.65-.31-.94-.36-.29-.04-.54,0-.74.12-.2.12-.36.31-.48.56-.12.25-.18.58-.19.99l-.11,6.73-3.68-2.15Z"/>
        <path d="M428.86,742.11c-1.02-.6-1.92-1.43-2.71-2.49-.79-1.07-1.41-2.26-1.87-3.59-.45-1.33-.67-2.66-.65-4,.02-1.37.28-2.44.77-3.2.49-.77,1.15-1.22,1.98-1.33.83-.12,1.77.13,2.82.74.58.34,1.11.74,1.58,1.21.48.47.9.97,1.26,1.51.36.54.66,1.1.92,1.69.25.58.43,1.15.55,1.71l-.75-.54.05-3.19,3.63,2.12-.23,13.44-3.7-2.16.05-3.24.82.46c-.13.4-.34.73-.62.99-.28.26-.62.44-1.02.53-.4.09-.85.08-1.34-.02-.49-.1-1.01-.31-1.56-.63ZM429.92,739.28c.56.33,1.05.47,1.47.42.42-.05.74-.27.98-.67.24-.4.36-.96.37-1.69s-.09-1.42-.31-2.09c-.22-.66-.53-1.26-.94-1.8-.41-.54-.89-.97-1.45-1.3-.55-.32-1.03-.45-1.43-.39-.41.06-.73.29-.97.68-.24.4-.36.96-.37,1.69s.09,1.42.31,2.09c.22.66.53,1.26.93,1.78.4.52.87.95,1.42,1.26Z"/>
        <path d="M439.44,748.06l.23-13.44,3.47,2.03.07,2.8-.74-.12c.18-.51.49-.89.93-1.13s.97-.34,1.58-.29c.61.05,1.26.27,1.93.67.91.54,1.68,1.19,2.3,1.97.62.78,1.08,1.67,1.38,2.68.31,1,.45,2.1.43,3.28l-.14,8.25-3.68-2.15.13-7.92c0-.54-.05-1.03-.18-1.46-.13-.43-.34-.82-.61-1.16-.28-.34-.62-.62-1.04-.85-.32-.19-.62-.31-.89-.36-.28-.05-.52-.03-.72.07-.2.09-.36.24-.48.45-.12.2-.18.47-.19.79l-.14,8.05-1.8-1.05c-.43-.25-.79-.46-1.1-.64-.3-.18-.55-.33-.75-.44Z"/>
        <path d="M459.26,759.91c-1.17-.68-2.22-1.6-3.14-2.75s-1.64-2.41-2.16-3.78c-.52-1.37-.77-2.72-.75-4.06.02-1.33.31-2.37.87-3.11s1.31-1.14,2.25-1.2c.94-.07,1.99.25,3.17.93,1.08.63,2.07,1.42,2.97,2.38.9.95,1.61,1.96,2.13,3.04l-2.03,1.47c-.21-.39-.46-.79-.74-1.2-.29-.41-.6-.78-.95-1.12s-.71-.62-1.09-.84c-.58-.34-1.09-.49-1.54-.45-.45.04-.8.25-1.05.63-.25.38-.38.91-.39,1.58-.01.64.11,1.3.35,1.97.24.67.58,1.29,1.02,1.85s.94,1.01,1.5,1.34c.4.23.76.39,1.1.48.34.09.65.1.93.05.28-.06.55-.17.8-.35l1.92,3.81c-.53.42-1.26.58-2.19.46s-1.92-.48-2.97-1.1Z"/>
        <path d="M470.86,766.67c-1.02-.6-1.93-1.43-2.71-2.49-.79-1.07-1.41-2.26-1.87-3.59-.45-1.33-.67-2.66-.65-4,.02-1.37.28-2.44.77-3.2.49-.77,1.15-1.22,1.98-1.33.83-.12,1.77.13,2.82.75.58.34,1.11.74,1.58,1.21.48.47.9.97,1.26,1.51.36.54.66,1.1.92,1.69.25.58.43,1.15.55,1.71l-.75-.54.05-3.19,3.63,2.12-.23,13.44-3.7-2.16.05-3.24.82.46c-.13.4-.34.73-.62.99-.28.26-.62.44-1.02.53-.4.09-.85.08-1.34-.02-.49-.1-1.01-.31-1.56-.63ZM471.93,763.84c.56.33,1.05.47,1.47.42.42-.05.74-.27.98-.67.24-.4.36-.96.37-1.69s-.09-1.42-.31-2.09c-.22-.66-.53-1.26-.94-1.8-.41-.54-.89-.97-1.46-1.3-.55-.32-1.03-.45-1.43-.39-.41.06-.73.29-.97.68-.24.4-.36.96-.37,1.69s.09,1.42.31,2.09c.22.66.53,1.26.93,1.78.4.52.87.95,1.42,1.26Z"/>
      </g>
      <g>
        <path d="M340.03,255.53l.2-18.4,5.65-3.18c.75-.42,1.44-.56,2.05-.41.61.15,1.1.55,1.46,1.2.36.65.54,1.5.52,2.55-.01,1.05-.21,2.11-.58,3.18-.38,1.07-.88,2.03-1.5,2.9-.62.86-1.31,1.51-2.06,1.93l-3.51,1.98-.08,7.04-2.14,1.21ZM342.28,244.54l3.47-1.95c.36-.2.68-.52.98-.96s.53-.93.72-1.47.28-1.09.28-1.64c0-.54-.08-.98-.25-1.32-.17-.34-.4-.56-.69-.66-.29-.1-.61-.05-.97.15l-3.47,1.95-.06,5.89Z"/>
        <path d="M353.36,248.02l.15-13.8,2.04-1.15-.15,13.8-2.04,1.15ZM354.54,230.62c-.44.25-.77.29-1.01.12-.23-.16-.35-.52-.34-1.06,0-.51.13-.99.38-1.44.25-.45.58-.8,1.01-1.04s.77-.29,1.01-.12c.23.16.35.52.34,1.06,0,.51-.13.99-.38,1.44-.25.45-.58.8-1.01,1.04Z"/>
        <path d="M363.89,242.36c-.97.54-1.83.71-2.58.51-.75-.2-1.35-.72-1.78-1.56-.43-.84-.64-1.93-.62-3.28.01-1.35.25-2.69.7-4.03.45-1.34,1.07-2.53,1.83-3.59.77-1.06,1.63-1.86,2.6-2.4s1.77-.75,2.52-.68c.76.07,1.33.43,1.71,1.06l-1.15,2.48c-.21-.28-.47-.5-.8-.65-.33-.15-.68-.21-1.04-.2s-.72.12-1.07.31c-.64.36-1.2.88-1.7,1.57-.5.69-.9,1.48-1.2,2.36-.3.88-.45,1.77-.46,2.66s.13,1.61.43,2.15c.3.54.69.88,1.19,1.01.5.14,1.05.04,1.66-.31.36-.2.7-.47,1.04-.82.34-.35.67-.77.99-1.26.32-.49.62-1.05.91-1.66l1.11,1.2c-.43,1.03-1.04,2.02-1.84,2.97-.79.95-1.61,1.67-2.46,2.14Z"/>
        <path d="M372.31,237.36l.19-17.32,2.04-1.15-.19,17.32-2.04,1.15ZM370.26,227.4l.03-2.63,6.63-3.73-.03,2.63-6.63,3.73Z"/>
        <path d="M384.14,230.95c-1.02.57-1.92.77-2.72.6-.79-.17-1.41-.67-1.87-1.48-.45-.82-.67-1.92-.65-3.3s.26-2.75.73-4.08c.47-1.34,1.12-2.54,1.92-3.62.81-1.07,1.72-1.9,2.74-2.47s1.9-.76,2.7-.59c.79.17,1.41.67,1.87,1.48.45.82.67,1.92.65,3.3s-.26,2.75-.73,4.08c-.48,1.34-1.12,2.54-1.92,3.61-.81,1.07-1.71,1.89-2.72,2.46ZM384.17,228.48c.62-.35,1.18-.87,1.67-1.56.49-.69.88-1.46,1.17-2.33.29-.87.42-1.74.42-2.63.02-.92-.1-1.65-.37-2.21-.27-.55-.65-.89-1.13-1.02-.48-.13-1.04-.02-1.66.33s-1.18.87-1.68,1.56c-.5.69-.89,1.47-1.18,2.34-.29.87-.43,1.74-.42,2.63-.02.9.1,1.63.37,2.18.27.55.65.9,1.14,1.03.49.13,1.05.02,1.67-.33Z"/>
        <path d="M397.19,229.35c-.74.42-1.48.68-2.21.79-.73.11-1.32.04-1.76-.2l.78-2.53c.26.11.57.17.92.17.36,0,.73-.05,1.12-.16s.79-.27,1.17-.49c.73-.41,1.34-.91,1.83-1.5.49-.59.87-1.26,1.13-2.02.26-.76.39-1.59.4-2.5l.03-2.65.22.06c-.07.58-.29,1.22-.66,1.93-.37.71-.83,1.37-1.37,1.99-.55.62-1.1,1.09-1.67,1.41-.99.56-1.87.74-2.64.56-.77-.19-1.37-.69-1.81-1.52-.44-.82-.65-1.93-.63-3.31s.25-2.74.7-4.07c.45-1.33,1.07-2.52,1.85-3.58.78-1.06,1.65-1.86,2.62-2.4.4-.22.78-.37,1.15-.45.37-.08.71-.09,1.03-.03.31.06.6.16.84.3.25.14.45.32.61.55.15.23.25.47.29.73l-.44.46.03-3.23,2.04-1.15-.14,12.96c-.01,1.1-.14,2.15-.4,3.14s-.62,1.9-1.08,2.75c-.47.85-1.04,1.61-1.7,2.29-.66.68-1.41,1.25-2.25,1.72ZM397.36,221.03c.65-.36,1.23-.89,1.73-1.58.51-.69.9-1.46,1.19-2.32.28-.86.43-1.74.44-2.65s-.12-1.64-.4-2.19c-.28-.55-.66-.89-1.15-1.01-.49-.12-1.06,0-1.71.36s-1.2.88-1.7,1.57c-.5.69-.9,1.47-1.19,2.34s-.44,1.75-.45,2.65.12,1.61.4,2.16c.28.55.66.89,1.15,1.01.49.12,1.06,0,1.69-.35Z"/>
        <path d="M406.4,218.16l.15-13.8,2.06-1.16-.05,4.34-.19-.94c.15-.75.41-1.49.76-2.23.36-.74.76-1.4,1.22-1.97.46-.57.93-1,1.42-1.27.22-.13.44-.22.64-.28.2-.06.37-.09.48-.09l-.57,3.24c-.16,0-.33.03-.52.07-.19.05-.38.12-.56.23-.36.2-.7.49-1.02.85-.33.37-.61.78-.86,1.24-.25.46-.45.95-.6,1.46-.15.51-.23,1.02-.23,1.53l-.08,7.62-2.06,1.16Z"/>
        <path d="M418.9,211.39c-.86.48-1.64.61-2.34.38-.7-.23-1.26-.77-1.67-1.62-.41-.85-.61-1.96-.59-3.32.01-1.38.24-2.74.68-4.06.44-1.32,1.03-2.49,1.77-3.52.74-1.03,1.57-1.8,2.48-2.31.54-.31,1.04-.48,1.48-.52.45-.04.84.03,1.17.22s.61.46.82.83c.21.37.34.82.39,1.35l-.45.05.04-3.57,2.06-1.16-.15,13.8-2.06,1.16.04-3.28.48-.45c-.08.52-.25,1.07-.5,1.65s-.56,1.16-.94,1.72-.8,1.08-1.26,1.54c-.46.47-.94.84-1.44,1.13ZM419.46,208.59c.62-.35,1.17-.86,1.65-1.53.48-.67.86-1.44,1.14-2.3.28-.86.42-1.75.43-2.66,0-.89-.12-1.61-.38-2.16-.26-.55-.63-.89-1.1-1.02s-1.02-.03-1.64.32-1.15.85-1.62,1.51c-.47.67-.85,1.43-1.13,2.28-.28.86-.42,1.73-.43,2.62,0,.91.12,1.64.38,2.2.26.56.63.9,1.09,1.04.46.14,1,.04,1.61-.31Z"/>
        <path d="M428.32,211.57l.21-19.58,2.06-1.16-.03,3.15-.31-.06c.08-.57.32-1.2.69-1.89.38-.69.83-1.34,1.37-1.95.54-.61,1.09-1.07,1.66-1.39.94-.53,1.77-.69,2.49-.49.72.2,1.29.72,1.7,1.55.41.83.61,1.94.6,3.32-.02,1.37-.24,2.71-.66,4.02-.43,1.31-1.01,2.48-1.74,3.52-.73,1.03-1.56,1.8-2.47,2.32-.61.34-1.19.51-1.76.51-.57,0-1.04-.15-1.43-.43-.39-.28-.63-.67-.72-1.16l.52-.66-.1,9.23-2.06,1.16ZM433.56,200.62c.61-.34,1.15-.85,1.63-1.52s.86-1.44,1.15-2.29c.28-.86.43-1.73.44-2.63s-.12-1.61-.38-2.15-.63-.88-1.1-1.01c-.47-.13-1.02-.03-1.64.32s-1.17.86-1.65,1.52-.86,1.42-1.15,2.28c-.29.86-.43,1.73-.44,2.63s.12,1.61.39,2.16c.27.54.64.88,1.11,1.02s1.02.03,1.64-.32Z"/>
        <path d="M441.83,198.21l.21-19.45,2.04-1.15-.09,8.49-.36.52c.14-.69.4-1.4.79-2.13.39-.73.85-1.41,1.38-2.03.53-.62,1.08-1.09,1.63-1.4.79-.45,1.45-.61,1.98-.5.52.12.91.52,1.17,1.21.25.69.38,1.68.36,2.96l-.09,8.41-2.04,1.15.09-8.23c0-.79-.06-1.4-.22-1.83-.15-.43-.4-.67-.72-.72-.33-.05-.74.08-1.23.39-.4.22-.76.51-1.09.86-.33.35-.62.75-.87,1.18-.25.44-.44.89-.59,1.36-.14.47-.22.94-.22,1.39l-.09,8.36-1.01.57-.52.29-.51.29Z"/>
        <path d="M454.9,190.85l.15-13.8,2.04-1.15-.15,13.8-2.04,1.15ZM456.08,173.45c-.44.25-.77.29-1.01.12-.23-.16-.35-.52-.34-1.06,0-.51.13-.99.38-1.44.25-.45.58-.8,1.01-1.04s.77-.29,1.01-.12c.23.16.35.52.34,1.06,0,.51-.13.99-.38,1.44-.25.45-.58.8-1.01,1.04Z"/>
        <path d="M465.43,185.19c-.97.54-1.83.71-2.58.51-.75-.2-1.35-.72-1.78-1.56-.43-.84-.64-1.93-.62-3.28.01-1.35.25-2.69.7-4.03.45-1.34,1.07-2.53,1.83-3.59.77-1.06,1.63-1.86,2.6-2.4s1.77-.75,2.52-.68c.76.07,1.33.43,1.71,1.06l-1.15,2.48c-.21-.28-.47-.5-.8-.65-.33-.15-.68-.21-1.04-.2s-.72.12-1.07.31c-.64.36-1.2.88-1.7,1.57-.5.69-.9,1.48-1.2,2.36-.3.88-.45,1.77-.46,2.66s.13,1.61.43,2.15c.3.54.69.88,1.19,1.01.5.14,1.05.04,1.66-.31.36-.2.7-.47,1.04-.82.34-.35.67-.77.99-1.26.32-.49.62-1.05.91-1.66l1.11,1.2c-.43,1.03-1.04,2.02-1.84,2.97-.79.95-1.61,1.67-2.46,2.14Z"/>
        <path d="M485.77,173.74c-1.01.57-1.94.85-2.81.86-.87,0-1.63-.23-2.28-.72s-1.15-1.2-1.5-2.14c-.35-.94-.52-2.08-.51-3.41.01-1.31.21-2.64.58-3.99.38-1.34.9-2.62,1.56-3.84.66-1.22,1.43-2.31,2.31-3.27.88-.97,1.82-1.73,2.83-2.3.7-.39,1.38-.65,2.05-.76.67-.11,1.27-.09,1.8.08s.98.46,1.31.88l-1.41,2.7c-.39-.28-.79-.48-1.21-.57-.41-.1-.84-.11-1.27-.04-.43.07-.87.23-1.31.47-.71.4-1.37.94-1.98,1.61-.6.67-1.14,1.43-1.6,2.29-.46.85-.82,1.75-1.08,2.69-.26.94-.4,1.88-.41,2.83-.01.91.11,1.7.37,2.37.26.67.62,1.17,1.08,1.52.46.35,1,.53,1.61.53s1.26-.19,1.95-.57c.52-.29,1.01-.67,1.47-1.13.47-.46.88-.98,1.24-1.55.36-.57.64-1.15.85-1.75.2-.59.31-1.16.31-1.7v-.53s.3.2.3.2l-4.25,2.39.03-2.81,6.15-3.46c.02.18.04.35.05.53.01.18.02.35.02.51,0,.16,0,.32,0,.48-.01,1.21-.18,2.4-.51,3.57-.33,1.17-.78,2.27-1.35,3.3-.57,1.04-1.23,1.96-1.98,2.77-.75.82-1.56,1.47-2.44,1.96Z"/>
        <path d="M500.03,165.71c-1.07.6-2.02.84-2.84.7-.82-.14-1.46-.6-1.92-1.39s-.68-1.86-.66-3.23c.01-1.09.15-2.15.43-3.19.27-1.04.65-2.02,1.13-2.95.48-.92,1.05-1.75,1.7-2.47.66-.73,1.37-1.31,2.14-1.74.68-.38,1.3-.56,1.88-.55.58.01,1.08.2,1.5.55.42.35.74.87.97,1.56.22.68.32,1.51.3,2.48l-.03,1.17-8.51,4.79-.43-1.9,7.2-4.05-.3.61v-.63c-.03-.56-.17-.99-.41-1.3-.25-.31-.56-.5-.94-.54-.38-.05-.8.06-1.25.31-.71.4-1.32.92-1.81,1.55-.49.64-.87,1.37-1.13,2.2-.26.83-.39,1.76-.4,2.77-.01.96.13,1.72.43,2.25.3.54.72.84,1.27.92.55.07,1.19-.1,1.92-.51.51-.29,1-.67,1.44-1.15.44-.48.93-1.16,1.45-2.05l1.01,1.34c-.32.6-.71,1.18-1.17,1.76-.46.57-.94,1.09-1.45,1.56-.51.47-1.01.85-1.5,1.12Z"/>
        <path d="M507.73,161.11l.15-13.8,2.04-1.15-.03,2.84-.36.52c.14-.69.4-1.4.79-2.13.39-.73.85-1.41,1.38-2.03.53-.62,1.08-1.09,1.63-1.4.79-.45,1.45-.61,1.98-.5.52.12.91.52,1.17,1.21.25.69.38,1.68.36,2.96l-.09,8.41-2.04,1.15.09-8.23c0-.79-.06-1.4-.22-1.83-.15-.43-.4-.67-.72-.72-.33-.05-.74.08-1.23.39-.4.22-.76.51-1.09.86-.33.35-.62.75-.87,1.18-.25.44-.44.89-.59,1.36-.14.47-.22.94-.22,1.39l-.09,8.36-1.01.57-.52.29-.51.29Z"/>
        <path d="M525.32,151.47c-1.07.6-2.02.84-2.84.7-.82-.14-1.46-.6-1.92-1.39s-.68-1.86-.66-3.23c.01-1.09.15-2.15.43-3.19.27-1.04.65-2.02,1.13-2.95.48-.92,1.05-1.75,1.7-2.47.66-.73,1.37-1.31,2.14-1.74.68-.38,1.3-.56,1.88-.55.58.01,1.08.2,1.5.55.42.35.74.87.97,1.56.22.68.32,1.51.3,2.48l-.03,1.17-8.51,4.79-.43-1.9,7.2-4.05-.3.61v-.63c-.03-.56-.17-.99-.41-1.3-.25-.31-.56-.5-.94-.54-.38-.05-.8.06-1.25.31-.71.4-1.32.92-1.81,1.55-.49.64-.87,1.37-1.13,2.2-.26.83-.39,1.76-.4,2.77-.01.96.13,1.72.43,2.25.3.54.72.84,1.27.92.55.07,1.19-.1,1.92-.51.51-.29,1-.67,1.44-1.15.44-.48.93-1.16,1.45-2.05l1.01,1.34c-.32.6-.71,1.18-1.17,1.76-.46.57-.94,1.09-1.45,1.56-.51.47-1.01.85-1.5,1.12Z"/>
        <path d="M533.02,146.87l.15-13.8,2.06-1.16-.05,4.34-.19-.94c.15-.75.41-1.49.76-2.23.36-.74.76-1.4,1.22-1.97.46-.57.93-1,1.42-1.27.22-.13.44-.22.64-.28.2-.06.37-.09.48-.09l-.57,3.24c-.16,0-.33.03-.52.07-.19.05-.38.12-.56.23-.36.2-.7.49-1.02.85-.33.37-.61.78-.86,1.24-.25.46-.45.95-.6,1.46-.15.51-.23,1.02-.23,1.53l-.08,7.62-2.06,1.16Z"/>
        <path d="M545.51,140.1c-.86.48-1.64.61-2.34.38-.7-.23-1.26-.77-1.67-1.62-.41-.85-.61-1.96-.59-3.32.01-1.38.24-2.74.68-4.06.44-1.32,1.03-2.49,1.77-3.52.74-1.03,1.57-1.8,2.48-2.31.54-.31,1.04-.48,1.48-.52.45-.04.84.03,1.17.22s.61.46.82.83c.21.37.34.82.39,1.35l-.45.05.04-3.57,2.06-1.16-.15,13.8-2.06,1.16.04-3.28.48-.45c-.08.52-.25,1.07-.5,1.65s-.56,1.16-.94,1.72-.8,1.08-1.26,1.54c-.46.47-.94.84-1.44,1.13ZM546.08,137.3c.62-.35,1.17-.86,1.65-1.53.48-.67.86-1.44,1.14-2.3.28-.86.42-1.75.43-2.66,0-.89-.12-1.61-.38-2.16-.26-.55-.63-.89-1.1-1.02s-1.02-.03-1.64.32-1.15.85-1.62,1.51c-.47.67-.85,1.43-1.13,2.28-.28.86-.42,1.73-.43,2.62,0,.91.12,1.64.38,2.2.26.56.63.9,1.09,1.04.46.14,1,.04,1.61-.31Z"/>
        <path d="M556.29,133.77l.19-17.32,2.04-1.15-.19,17.32-2.04,1.15ZM554.24,123.82l.03-2.63,6.63-3.73-.03,2.63-6.63,3.73Z"/>
        <path d="M563.88,129.5l.15-13.8,2.04-1.15-.15,13.8-2.04,1.15ZM565.06,112.09c-.44.25-.77.29-1.01.12-.23-.16-.35-.52-.34-1.06,0-.51.13-.99.38-1.44.25-.45.58-.8,1.01-1.04s.77-.29,1.01-.12c.23.16.35.52.34,1.06,0,.51-.13.99-.38,1.44-.25.45-.58.8-1.01,1.04Z"/>
        <path d="M573.4,124.14l-4.25-11.32,2.2-1.24,3.06,8.54-.38.45,3.51-12.48,2.1-1.18-4.77,16.4-1.47.83Z"/>
        <path d="M586.85,116.83c-1.07.6-2.02.84-2.84.7-.82-.14-1.46-.6-1.92-1.39s-.68-1.86-.66-3.23c.01-1.09.15-2.15.43-3.19.27-1.04.65-2.02,1.13-2.95.48-.92,1.05-1.75,1.7-2.47.66-.73,1.37-1.31,2.14-1.74.68-.38,1.3-.56,1.88-.55.58.01,1.08.2,1.5.55.42.35.74.87.97,1.56.22.68.32,1.51.3,2.48l-.03,1.17-8.51,4.79-.43-1.9,7.2-4.05-.3.61v-.63c-.03-.56-.17-.99-.41-1.3-.25-.31-.56-.5-.94-.54-.38-.05-.8.06-1.25.31-.71.4-1.32.92-1.81,1.55-.49.64-.87,1.37-1.13,2.2-.26.83-.39,1.76-.4,2.77-.01.96.13,1.72.43,2.25.3.54.72.84,1.27.92.55.07,1.19-.1,1.92-.51.51-.29,1-.67,1.44-1.15.44-.48.93-1.16,1.45-2.05l1.01,1.34c-.32.6-.71,1.18-1.17,1.76-.46.57-.94,1.09-1.45,1.56-.51.47-1.01.85-1.5,1.12Z"/>
        <path d="M605.83,106.14c-.75.42-1.45.69-2.09.78-.64.1-1.22.03-1.73-.21-.52-.24-.98-.64-1.38-1.2l1.49-3.06c.63.86,1.25,1.36,1.84,1.5s1.3-.02,2.12-.49c.5-.28.96-.64,1.37-1.09.41-.44.74-.91.98-1.41.24-.5.37-.99.37-1.46,0-.32-.03-.59-.11-.83-.08-.24-.2-.42-.36-.56s-.37-.23-.63-.27c-.26-.05-.56-.05-.9,0-.34.04-.74.14-1.19.29-.71.21-1.33.31-1.86.29-.53-.02-.96-.16-1.32-.43-.35-.27-.61-.66-.78-1.17s-.24-1.14-.24-1.89c0-.74.14-1.49.39-2.26.25-.77.59-1.5,1.03-2.21.43-.71.94-1.35,1.53-1.93.58-.58,1.21-1.06,1.89-1.44.71-.4,1.37-.65,1.96-.74s1.12-.02,1.58.2c.46.22.83.6,1.13,1.13l-1.53,2.82c-.26-.43-.55-.75-.88-.96-.33-.21-.69-.3-1.08-.28-.39.02-.82.16-1.27.41-.51.29-.97.65-1.35,1.07-.39.43-.69.89-.91,1.39-.22.5-.34,1-.34,1.51,0,.37.04.68.15.92.1.25.26.43.48.54.22.11.51.16.88.13.37-.02.81-.11,1.32-.26.73-.2,1.37-.3,1.94-.29.56,0,1.04.11,1.43.33.39.21.69.54.89.96.2.43.29.96.29,1.59-.01,1.17-.23,2.31-.65,3.4-.42,1.09-1.01,2.08-1.77,2.97s-1.66,1.63-2.71,2.22Z"/>
        <path d="M616.03,106.15l2.17-7.62v2.14s-5.03-12.63-5.03-12.63l2.38-1.34,3.14,8.31c.07.14.14.36.23.67.09.31.16.62.23.93l-.52.45c.11-.43.22-.85.32-1.28.1-.42.2-.85.3-1.27l2.82-11.49,2.42-1.36-4.43,16.21-1.83,7.04-2.2,1.24Z"/>
        <path d="M630.07,92.49c-.87.49-1.66.73-2.36.72-.7,0-1.27-.28-1.73-.81l1.41-2.36c.39.39.82.59,1.28.6.47,0,1-.16,1.59-.49.24-.13.46-.3.67-.49.21-.19.39-.41.54-.66.15-.24.27-.5.35-.76.08-.26.12-.53.13-.79,0-.45-.12-.75-.36-.89-.13-.05-.34-.07-.62-.05-.28.01-.65.06-1.1.16-.76.17-1.39.23-1.88.17-.49-.06-.86-.22-1.12-.49-.2-.22-.34-.5-.43-.84-.09-.34-.13-.75-.13-1.22,0-.58.11-1.16.31-1.75.2-.59.47-1.16.81-1.71s.74-1.05,1.2-1.5c.46-.45.94-.82,1.46-1.11.49-.27.97-.46,1.46-.56.48-.1.92-.09,1.33,0,.4.1.74.3,1.02.6l-1.19,2.37c-.25-.19-.52-.33-.81-.42-.29-.09-.59-.11-.9-.08s-.58.12-.83.26c-.28.16-.53.33-.76.53-.23.2-.41.41-.57.63-.16.23-.27.47-.35.72-.08.26-.12.51-.13.78.01.22.05.41.12.57.07.16.17.27.3.34.15.06.36.08.65.08.29,0,.66-.06,1.11-.18.66-.14,1.2-.2,1.63-.17s.76.15,1.01.36c.26.19.44.46.54.84.1.38.15.84.14,1.38,0,.79-.18,1.59-.53,2.4-.34.81-.8,1.55-1.37,2.22s-1.21,1.2-1.91,1.6Z"/>
        <path d="M638.33,87.58l.19-17.32,2.04-1.15-.19,17.32-2.04,1.15ZM636.29,77.63l.03-2.63,6.63-3.73-.03,2.63-6.63,3.73Z"/>
        <path d="M650.35,81.08c-1.07.6-2.02.84-2.84.7-.82-.14-1.46-.6-1.92-1.39s-.68-1.86-.66-3.23c.01-1.09.15-2.15.43-3.19.27-1.04.65-2.02,1.13-2.95.48-.92,1.05-1.75,1.7-2.47.66-.73,1.37-1.31,2.14-1.74.68-.38,1.3-.56,1.88-.55.58.01,1.08.2,1.5.55.42.35.74.87.97,1.56.22.68.32,1.51.3,2.48l-.03,1.17-8.51,4.79-.43-1.9,7.2-4.05-.3.61v-.63c-.03-.56-.17-.99-.41-1.3-.25-.31-.56-.5-.94-.54-.38-.05-.8.06-1.25.31-.71.4-1.32.92-1.81,1.55-.49.64-.87,1.37-1.13,2.2-.26.83-.39,1.76-.4,2.77-.01.96.13,1.72.43,2.25.3.54.72.84,1.27.92.55.07,1.19-.1,1.92-.51.51-.29,1-.67,1.44-1.15.44-.48.93-1.16,1.45-2.05l1.01,1.34c-.32.6-.71,1.18-1.17,1.76-.46.57-.94,1.09-1.45,1.56-.51.47-1.01.85-1.5,1.12Z"/>
        <path d="M658,76.5l.15-13.8,2.06-1.16-.03,2.94-.38.53c.11-.52.28-1.05.52-1.6.24-.55.52-1.08.87-1.6.34-.51.71-.98,1.1-1.39.39-.41.79-.73,1.2-.96.6-.34,1.12-.5,1.56-.49.45,0,.81.2,1.1.56s.49.9.61,1.61l-.32.07.14-.53c.15-.48.35-.98.62-1.48s.56-.99.89-1.46c.33-.47.69-.88,1.06-1.25.37-.37.74-.65,1.09-.85.78-.44,1.42-.59,1.93-.46.5.13.88.56,1.13,1.27.25.71.37,1.71.35,2.99l-.09,8.28-2.06,1.16.09-8.12c0-.79-.06-1.39-.21-1.8-.15-.41-.37-.66-.67-.73s-.69.02-1.17.29c-.37.21-.72.49-1.04.84s-.61.74-.85,1.17c-.24.43-.43.88-.57,1.35-.14.47-.21.94-.21,1.41l-.09,8.25-2.06,1.16.09-8.17c0-.72-.06-1.28-.22-1.69-.15-.41-.38-.66-.68-.75-.3-.09-.67-.01-1.11.23-.37.21-.71.49-1.03.83s-.6.73-.84,1.15c-.24.42-.43.87-.57,1.34-.14.47-.21.93-.21,1.39l-.09,8.31-2.06,1.16Z"/>
      </g>
      <g>
        <path d="M567.34,379.44l.03-2.63,2.24-1.26.14-13.14-2.24,1.26.03-2.63,6.63-3.73-.03,2.63-2.24,1.26-.14,13.14,2.24-1.26-.03,2.63-6.63,3.73Z"/>
        <path d="M576.82,374.1l5.57-21.43,2.18-1.23,5.14,15.39-2.28,1.28-3.05-9.3c-.04-.1-.11-.36-.22-.77-.11-.41-.23-.86-.37-1.36s-.27-.95-.38-1.37c-.11-.41-.19-.68-.23-.8l.46-.28c-.08.34-.18.77-.3,1.29-.12.52-.24,1.07-.37,1.65-.13.58-.26,1.13-.38,1.64-.12.51-.23.94-.31,1.29l-3.27,12.76-2.18,1.23ZM579.25,368.19l.82-3.18,6.31-3.55.88,2.22-8.01,4.51Z"/>
        <path d="M599.57,361.29l.2-18.4,2.1-1.18,4.94,8.06-1.01.54,5.24-13.76,1.98-1.12-.2,18.4-2.14,1.21.08-7.54c.02-1.58.06-3.01.14-4.31.07-1.29.19-2.6.35-3.93l.27.82-4.64,11.86-1.31.74-4.3-6.72.23-1.2c.13,1.09.22,2.24.27,3.44.05,1.2.06,2.65.04,4.35l-.08,7.54-2.14,1.21Z"/>
        <path d="M621.13,349.41c-.86.48-1.64.61-2.34.38-.7-.23-1.26-.77-1.67-1.62-.41-.85-.61-1.96-.6-3.32.02-1.38.24-2.74.68-4.06.44-1.32,1.03-2.49,1.77-3.52.74-1.03,1.57-1.8,2.48-2.31.54-.31,1.04-.48,1.48-.52.45-.04.84.03,1.17.22s.61.46.82.83c.21.37.34.82.39,1.35l-.45.05.04-3.57,2.06-1.16-.15,13.8-2.06,1.16.04-3.29.48-.45c-.08.52-.25,1.07-.5,1.65-.25.58-.56,1.16-.94,1.72-.38.56-.8,1.08-1.26,1.55-.46.47-.94.84-1.44,1.12ZM621.69,346.61c.62-.35,1.17-.86,1.65-1.53.48-.67.86-1.44,1.14-2.3.28-.86.42-1.75.43-2.66,0-.89-.12-1.61-.38-2.16s-.63-.89-1.1-1.03c-.47-.13-1.02-.03-1.64.32s-1.15.85-1.62,1.51c-.47.67-.85,1.43-1.13,2.28s-.42,1.73-.43,2.62c-.01.91.12,1.64.38,2.2.26.56.63.9,1.09,1.04.46.14,1,.04,1.61-.31Z"/>
        <path d="M630.61,343.81l.15-13.8,2.04-1.15-.03,2.84-.36.52c.14-.69.4-1.4.79-2.13.39-.73.85-1.41,1.38-2.03.53-.62,1.08-1.09,1.63-1.4.79-.45,1.45-.61,1.98-.5.52.12.91.52,1.17,1.21.25.69.38,1.68.36,2.96l-.09,8.41-2.04,1.15.09-8.23c0-.79-.06-1.4-.22-1.83-.15-.43-.39-.67-.72-.72-.33-.05-.74.08-1.23.39-.4.22-.76.51-1.09.86-.33.35-.62.75-.87,1.18-.25.44-.44.89-.59,1.36-.14.47-.22.94-.22,1.39l-.09,8.36-1.01.57-.52.29-.51.29Z"/>
        <path d="M643.68,336.45l.15-13.8,2.04-1.15-.15,13.8-2.04,1.15ZM644.86,319.05c-.44.25-.77.29-1.01.12-.23-.16-.35-.52-.34-1.06,0-.51.13-.99.38-1.44.25-.45.58-.8,1.01-1.04s.77-.29,1.01-.12c.23.16.35.52.34,1.06,0,.51-.13.99-.38,1.44-.25.45-.58.8-1.01,1.04Z"/>
        <path d="M649.73,338.8l.21-19.58,2.06-1.16-.03,3.15-.32-.06c.09-.57.32-1.2.69-1.89.38-.69.83-1.34,1.37-1.95.54-.61,1.09-1.07,1.66-1.39.94-.53,1.77-.69,2.49-.49.72.2,1.29.72,1.7,1.55s.61,1.94.59,3.32c-.01,1.37-.24,2.71-.66,4.02-.43,1.31-1.01,2.48-1.74,3.52-.73,1.03-1.56,1.8-2.47,2.32-.61.34-1.19.51-1.76.51-.57,0-1.04-.15-1.43-.43-.39-.28-.63-.67-.72-1.16l.52-.66-.1,9.23-2.06,1.16ZM654.97,327.85c.61-.34,1.15-.85,1.63-1.52.48-.67.87-1.44,1.15-2.29.28-.86.43-1.73.44-2.63.01-.89-.12-1.61-.38-2.15-.26-.54-.63-.88-1.1-1.01s-1.02-.03-1.64.32-1.17.86-1.65,1.52c-.48.66-.86,1.42-1.15,2.28-.29.86-.43,1.73-.44,2.63,0,.89.12,1.61.39,2.16.27.54.64.88,1.11,1.02.47.14,1.02.03,1.64-.32Z"/>
        <path d="M666.89,323.65c-.74.42-1.38.55-1.93.41s-.96-.55-1.25-1.2c-.29-.66-.43-1.55-.41-2.69l.09-8.52,2.04-1.15-.08,7.78c0,.81.08,1.45.27,1.93.18.48.46.77.82.88.36.11.8.02,1.31-.27.38-.22.73-.5,1.05-.84.32-.35.6-.73.83-1.16s.42-.89.56-1.39c.14-.49.21-.99.21-1.48l.09-8.31,2.04-1.15-.15,13.8-2.04,1.15.03-2.89.36-.51c-.16.74-.44,1.47-.82,2.21-.38.74-.83,1.41-1.35,2-.52.6-1.07,1.06-1.67,1.4Z"/>
        <path d="M676.21,318.14l.21-19.45,2.04-1.15-.21,19.45-2.04,1.15Z"/>
        <path d="M685.89,312.95c-.86.48-1.64.61-2.34.38-.7-.23-1.26-.77-1.67-1.62-.41-.85-.61-1.96-.6-3.32.02-1.38.24-2.74.68-4.06.44-1.32,1.03-2.49,1.77-3.52.74-1.03,1.57-1.8,2.48-2.31.54-.31,1.04-.48,1.48-.52.45-.04.84.03,1.17.22s.61.46.82.83c.21.37.34.82.39,1.35l-.45.05.04-3.57,2.06-1.16-.15,13.8-2.06,1.16.04-3.29.48-.45c-.08.52-.25,1.07-.5,1.65-.25.58-.56,1.16-.94,1.72-.38.56-.8,1.08-1.26,1.55-.46.47-.94.84-1.44,1.12ZM686.45,310.15c.62-.35,1.17-.86,1.65-1.53.48-.67.86-1.44,1.14-2.3.28-.86.42-1.75.43-2.66,0-.89-.12-1.61-.38-2.16s-.63-.89-1.1-1.03c-.47-.13-1.02-.03-1.64.32s-1.15.85-1.62,1.51c-.47.67-.85,1.43-1.13,2.28s-.42,1.73-.43,2.62c-.01.91.12,1.64.38,2.2.26.56.63.9,1.09,1.04.46.14,1,.04,1.61-.31Z"/>
        <path d="M696.67,306.62l.19-17.32,2.04-1.15-.19,17.32-2.04,1.15ZM694.62,296.67l.03-2.63,6.63-3.73-.03,2.63-6.63,3.73Z"/>
        <path d="M704.26,302.35l.15-13.8,2.04-1.15-.15,13.8-2.04,1.15ZM705.44,284.94c-.44.25-.77.29-1.01.12-.23-.16-.35-.52-.34-1.06,0-.51.13-.99.38-1.44.25-.45.58-.8,1.01-1.04s.77-.29,1.01-.12c.23.16.35.52.34,1.06,0,.51-.13.99-.38,1.44-.25.45-.58.8-1.01,1.04Z"/>
        <path d="M715.05,296.53c-1.02.57-1.92.77-2.72.6-.79-.17-1.41-.67-1.87-1.48-.45-.82-.67-1.92-.65-3.3.02-1.38.26-2.75.74-4.08.47-1.34,1.11-2.54,1.92-3.62.81-1.07,1.72-1.9,2.74-2.47s1.9-.76,2.7-.59c.79.17,1.41.67,1.87,1.48.45.82.67,1.92.65,3.3-.01,1.38-.26,2.74-.73,4.08-.48,1.34-1.12,2.54-1.92,3.62-.81,1.07-1.71,1.89-2.72,2.46ZM715.08,294.06c.62-.35,1.18-.87,1.67-1.56.49-.69.88-1.46,1.17-2.33.29-.87.43-1.74.42-2.63.02-.92-.1-1.65-.37-2.21s-.65-.89-1.13-1.02c-.48-.13-1.04-.02-1.66.33s-1.18.87-1.68,1.56-.89,1.47-1.18,2.34c-.29.87-.43,1.74-.42,2.63-.02.9.1,1.63.37,2.18.27.55.65.9,1.14,1.03.49.13,1.05.02,1.67-.33Z"/>
        <path d="M723.5,291.51l.15-13.8,2.04-1.15-.03,2.84-.36.52c.14-.69.4-1.4.79-2.13.39-.73.85-1.41,1.38-2.03.53-.62,1.08-1.09,1.63-1.4.79-.45,1.45-.61,1.98-.5.52.12.91.52,1.17,1.21.25.69.38,1.68.36,2.96l-.09,8.41-2.04,1.15.09-8.23c0-.79-.06-1.4-.22-1.83-.15-.43-.39-.67-.72-.72-.33-.05-.74.08-1.23.39-.4.22-.76.51-1.09.86-.33.35-.62.75-.87,1.18-.25.44-.44.89-.59,1.36-.14.47-.22.94-.22,1.39l-.09,8.36-1.01.57-.52.29-.51.29Z"/>
        <path d="M746.73,278.7c-.86.48-1.64.61-2.34.38-.7-.23-1.26-.77-1.67-1.62-.41-.85-.61-1.96-.6-3.32.02-1.38.24-2.74.68-4.06.44-1.32,1.03-2.49,1.77-3.52.74-1.03,1.57-1.8,2.48-2.31.54-.31,1.04-.48,1.48-.52.45-.04.84.03,1.17.22s.61.46.82.83c.21.37.34.82.39,1.35l-.45.05.04-3.57,2.06-1.16-.15,13.8-2.06,1.16.04-3.29.48-.45c-.08.52-.25,1.07-.5,1.65-.25.58-.56,1.16-.94,1.72-.38.56-.8,1.08-1.26,1.55-.46.47-.94.84-1.44,1.12ZM747.29,275.9c.62-.35,1.17-.86,1.65-1.53.48-.67.86-1.44,1.14-2.3.28-.86.42-1.75.43-2.66,0-.89-.12-1.61-.38-2.16s-.63-.89-1.1-1.03c-.47-.13-1.02-.03-1.64.32s-1.15.85-1.62,1.51c-.47.67-.85,1.43-1.13,2.28s-.42,1.73-.43,2.62c-.01.91.12,1.64.38,2.2.26.56.63.9,1.09,1.04.46.14,1,.04,1.61-.31Z"/>
        <path d="M756.21,273.1l.15-13.8,2.04-1.15-.03,2.84-.36.52c.14-.69.4-1.4.79-2.13.39-.73.85-1.41,1.38-2.03.53-.62,1.08-1.09,1.63-1.4.79-.45,1.45-.61,1.98-.5.52.12.91.52,1.17,1.21.25.69.38,1.68.36,2.96l-.09,8.41-2.04,1.15.09-8.23c0-.79-.06-1.4-.22-1.83-.15-.43-.39-.67-.72-.72-.33-.05-.74.08-1.23.39-.4.22-.76.51-1.09.86-.33.35-.62.75-.87,1.18-.25.44-.44.89-.59,1.36-.14.47-.22.94-.22,1.39l-.09,8.36-1.01.57-.52.29-.51.29Z"/>
        <path d="M773.29,263.74c-.95.54-1.8.7-2.54.5s-1.32-.72-1.75-1.55c-.42-.83-.63-1.94-.61-3.32.02-1.38.24-2.74.69-4.06.44-1.32,1.04-2.5,1.78-3.54.75-1.04,1.59-1.82,2.53-2.35.52-.29,1.01-.46,1.49-.52.48-.05.91,0,1.29.16.38.16.68.4.89.73.21.32.32.71.31,1.17l-.6.39.1-9.23,2.04-1.15-.21,19.45-2.04,1.15.04-3.29.4-.22c0,.42-.12.9-.33,1.43-.22.53-.5,1.07-.86,1.62-.35.55-.76,1.05-1.22,1.52-.46.47-.93.83-1.4,1.1ZM773.59,261.25c.62-.35,1.17-.87,1.65-1.56.48-.69.86-1.47,1.14-2.35.28-.88.42-1.78.43-2.71.01-.93-.12-1.68-.38-2.26-.26-.57-.63-.94-1.1-1.09-.47-.15-1.02-.05-1.64.3s-1.17.87-1.65,1.56c-.48.69-.86,1.47-1.14,2.35-.28.88-.42,1.78-.43,2.71-.01.93.12,1.68.38,2.25.26.57.63.94,1.1,1.09.47.15,1.02.05,1.64-.3Z"/>
        <path d="M795.09,251.47c-.97.54-1.85.81-2.65.81-.8,0-1.49-.26-2.08-.77s-1.04-1.26-1.35-2.23c-.31-.97-.46-2.15-.45-3.54.01-1.31.2-2.64.57-3.96.36-1.33.86-2.59,1.49-3.8.63-1.21,1.36-2.28,2.19-3.22.83-.94,1.71-1.67,2.67-2.21.67-.38,1.33-.61,1.97-.7.64-.09,1.22-.04,1.73.15.52.19.94.5,1.26.92l-1.45,2.77c-.38-.29-.76-.5-1.15-.62s-.78-.16-1.18-.11c-.4.05-.81.19-1.22.42-.65.36-1.26.87-1.82,1.51-.57.64-1.06,1.37-1.48,2.18s-.76,1.68-1,2.62c-.25.93-.38,1.87-.39,2.82-.01,1,.1,1.84.32,2.52.22.68.54,1.2.96,1.54.42.34.92.5,1.5.47.59-.02,1.23-.24,1.95-.64.44-.25.87-.57,1.29-.96.42-.4.82-.85,1.2-1.35s.71-1.05,1.02-1.62l1.05,1.71c-.31.64-.73,1.31-1.25,1.99-.53.68-1.11,1.31-1.75,1.89s-1.29,1.05-1.94,1.42Z"/>
        <path d="M806.99,244.77c-.74.42-1.38.55-1.93.41s-.96-.55-1.25-1.2c-.29-.66-.43-1.55-.41-2.69l.09-8.52,2.04-1.15-.08,7.78c0,.81.08,1.45.27,1.93.18.48.46.77.82.88.36.11.8.02,1.31-.27.38-.22.73-.5,1.05-.84.32-.35.6-.73.83-1.16s.42-.89.56-1.39c.14-.49.21-.99.21-1.48l.09-8.31,2.04-1.15-.15,13.8-2.04,1.15.03-2.89.36-.51c-.16.74-.44,1.47-.82,2.21-.38.74-.83,1.41-1.35,2-.52.6-1.07,1.06-1.67,1.4Z"/>
        <path d="M816.28,239.28l.15-13.8,2.06-1.16-.05,4.34-.19-.94c.15-.75.41-1.49.76-2.23.36-.74.76-1.4,1.22-1.97.46-.57.93-1,1.42-1.27.22-.13.44-.22.64-.28.2-.06.37-.09.48-.09l-.57,3.24c-.16,0-.33.03-.52.07-.19.05-.38.12-.56.23-.36.2-.7.49-1.02.85-.33.37-.61.78-.86,1.24-.25.46-.45.95-.6,1.46-.15.51-.23,1.02-.23,1.53l-.08,7.62-2.06,1.16Z"/>
        <path d="M828.77,232.51c-.86.48-1.64.61-2.34.38-.7-.23-1.26-.77-1.67-1.62-.41-.85-.61-1.96-.6-3.32.02-1.38.24-2.74.68-4.06.44-1.32,1.03-2.49,1.77-3.52.74-1.03,1.57-1.8,2.48-2.31.54-.31,1.04-.48,1.48-.52.45-.04.84.03,1.17.22s.61.46.82.83c.21.37.34.82.39,1.35l-.45.05.04-3.57,2.06-1.16-.15,13.8-2.06,1.16.04-3.29.48-.45c-.08.52-.25,1.07-.5,1.65-.25.58-.56,1.16-.94,1.72-.38.56-.8,1.08-1.26,1.55-.46.47-.94.84-1.44,1.12ZM829.33,229.71c.62-.35,1.17-.86,1.65-1.53.48-.67.86-1.44,1.14-2.3.28-.86.42-1.75.43-2.66,0-.89-.12-1.61-.38-2.16s-.63-.89-1.1-1.03c-.47-.13-1.02-.03-1.64.32s-1.15.85-1.62,1.51c-.47.67-.85,1.43-1.13,2.28s-.42,1.73-.43,2.62c-.01.91.12,1.64.38,2.2.26.56.63.9,1.09,1.04.46.14,1,.04,1.61-.31Z"/>
        <path d="M839.54,226.18l.19-17.32,2.04-1.15-.19,17.32-2.04,1.15ZM837.5,216.23l.03-2.63,6.63-3.73-.03,2.63-6.63,3.73Z"/>
        <path d="M847.14,221.9l.15-13.8,2.04-1.15-.15,13.8-2.04,1.15ZM848.32,204.5c-.44.25-.77.29-1.01.12-.23-.16-.35-.52-.34-1.06,0-.51.13-.99.38-1.44.25-.45.58-.8,1.01-1.04s.77-.29,1.01-.12c.23.16.35.52.34,1.06,0,.51-.13.99-.38,1.44-.25.45-.58.8-1.01,1.04Z"/>
        <path d="M857.93,216.09c-1.02.57-1.92.77-2.72.6-.79-.17-1.41-.67-1.87-1.48-.45-.82-.67-1.92-.65-3.3.02-1.38.26-2.75.74-4.08.47-1.34,1.11-2.54,1.92-3.62.81-1.07,1.72-1.9,2.74-2.47s1.9-.76,2.7-.59c.79.17,1.41.67,1.87,1.48.45.82.67,1.92.65,3.3-.01,1.38-.26,2.74-.73,4.08-.48,1.34-1.12,2.54-1.92,3.62-.81,1.07-1.71,1.89-2.72,2.46ZM857.96,213.62c.62-.35,1.18-.87,1.67-1.56.49-.69.88-1.46,1.17-2.33.29-.87.43-1.74.42-2.63.02-.92-.1-1.65-.37-2.21s-.65-.89-1.13-1.02c-.48-.13-1.04-.02-1.66.33s-1.18.87-1.68,1.56-.89,1.47-1.18,2.34c-.29.87-.43,1.74-.42,2.63-.02.9.1,1.63.37,2.18.27.55.65.9,1.14,1.03.49.13,1.05.02,1.67-.33Z"/>
        <path d="M866.38,211.07l.15-13.8,2.04-1.15-.03,2.84-.36.52c.14-.69.4-1.4.79-2.13.39-.73.85-1.41,1.38-2.03.53-.62,1.08-1.09,1.63-1.4.79-.45,1.45-.61,1.98-.5.52.12.91.52,1.17,1.21.25.69.38,1.68.36,2.96l-.09,8.41-2.04,1.15.09-8.23c0-.79-.06-1.4-.22-1.83-.15-.43-.39-.67-.72-.72-.33-.05-.74.08-1.23.39-.4.22-.76.51-1.09.86-.33.35-.62.75-.87,1.18-.25.44-.44.89-.59,1.36-.14.47-.22.94-.22,1.39l-.09,8.36-1.01.57-.52.29-.51.29Z"/>
      </g>
      <g>
        <path d="M844.92,595.86l.2-18.4,2.14-1.21-.17,15.67,6.51-3.66-.03,2.73-8.65,4.87Z"/>
        <path d="M860.82,587.16c-.86.48-1.64.61-2.34.38-.7-.23-1.26-.77-1.67-1.62-.41-.85-.61-1.96-.6-3.32.02-1.38.24-2.74.69-4.06.44-1.32,1.03-2.49,1.77-3.52.74-1.03,1.57-1.8,2.48-2.31.54-.31,1.04-.48,1.48-.52.45-.04.84.03,1.17.22.33.19.61.46.82.83.21.37.34.82.39,1.35l-.45.05.04-3.57,2.06-1.16-.15,13.8-2.06,1.16.04-3.29.48-.45c-.08.52-.25,1.07-.5,1.65-.25.58-.56,1.16-.94,1.72-.38.56-.8,1.08-1.26,1.55-.46.47-.94.84-1.44,1.12ZM861.39,584.36c.62-.35,1.17-.86,1.65-1.53.48-.67.86-1.44,1.14-2.3.28-.86.42-1.75.43-2.66.01-.89-.12-1.61-.38-2.16s-.63-.89-1.1-1.03c-.47-.13-1.02-.03-1.64.32s-1.15.85-1.62,1.51c-.47.67-.85,1.43-1.13,2.28s-.42,1.73-.43,2.62c-.01.91.12,1.64.38,2.2.26.56.63.9,1.09,1.04.46.14,1,.04,1.61-.31Z"/>
        <path d="M870.31,581.56l.15-13.8,2.04-1.15-.03,2.84-.36.52c.14-.69.4-1.4.79-2.13.39-.73.85-1.41,1.38-2.03.53-.62,1.08-1.09,1.63-1.4.79-.45,1.45-.61,1.98-.5.52.11.91.52,1.17,1.21.25.69.38,1.68.36,2.96l-.09,8.41-2.04,1.15.09-8.23c0-.79-.06-1.4-.22-1.82-.15-.43-.39-.67-.72-.72-.33-.05-.74.08-1.23.39-.4.22-.76.51-1.09.86-.33.35-.62.75-.87,1.18-.25.44-.44.89-.59,1.36-.14.47-.22.94-.22,1.39l-.09,8.36-1.01.57-.52.29-.51.29Z"/>
        <path d="M887.64,577.81c-.74.42-1.48.68-2.21.79-.73.11-1.32.04-1.76-.2l.78-2.53c.26.11.57.17.93.17.35,0,.73-.05,1.12-.16s.79-.27,1.17-.49c.73-.41,1.34-.91,1.83-1.5.49-.59.87-1.26,1.13-2.02.26-.76.39-1.59.4-2.5l.03-2.66.22.06c-.07.58-.29,1.22-.66,1.93-.37.7-.83,1.37-1.37,1.99s-1.1,1.09-1.67,1.41c-.99.56-1.87.74-2.64.56s-1.37-.69-1.81-1.52-.65-1.93-.63-3.31c.01-1.38.25-2.74.7-4.07.45-1.33,1.07-2.52,1.85-3.58.78-1.06,1.65-1.86,2.62-2.4.4-.22.78-.37,1.15-.45.37-.08.71-.09,1.03-.03.31.06.6.16.84.3.25.14.45.32.61.55.15.23.25.47.29.73l-.44.46.03-3.23,2.04-1.15-.14,12.96c-.01,1.1-.15,2.15-.4,3.14s-.62,1.91-1.08,2.75c-.47.85-1.04,1.61-1.7,2.29-.66.68-1.41,1.25-2.25,1.72ZM887.81,569.49c.65-.36,1.22-.89,1.73-1.58s.9-1.46,1.19-2.32c.29-.86.43-1.74.44-2.65,0-.91-.12-1.64-.4-2.19s-.66-.89-1.15-1.01c-.49-.12-1.06,0-1.71.36s-1.2.88-1.7,1.57c-.5.69-.89,1.47-1.19,2.34-.29.87-.44,1.75-.45,2.64,0,.89.12,1.61.4,2.16.28.55.66.89,1.15,1.01.49.12,1.06,0,1.69-.35Z"/>
        <path d="M900.33,564.92c-.74.42-1.38.55-1.93.4-.54-.15-.96-.55-1.25-1.2-.29-.66-.43-1.55-.41-2.69l.09-8.52,2.04-1.15-.08,7.78c0,.81.08,1.45.26,1.93.18.48.46.77.82.88.36.11.8.02,1.31-.27.38-.22.73-.5,1.05-.84.32-.35.6-.73.83-1.16.23-.43.42-.89.56-1.38.14-.49.21-.99.21-1.48l.09-8.31,2.04-1.15-.15,13.8-2.04,1.15.03-2.89.36-.52c-.16.74-.44,1.47-.82,2.21-.38.74-.83,1.41-1.35,2s-1.08,1.06-1.67,1.4Z"/>
        <path d="M913.63,557.43c-.86.48-1.64.61-2.34.38-.7-.23-1.26-.77-1.67-1.62-.41-.85-.61-1.96-.6-3.32.02-1.38.24-2.74.69-4.06.44-1.32,1.03-2.49,1.77-3.52.74-1.03,1.57-1.8,2.48-2.31.54-.31,1.04-.48,1.48-.52.45-.04.84.03,1.17.22.33.19.61.46.82.83.21.37.34.82.39,1.35l-.45.05.04-3.57,2.06-1.16-.15,13.8-2.06,1.16.04-3.29.48-.45c-.08.52-.25,1.07-.5,1.65-.25.58-.56,1.16-.94,1.72-.38.56-.8,1.08-1.26,1.55-.46.47-.94.84-1.44,1.12ZM914.19,554.63c.62-.35,1.17-.86,1.65-1.53.48-.67.86-1.44,1.14-2.3.28-.86.42-1.75.43-2.66.01-.89-.12-1.61-.38-2.16s-.63-.89-1.1-1.03c-.47-.13-1.02-.03-1.64.32s-1.15.85-1.62,1.51c-.47.67-.85,1.43-1.13,2.28s-.42,1.73-.43,2.62c-.01.91.12,1.64.38,2.2.26.56.63.9,1.09,1.04.46.14,1,.04,1.61-.31Z"/>
        <path d="M927.71,555.25c-.74.42-1.48.68-2.21.79-.73.11-1.32.04-1.76-.2l.78-2.53c.26.11.57.17.93.17.35,0,.73-.05,1.12-.16s.79-.27,1.17-.49c.73-.41,1.34-.91,1.83-1.5.49-.59.87-1.26,1.13-2.02.26-.76.39-1.59.4-2.5l.03-2.66.22.06c-.07.58-.29,1.22-.66,1.93-.37.7-.83,1.37-1.37,1.99s-1.1,1.09-1.67,1.41c-.99.56-1.87.74-2.64.56s-1.37-.69-1.81-1.52-.65-1.93-.63-3.31c.01-1.38.25-2.74.7-4.07.45-1.33,1.07-2.52,1.85-3.58.78-1.06,1.65-1.86,2.62-2.4.4-.22.78-.37,1.15-.45.37-.08.71-.09,1.03-.03.31.06.6.16.84.3.25.14.45.32.61.55.15.23.25.47.29.73l-.44.46.03-3.23,2.04-1.15-.14,12.96c-.01,1.1-.15,2.15-.4,3.14s-.62,1.91-1.08,2.75c-.47.85-1.04,1.61-1.7,2.29-.66.68-1.41,1.25-2.25,1.72ZM927.88,546.93c.65-.36,1.22-.89,1.73-1.58s.9-1.46,1.19-2.32c.29-.86.43-1.74.44-2.65,0-.91-.12-1.64-.4-2.19s-.66-.89-1.15-1.01c-.49-.12-1.06,0-1.71.36s-1.2.88-1.7,1.57c-.5.69-.89,1.47-1.19,2.34-.29.87-.44,1.75-.45,2.64,0,.89.12,1.61.4,2.16.28.55.66.89,1.15,1.01.49.12,1.06,0,1.69-.35Z"/>
        <path d="M941.77,541.59c-1.07.6-2.02.84-2.84.7-.82-.14-1.46-.6-1.92-1.39-.46-.79-.68-1.86-.66-3.23.01-1.09.15-2.15.43-3.19.27-1.04.65-2.02,1.13-2.95.48-.92,1.04-1.75,1.7-2.47.66-.73,1.37-1.31,2.14-1.74.68-.38,1.3-.56,1.88-.55.58.01,1.08.2,1.5.55.42.35.75.87.97,1.56.22.68.32,1.51.3,2.48l-.03,1.17-8.51,4.79-.43-1.9,7.2-4.05-.3.61v-.63c-.03-.56-.17-.99-.41-1.31s-.56-.49-.94-.54c-.38-.05-.8.06-1.25.31-.71.4-1.32.92-1.81,1.55-.49.64-.87,1.37-1.13,2.2-.26.83-.39,1.76-.4,2.77-.01.96.13,1.72.43,2.25.3.54.72.84,1.27.92.55.07,1.19-.1,1.92-.51.51-.29,1-.67,1.44-1.15.44-.48.93-1.16,1.45-2.05l1.01,1.34c-.32.6-.71,1.18-1.17,1.76-.46.57-.95,1.09-1.46,1.56-.51.47-1.01.84-1.5,1.12Z"/>
        <path d="M959.96,531.34c-.86.48-1.64.61-2.34.38-.7-.23-1.26-.77-1.67-1.62-.41-.85-.61-1.96-.6-3.32.02-1.38.24-2.74.69-4.06.44-1.32,1.03-2.49,1.77-3.52.74-1.03,1.57-1.8,2.48-2.31.54-.31,1.04-.48,1.48-.52.45-.04.84.03,1.17.22.33.19.61.46.82.83.21.37.34.82.39,1.35l-.45.05.04-3.57,2.06-1.16-.15,13.8-2.06,1.16.04-3.29.48-.45c-.08.52-.25,1.07-.5,1.65-.25.58-.56,1.16-.94,1.72-.38.56-.8,1.08-1.26,1.55-.46.47-.94.84-1.44,1.12ZM960.53,528.55c.62-.35,1.17-.86,1.65-1.53.48-.67.86-1.44,1.14-2.3.28-.86.42-1.75.43-2.66.01-.89-.12-1.61-.38-2.16s-.63-.89-1.1-1.03c-.47-.13-1.02-.03-1.64.32s-1.15.85-1.62,1.51c-.47.67-.85,1.43-1.13,2.28s-.42,1.73-.43,2.62c-.01.91.12,1.64.38,2.2.26.56.63.9,1.09,1.04.46.14,1,.04,1.61-.31Z"/>
        <path d="M972.92,524.05c-.87.49-1.66.73-2.36.72-.7,0-1.27-.28-1.73-.8l1.41-2.36c.39.39.82.59,1.28.6.47,0,1-.16,1.59-.49.24-.13.46-.3.67-.49.21-.19.38-.41.54-.66.15-.24.27-.5.35-.76.08-.26.12-.53.13-.79,0-.45-.12-.75-.36-.89-.13-.05-.34-.07-.62-.06-.28.01-.65.06-1.1.16-.76.17-1.39.23-1.87.17-.49-.06-.86-.22-1.12-.49-.19-.22-.34-.5-.42-.84s-.13-.75-.13-1.22c0-.58.11-1.16.31-1.75.2-.59.46-1.16.81-1.71s.74-1.05,1.2-1.5c.46-.45.95-.82,1.46-1.11.49-.27.97-.46,1.46-.56.48-.1.92-.09,1.33,0,.41.1.75.3,1.02.6l-1.19,2.37c-.25-.19-.52-.33-.81-.42s-.59-.11-.9-.08c-.3.03-.58.12-.83.26-.28.16-.53.33-.76.53-.23.2-.41.41-.57.63-.15.23-.27.47-.35.72-.08.26-.12.51-.13.78.01.22.05.41.12.57.07.16.17.27.3.34.14.06.36.08.65.08.29,0,.66-.06,1.11-.18.66-.14,1.2-.2,1.63-.17.43.03.76.15,1.01.36.26.19.44.47.54.84.1.38.15.84.14,1.38,0,.79-.19,1.59-.53,2.4-.34.81-.8,1.55-1.37,2.22-.57.67-1.21,1.2-1.91,1.6Z"/>
        <path d="M990.37,514.22c-.86.48-1.64.61-2.34.38-.7-.23-1.26-.77-1.67-1.62-.41-.85-.61-1.96-.6-3.32.02-1.38.24-2.74.69-4.06.44-1.32,1.03-2.49,1.77-3.52.74-1.03,1.57-1.8,2.48-2.31.54-.31,1.04-.48,1.48-.52.45-.04.84.03,1.17.22.33.19.61.46.82.83.21.37.34.82.39,1.35l-.45.05.04-3.57,2.06-1.16-.15,13.8-2.06,1.16.04-3.29.48-.45c-.08.52-.25,1.07-.5,1.65-.25.58-.56,1.16-.94,1.72-.38.56-.8,1.08-1.26,1.55-.46.47-.94.84-1.44,1.12ZM990.93,511.42c.62-.35,1.17-.86,1.65-1.53.48-.67.86-1.44,1.14-2.3.28-.86.42-1.75.43-2.66.01-.89-.12-1.61-.38-2.16s-.63-.89-1.1-1.03c-.47-.13-1.02-.03-1.64.32s-1.15.85-1.62,1.51c-.47.67-.85,1.43-1.13,2.28s-.42,1.73-.43,2.62c-.01.91.12,1.64.38,2.2.26.56.63.9,1.09,1.04.46.14,1,.04,1.61-.31Z"/>
        <path d="M1007.8,491.74c-.37.21-.7.27-1,.18-.29-.09-.53-.3-.69-.65-.17-.35-.25-.81-.24-1.39,0-.46.08-.94.23-1.46.15-.52.36-1.04.62-1.57.26-.53.57-1.04.91-1.53.35-.49.72-.93,1.12-1.31l.74.78c-.52.61-.95,1.2-1.28,1.79-.34.59-.5,1.03-.51,1.33,0,.23.07.39.21.48s.28.18.39.25c.29.15.48.31.58.46.1.15.14.35.14.57,0,.42-.12.82-.35,1.2-.23.38-.52.67-.88.87ZM1011.91,489.43c-.37.21-.7.27-1,.18-.29-.09-.52-.3-.69-.65-.17-.35-.25-.81-.24-1.39,0-.46.08-.94.23-1.46.15-.52.36-1.04.62-1.58.26-.53.57-1.04.91-1.53.35-.49.72-.93,1.12-1.31l.74.79c-.52.6-.95,1.2-1.28,1.79-.33.59-.5,1.03-.51,1.33,0,.23.07.39.21.48s.27.18.39.25c.29.15.48.31.58.46.1.15.14.35.14.57,0,.42-.12.82-.35,1.2-.23.38-.52.67-.88.87Z"/>
        <path d="M1022.66,496.04c-.97.54-1.85.81-2.65.81-.8,0-1.5-.26-2.08-.77s-1.04-1.26-1.35-2.23c-.31-.97-.46-2.15-.45-3.54.01-1.31.2-2.64.57-3.96.36-1.33.86-2.59,1.49-3.8.63-1.21,1.36-2.28,2.18-3.21.83-.94,1.71-1.67,2.67-2.21.67-.38,1.33-.61,1.97-.7.64-.09,1.22-.04,1.73.15s.94.5,1.26.92l-1.45,2.78c-.38-.29-.76-.5-1.15-.62-.39-.12-.78-.16-1.18-.11-.4.05-.81.19-1.22.42-.65.36-1.26.87-1.82,1.51-.57.64-1.06,1.37-1.48,2.18-.42.81-.76,1.68-1,2.62-.25.93-.38,1.87-.39,2.82-.01,1,.1,1.84.32,2.52.22.68.54,1.2.96,1.54.42.34.92.5,1.5.47.59-.02,1.23-.24,1.95-.64.44-.25.87-.57,1.29-.96.42-.4.82-.85,1.2-1.35.37-.51.71-1.05,1.02-1.62l1.05,1.71c-.31.64-.73,1.31-1.25,1.99-.53.68-1.11,1.31-1.75,1.89-.64.58-1.29,1.05-1.94,1.42Z"/>
        <path d="M1035.6,488.76c-1.02.57-1.92.77-2.72.6-.79-.17-1.41-.67-1.87-1.48s-.67-1.92-.65-3.3c.01-1.38.26-2.75.73-4.08.47-1.34,1.11-2.54,1.92-3.62.81-1.07,1.72-1.89,2.74-2.47s1.9-.76,2.7-.59c.79.17,1.41.67,1.87,1.48.45.82.67,1.92.65,3.3-.01,1.38-.26,2.74-.73,4.08s-1.12,2.54-1.92,3.62c-.81,1.07-1.71,1.89-2.72,2.46ZM1035.62,486.29c.62-.35,1.18-.87,1.67-1.56.49-.69.88-1.46,1.17-2.33.29-.87.43-1.74.42-2.63.02-.92-.1-1.65-.37-2.21-.27-.55-.65-.89-1.13-1.02-.49-.13-1.04-.02-1.66.33s-1.18.87-1.68,1.56c-.5.69-.89,1.47-1.18,2.34-.28.87-.43,1.74-.42,2.63-.02.9.1,1.63.37,2.18.27.55.65.9,1.14,1.03s1.05.02,1.67-.33Z"/>
        <path d="M1044.01,483.76l.15-13.8,2.06-1.16-.03,2.94-.38.53c.11-.51.28-1.05.52-1.6.24-.55.52-1.08.87-1.6.34-.51.71-.98,1.1-1.39.39-.41.79-.73,1.2-.96.6-.34,1.12-.5,1.56-.49.45.01.81.2,1.1.56.29.36.49.9.61,1.61l-.32.07.14-.52c.15-.48.36-.98.62-1.48.26-.5.56-.99.89-1.46.33-.47.69-.88,1.06-1.25.37-.37.74-.65,1.09-.85.78-.44,1.42-.59,1.93-.46.5.13.88.56,1.13,1.27.25.71.37,1.71.35,2.99l-.09,8.28-2.06,1.16.09-8.12c0-.79-.06-1.39-.21-1.8-.15-.41-.37-.66-.67-.73s-.69.02-1.17.29c-.37.21-.72.49-1.04.84s-.61.74-.85,1.17c-.24.43-.43.88-.57,1.35-.14.47-.21.94-.21,1.41l-.09,8.25-2.06,1.16.09-8.17c0-.72-.07-1.28-.22-1.69-.15-.41-.38-.66-.68-.75-.3-.09-.67-.01-1.11.23-.37.21-.72.49-1.03.83s-.6.73-.84,1.15c-.24.42-.43.87-.57,1.34-.14.47-.21.93-.21,1.39l-.09,8.31-2.06,1.16Z"/>
        <path d="M1063.21,472.95l.15-13.8,2.06-1.16-.03,2.94-.38.53c.11-.51.28-1.05.52-1.6.24-.55.52-1.08.87-1.6.34-.51.71-.98,1.1-1.39.39-.41.79-.73,1.2-.96.6-.34,1.12-.5,1.56-.49.45.01.81.2,1.1.56.29.36.49.9.61,1.61l-.32.07.14-.52c.15-.48.36-.98.62-1.48.26-.5.56-.99.89-1.46.33-.47.69-.88,1.06-1.25.37-.37.74-.65,1.09-.85.78-.44,1.42-.59,1.93-.46.5.13.88.56,1.13,1.27.25.71.37,1.71.35,2.99l-.09,8.28-2.06,1.16.09-8.12c0-.79-.06-1.39-.21-1.8-.15-.41-.37-.66-.67-.73s-.69.02-1.17.29c-.37.21-.72.49-1.04.84s-.61.74-.85,1.17c-.24.43-.43.88-.57,1.35-.14.47-.21.94-.21,1.41l-.09,8.25-2.06,1.16.09-8.17c0-.72-.07-1.28-.22-1.69-.15-.41-.38-.66-.68-.75-.3-.09-.67-.01-1.11.23-.37.21-.72.49-1.03.83s-.6.73-.84,1.15c-.24.42-.43.87-.57,1.34-.14.47-.21.93-.21,1.39l-.09,8.31-2.06,1.16Z"/>
        <path d="M1087.13,459.75c-1.02.57-1.92.77-2.72.6-.79-.17-1.41-.67-1.87-1.48s-.67-1.92-.65-3.3c.01-1.38.26-2.75.73-4.08.47-1.34,1.11-2.54,1.92-3.62.81-1.07,1.72-1.89,2.74-2.47s1.9-.76,2.7-.59c.79.17,1.41.67,1.87,1.48.45.82.67,1.92.65,3.3-.01,1.38-.26,2.74-.73,4.08s-1.12,2.54-1.92,3.62c-.81,1.07-1.71,1.89-2.72,2.46ZM1087.16,457.27c.62-.35,1.18-.87,1.67-1.56.49-.69.88-1.46,1.17-2.33.29-.87.43-1.74.42-2.63.02-.92-.1-1.65-.37-2.21-.27-.55-.65-.89-1.13-1.02-.49-.13-1.04-.02-1.66.33s-1.18.87-1.68,1.56c-.5.69-.89,1.47-1.18,2.34-.28.87-.43,1.74-.42,2.63-.02.9.1,1.63.37,2.18.27.55.65.9,1.14,1.03s1.05.02,1.67-.33Z"/>
        <path d="M1095.58,454.72l.15-13.8,2.04-1.15-.03,2.84-.36.52c.14-.69.4-1.4.79-2.13.39-.73.85-1.41,1.38-2.03.53-.62,1.08-1.09,1.63-1.4.79-.45,1.45-.61,1.98-.5.52.11.91.52,1.17,1.21.25.69.38,1.68.36,2.96l-.09,8.41-2.04,1.15.09-8.23c0-.79-.06-1.4-.22-1.82-.15-.43-.39-.67-.72-.72-.33-.05-.74.08-1.23.39-.4.22-.76.51-1.09.86-.33.35-.62.75-.87,1.18-.25.44-.44.89-.59,1.36-.14.47-.22.94-.22,1.39l-.09,8.36-1.01.57-.52.29-.51.29Z"/>
        <path d="M1111.79,445.86c-.87.49-1.66.73-2.36.72-.7,0-1.27-.28-1.73-.8l1.41-2.36c.39.39.82.59,1.28.6.47,0,1-.16,1.59-.49.24-.13.46-.3.67-.49.21-.19.38-.41.54-.66.15-.24.27-.5.35-.76.08-.26.12-.53.13-.79,0-.45-.12-.75-.36-.89-.13-.05-.34-.07-.62-.06-.28.01-.65.06-1.1.16-.76.17-1.39.23-1.87.17-.49-.06-.86-.22-1.12-.49-.19-.22-.34-.5-.42-.84s-.13-.75-.13-1.22c0-.58.11-1.16.31-1.75.2-.59.46-1.16.81-1.71s.74-1.05,1.2-1.5c.46-.45.95-.82,1.46-1.11.49-.27.97-.46,1.46-.56.48-.1.92-.09,1.33,0,.41.1.75.3,1.02.6l-1.19,2.37c-.25-.19-.52-.33-.81-.42s-.59-.11-.9-.08c-.3.03-.58.12-.83.26-.28.16-.53.33-.76.53-.23.2-.41.41-.57.63-.15.23-.27.47-.35.72-.08.26-.12.51-.13.78.01.22.05.41.12.57.07.16.17.27.3.34.14.06.36.08.65.08.29,0,.66-.06,1.11-.18.66-.14,1.2-.2,1.63-.17.43.03.76.15,1.01.36.26.19.44.47.54.84.1.38.15.84.14,1.38,0,.79-.19,1.59-.53,2.4-.34.81-.8,1.55-1.37,2.22-.57.67-1.21,1.2-1.91,1.6Z"/>
        <path d="M1118.61,429.35l-.74-.79c.52-.61.95-1.2,1.28-1.79.33-.59.5-1.03.51-1.33,0-.23-.07-.39-.21-.5s-.27-.18-.39-.24c-.29-.15-.48-.31-.58-.46-.1-.15-.14-.35-.14-.57,0-.42.12-.82.35-1.2.23-.38.52-.67.88-.87s.7-.27,1-.18c.3.09.53.3.69.64.17.34.25.81.24,1.41,0,.46-.08.94-.23,1.46-.15.52-.36,1.04-.62,1.57-.26.53-.57,1.04-.91,1.53-.35.49-.72.93-1.12,1.31ZM1122.66,427.07l-.74-.78c.52-.61.95-1.2,1.28-1.79s.5-1.03.51-1.33c0-.23-.07-.39-.21-.5-.14-.1-.27-.18-.39-.24-.29-.15-.48-.31-.58-.46-.1-.15-.14-.35-.14-.57,0-.42.12-.82.35-1.2.23-.38.52-.67.88-.87s.7-.27,1-.18c.3.09.53.3.69.64.17.34.25.81.24,1.41,0,.46-.08.94-.23,1.46-.15.52-.36,1.04-.62,1.57-.26.53-.57,1.04-.91,1.53-.35.49-.72.93-1.12,1.31Z"/>
      </g>
    </g>
  </g>
</svg>