<?xml version="1.0" encoding="UTF-8"?>
<svg id="Layer_1" data-name="Layer 1" xmlns="http://www.w3.org/2000/svg" viewBox="0 0 1196.41 941.78">
  <defs>
    <style>
      .cls-1 {
        stroke-dasharray: 5.87 5.87;
      }

      .cls-1, .cls-2, .cls-3, .cls-4, .cls-5, .cls-6 {
        stroke-width: 2px;
      }

      .cls-1, .cls-2, .cls-3, .cls-4, .cls-5, .cls-6, .cls-7 {
        fill: none;
        stroke: #000;
        stroke-miterlimit: 10;
      }

      .cls-2 {
        stroke-dasharray: 6;
      }

      .cls-8, .cls-9 {
        fill: #c73319;
        font-family: Lexend-Regular, Lexend;
        font-size: 22.28px;
        font-variation-settings: 'wght' 400;
      }

      .cls-3 {
        stroke-dasharray: 6.08 6.08;
      }

      .cls-10 {
        fill: #fff;
      }

      .cls-5 {
        stroke-dasharray: 6.02 6.02;
      }

      .cls-9, .cls-11 {
        letter-spacing: .06em;
      }

      .cls-12 {
        letter-spacing: 0em;
      }

      .cls-13 {
        letter-spacing: 0em;
      }

      .cls-14 {
        letter-spacing: .06em;
      }

      .cls-15 {
        letter-spacing: .04em;
      }

      .cls-16 {
        letter-spacing: .04em;
      }

      .cls-17 {
        letter-spacing: .05em;
      }

      .cls-6 {
        stroke-dasharray: 6.07 6.07;
      }

      .cls-7 {
        stroke-width: 4px;
      }
    </style>
  </defs>
  <rect class="cls-10" x="0" width="1196.41" height="941.78"/>
  <rect class="cls-7" x="542.45" y="642.69" width="90.16" height="90.16"/>
  <circle class="cls-7" cx="586.4" cy="200.69" r="73.47"/>
  <circle cx="586.4" cy="220.13" r="8.23"/>
  <circle cx="586.4" cy="181.25" r="8.23"/>
  <g>
    <circle cx="389.59" cy="463.7" r="8.23"/>
    <circle cx="389.59" cy="424.81" r="8.23"/>
  </g>
  <g>
    <circle cx="787.59" cy="463.19" r="8.23"/>
    <circle cx="787.59" cy="424.3" r="8.23"/>
  </g>
  <circle class="cls-7" cx="586.4" cy="687.78" r="73.47"/>
  <circle cx="558.85" cy="663.07" r="8.23"/>
  <circle cx="558.85" cy="707.22" r="8.23"/>
  <circle cx="586.4" cy="663.07" r="8.23"/>
  <circle cx="586.4" cy="690.75" r="8.23"/>
  <circle cx="614.48" cy="715.45" r="8.23"/>
  <circle class="cls-7" cx="348.89" cy="444.23" r="73.47"/>
  <circle cx="314.16" cy="436" r="8.23"/>
  <circle cx="348.89" cy="444.23" r="8.23"/>
  <circle cx="347.88" cy="402.33" r="8.23"/>
  <circle cx="322.4" cy="488.38" r="8.23"/>
  <circle class="cls-7" cx="823.91" cy="444.23" r="73.47"/>
  <circle cx="614.48" cy="671.31" r="8.23"/>
  <circle cx="855.74" cy="480.14" r="8.23"/>
  <circle cx="823.91" cy="444.23" r="8.23"/>
  <circle cx="829.44" cy="398.99" r="8.23"/>
  <g>
    <line class="cls-4" x1="586.4" y1="181.25" x2="584.51" y2="183.58"/>
    <line class="cls-5" x1="580.73" y1="188.27" x2="393.37" y2="420.14"/>
    <line class="cls-4" x1="391.48" y1="422.48" x2="389.59" y2="424.81"/>
  </g>
  <line class="cls-2" x1="586.4" y1="220.13" x2="389.59" y2="463.7"/>
  <g>
    <line class="cls-4" x1="787.59" y1="463.19" x2="785.67" y2="465.5"/>
    <line class="cls-1" x1="781.94" y1="470.02" x2="619.31" y2="666.74"/>
    <line class="cls-4" x1="617.44" y1="669" x2="615.53" y2="671.31"/>
  </g>
  <g>
    <line class="cls-4" x1="823.91" y1="418.4" x2="821.81" y2="420.54"/>
    <line class="cls-3" x1="817.57" y1="424.89" x2="590.62" y2="657.62"/>
    <line class="cls-4" x1="588.49" y1="659.79" x2="586.4" y2="661.94"/>
  </g>
  <line class="cls-2" x1="855.74" y1="480.14" x2="614.48" y2="715.45"/>
  <line class="cls-4" x1="787.59" y1="424.3" x2="389.59" y2="424.81"/>
  <line class="cls-4" x1="787.59" y1="462.93" x2="389.59" y2="463.44"/>
  <g>
    <line class="cls-4" x1="586.4" y1="181.25" x2="588.31" y2="183.56"/>
    <line class="cls-6" x1="592.18" y1="188.24" x2="783.74" y2="419.65"/>
    <line class="cls-4" x1="785.67" y1="421.99" x2="787.59" y2="424.3"/>
  </g>
  <line class="cls-2" x1="586.4" y1="220.13" x2="787.59" y2="463.19"/>
  <line class="cls-2" x1="321.77" y1="488.38" x2="558.85" y2="707.22"/>
  <line class="cls-2" x1="348.89" y1="444.23" x2="558.85" y2="707.22"/>
  <line class="cls-2" x1="389.59" y1="463.7" x2="558.85" y2="663.07"/>
  <line class="cls-2" x1="389.59" y1="424.81" x2="586.4" y2="661.94"/>
  <text class="cls-8" transform="translate(488 102.96)"><tspan class="cls-14" x="0" y="0">GENER</tspan><tspan class="cls-17" x="84.36" y="0">I</tspan><tspan class="cls-11" x="96.04" y="0">C S</tspan><tspan class="cls-13" x="135.38" y="0">P</tspan><tspan class="cls-15" x="149.41" y="0">A</tspan><tspan class="cls-11" x="165.92" y="0">CE</tspan></text>
  <text class="cls-8" transform="translate(488 805.94)"><tspan class="cls-11" x="0" y="0">BLENDED S</tspan><tspan class="cls-12" x="139.23" y="0">P</tspan><tspan class="cls-16" x="153.26" y="0">A</tspan><tspan class="cls-14" x="169.77" y="0">CE</tspan></text>
  <text class="cls-9" transform="translate(928.03 444.23)"><tspan x="0" y="0">INPUT 2</tspan></text>
  <text class="cls-9" transform="translate(141.37 452.47)"><tspan x="0" y="0">INPUT 1</tspan></text>
  <g>
    <path d="M891.18,830.44c.5.13,1.03.25,1.51.31.15,0,.31.25.31.55.02.61.06,1.34.11,1.95.02.44-.13.8-.36.8-.1,0-.27-.25-.4-.57-.21-.65-.53-1.22-.88-1.49-.9-.78-1.97-1.22-3.11-1.22-3.34,0-4.91,2.62-4.91,5.84,0,1.41.25,2.62.71,3.55,1.16,2.31,3.07,3.13,4.7,3.13.27,0,1.3-.04,2.04-.48.78-.44,1.34-1.05,1.83-1.91.25-.46.4-.65.57-.65.23,0,.23.55.17.78-.11.52-.44,1.45-.63,1.83-.06.19-.44.52-.76.67-.29.1-1.74.61-3.67.61-3.11,0-5.31-1.41-6.15-2.39-.8-.92-1.76-2.37-1.76-4.7,0-2.54,1.41-4.33,2.29-5.04,1.79-1.47,3.95-1.89,5.67-1.89.97,0,1.97.15,2.73.34Z"/>
    <path d="M904.33,839.57c0,1.78-1.09,3.07-1.87,3.57-.86.61-1.93.86-2.9.86s-2.12-.44-2.9-1.09c-.9-.73-1.57-2.06-1.57-3.23,0-1.47.65-2.58,1.45-3.25.63-.55,1.8-1.22,3.36-1.22,2.1,0,4.43,1.64,4.43,4.37ZM898.47,836.36c-.48.44-.86,1.36-.86,2.75,0,.69.08,1.49.25,2.02.44,1.47,1.41,2.18,2.29,2.18.21,0,.61-.17.92-.55.44-.55.78-1.66.78-2.86,0-.88-.19-2.25-.84-3.17-.38-.48-.92-.84-1.51-.84-.36,0-.69.15-1.03.46Z"/>
    <path d="M906.24,835.94c.4-.15,1.34-.46,1.68-.63s.61-.31.71-.31c.08,0,.23.23.23.31,0,.23-.02.73-.02.92,0,.13.13.1.15.1.84-.63,1.72-1.13,2.67-1.13,1.03,0,1.64.5,1.93.84.48.55.76,1.47.76,2.54,0,.44.04,3.53.06,3.82.04.31.19.57.74.71.4.1.55.21.55.38s-.25.29-.61.29c-.5,0-1.32-.04-1.91-.04-.53,0-1.37.06-1.66.06s-.57-.06-.57-.29c0-.15.23-.27.5-.36.48-.19.59-.38.63-1.07s.04-3.3.04-3.91c0-.42-.17-.99-.46-1.26-.23-.21-.76-.44-1.2-.44-.73,0-1.09.21-1.38.42-.08.06-.19.34-.21.46-.02.36.02,4.87.04,5.12.02.29.08.44.73.65.19.08.36.23.36.36,0,.15-.23.29-.59.29-.4,0-1.18-.04-1.62-.04-.78,0-1.6.06-1.95.06s-.57-.13-.57-.31c0-.17.21-.27.44-.34.69-.23.8-.4.86-1.18.06-.63.1-2.31.1-4.43,0-.23-.15-.44-.61-.86-.17-.17-.23-.23-.23-.29,0-.13.23-.4.4-.46Z"/>
    <path d="M923.73,835.77c.27.19.36.48.36.76,0,.38-.69.99-.82.99-.19,0-.53-.15-.97-.52-.57-.46-1.01-.9-1.66-.9-.23,0-.59.13-.9.46-.53.55-.82,1.6-.82,2.56,0,1.36.57,2.08.67,2.2.4.55,1.16,1.13,2.29,1.13.61,0,1.3-.25,2.02-.69.11-.06.27,0,.27.17,0,.21-.17.48-.34.65-.71.76-1.93,1.41-3.23,1.41-1.53,0-2.71-.8-3.3-1.68-.42-.65-.69-1.57-.69-2.44,0-1.64.84-2.83,2.1-3.65.73-.52,2.12-.9,2.96-.9.63,0,1.68.17,2.06.46Z"/>
    <path d="M931.94,836.09c.48.46.8,1.11.8,1.85,0,.15-.21.5-.46.5h-4.58c-.1,0-.21.06-.23.15-.06.17-.08.48-.08.76,0,.46.25,1.43.65,1.95.52.67,1.41,1.05,2.33,1.05s1.49-.21,1.89-.73c.08-.13.19-.25.27-.25s.19.15.19.27-.06.36-.17.52c-.65,1.01-1.64,1.83-3.36,1.83-2.42,0-3.88-1.83-3.88-4.22,0-1.68.92-3.36,2.67-4.16.53-.25,1.16-.4,1.72-.4.84,0,1.7.34,2.25.88ZM927.59,837.58c-.02.1.06.21.15.21.55.02,1.2,0,2.25,0,.36,0,.74-.21.74-.71,0-.59-.59-1.28-1.18-1.28-.88,0-1.7.82-1.95,1.78Z"/>
    <path d="M942.21,836.42c.57.65,1.03,1.62,1.03,2.75,0,1.53-.67,2.77-1.81,3.65-1.18.92-2.5,1.07-3.23,1.07-.38,0-.78-.02-1.03-.06-.08-.02-.17.19-.17.29-.02.94.02,2.71.08,3.17.06.57.17.88,1.01,1.13.42.13.57.29.57.44,0,.19-.34.27-.59.27-.59,0-2.04-.1-2.79-.1-.52,0-.8.06-1.7.06-.36,0-.61-.13-.61-.31,0-.13.21-.29.55-.38.99-.21,1.11-.46,1.18-1.7.02-.73.06-2.41.06-4.54,0-1.41.02-3.76-.02-4.56-.02-.44-.08-.52-.15-.59-.38-.29-.8-.65-.8-.76s.23-.4.44-.48c.42-.13,1.57-.48,2.14-.82.21-.13.38-.19.42-.19.08,0,.25.19.25.29-.04.38-.04.65-.06.99,0,.08.11.17.17.15.38-.25.95-.55,1.24-.67.36-.15.84-.29,1.45-.29.84,0,1.81.52,2.37,1.18ZM937.27,836.74c-.06.06-.21.31-.23.55-.13.92-.13,2.62-.08,3.74,0,.38.08.73.21.97.44.78,1.28,1.2,1.72,1.2.23,0,.46-.06.71-.25,1.09-.8,1.26-2.6,1.26-3.17s-.11-1.64-.88-2.5c-.46-.52-1.24-.78-1.58-.78-.4,0-.86.1-1.13.25Z"/>
    <path d="M950.15,835.44c.08,0,.31.08.31.23,0-.06.06.61.06.86,0,.21-.4.25-.55.25h-1.99c-.13,0-.21.1-.21.15,0,1.05-.02,3-.02,4.24,0,.52.1.78.34.99s.69.36,1.03.36c.21,0,.65-.15.92-.29.17-.1.27-.15.36-.15.06,0,.15.1.15.34,0,.19-.21.46-.34.61-.57.59-1.41.99-2.39.99-.84,0-1.62-.42-1.95-.9-.25-.36-.38-.67-.38-1.49s.08-3.82.08-4.56c0-.15-.36-.29-.8-.46-.17-.06-.25-.23-.25-.36,0-.08.02-.13.11-.19,1.05-.69,1.74-1.2,2.2-1.68.25-.29.4-.46.48-.46.15,0,.42.21.42.36v1.05c0,.06.1.19.19.19.46,0,2.14-.06,2.23-.06Z"/>
    <path d="M957.46,842.18c.08-.06.23-.4.23-.48v-4.7c0-.15-.13-.38-.36-.48-.34-.1-.57-.21-.84-.31-.15-.04-.34-.21-.34-.38,0-.08.19-.21.36-.21.84,0,2.16-.15,2.77-.27.21-.04.36-.08.5-.08s.21.25.21.34c-.04.76-.1,6.09-.1,6.76,0,.06.04.38.27.38.21-.02.67-.15.94-.15.08,0,.23.48.25.55.02.04-.15.23-.25.23-.57.04-1.66.31-2.14.44-.36.1-1.03.27-1.09.27-.08,0-.23-.15-.23-.29,0-.13.04-.5.06-.86,0-.1-.11-.19-.15-.17-.52.4-1.2.84-1.47.94-.36.17-.73.31-1.34.31-.99,0-1.68-.42-2.12-1.11-.15-.21-.25-.84-.25-1.11,0-1.49-.02-3.53-.06-4.64-.02-.61-.36-.73-.71-.88-.19-.08-.38-.25-.38-.44,0-.1.15-.23.34-.23.59,0,2.81-.23,2.9-.23s.17.23.17.31c.04,1.6-.02,4.75-.02,5.71,0,.4.19.71.4.9.34.25.78.4,1.18.4.31,0,.82-.13,1.28-.5Z"/>
    <path d="M968.19,836.34c.25.34.46.86.46,1.81,0,.82-.08,3.32-.08,3.55,0,.59.42.84.78.84.1,0,.52-.17.73-.25.06-.04.08-.02.13.02.04.08.06.23.06.29,0,.4-.99,1.43-2.16,1.43-.61,0-1.26-.19-1.58-1.01-.02-.08-.15-.13-.19-.08-.52.38-1.39.78-1.66.88-.23.08-.65.17-.92.17-.78,0-1.62-.94-1.62-2.12,0-.38.17-.78.38-1.07s.57-.42.76-.5c.46-.19,2.37-.71,2.86-.86.25-.08.38-.23.38-.31.02-.19.06-1.34.04-1.62-.02-.5-.46-1.34-1.41-1.34-.29,0-.53.04-.67.15-.08.04-.13.25-.13.97,0,.08-.04.15-.08.19-.15.15-1.7.84-1.85.84-.12,0-.27-.17-.27-.29,0-.61.46-1.18,1.76-2.02.78-.5,1.81-.78,2.1-.78,1.28,0,1.87.67,2.18,1.13ZM966.23,842.47c.08-.06.17-.31.17-.4.04-.29.08-1.18.08-1.87,0-.08-.08-.21-.15-.21-.36,0-1.32.31-1.7.55-.25.19-.38.29-.38.84,0,.92.76,1.34,1.16,1.34.19,0,.61-.13.82-.25Z"/>
    <path d="M971.42,829.83c.9-.25,1.91-.42,2.73-.94.06-.04.25.13.25.21-.06.73-.17,4.98-.17,8.13,0,1.64.02,4.41.08,5.04.06.48.15.73.94.97.29.1.44.21.44.36,0,.19-.34.25-.57.25-.5,0-1.7-.08-2.08-.08-.48,0-1.51.08-1.95.08s-.61-.15-.61-.25c0-.23.27-.31.5-.36.69-.19.82-.5.88-1.6.06-.94.12-3.3.12-6.61,0-1.11,0-3.09-.02-3.7-.02-.23-.13-.36-.55-.71-.29-.21-.4-.31-.4-.42s.15-.27.38-.36Z"/>
    <path d="M989.5,836.19c-.06.02-.04.21.02.21,1.45.61,2.52,1.64,2.52,3.46,0,1.39-.78,2.37-1.78,3.04-1.01.71-2.92.92-3.76.92-.59,0-2.9-.04-3.84-.06-.76-.02-1.26.02-1.6.02-.38,0-.67-.15-.67-.34s.36-.31.59-.36c1.28-.25,1.37-.57,1.45-1.28.04-.44.19-2.54.19-6.7,0-1.78-.08-2.86-.15-3.15-.1-.46-.23-.63-1.32-.84-.27-.04-.52-.17-.52-.4,0-.17.29-.27.57-.27h1.38c.67,0,3.23-.15,4.09-.15,1.22,0,2.39.23,3.02.63,1.03.63,1.47,1.55,1.47,2.58,0,1.6-1.09,2.29-1.66,2.67ZM986.01,831.07c-.12,0-.5.06-.73.13-.04.02-.17.21-.19.34-.04.34-.08.94-.08,4.47,0,.08.11.25.23.25.76,0,1.95-.1,2.46-.48.65-.46,1.01-1.18,1.01-1.99,0-1.74-1.18-2.71-2.69-2.71ZM987.72,837.33c-.48-.27-1.09-.4-1.81-.4-.29,0-.65.08-.71.15s-.17.17-.17.99c-.02.55.04,3.07.08,3.7.02.17.13.5.27.67.36.38.94.71,1.32.71,1.34,0,2.56-1.34,2.56-3.11,0-1.22-.63-2.23-1.55-2.71Z"/>
    <path d="M994.02,829.83c.9-.25,1.91-.42,2.73-.94.06-.04.25.13.25.21-.06.73-.17,4.98-.17,8.13,0,1.64.02,4.41.08,5.04.06.48.15.73.94.97.29.1.44.21.44.36,0,.19-.34.25-.57.25-.5,0-1.7-.08-2.08-.08-.48,0-1.51.08-1.95.08s-.61-.15-.61-.25c0-.23.27-.31.5-.36.69-.19.82-.5.88-1.6.06-.94.12-3.3.12-6.61,0-1.11,0-3.09-.02-3.7-.02-.23-.13-.36-.55-.71-.29-.21-.4-.31-.4-.42s.15-.27.38-.36Z"/>
    <path d="M1005.8,836.09c.48.46.8,1.11.8,1.85,0,.15-.21.5-.46.5h-4.58c-.11,0-.21.06-.23.15-.06.17-.08.48-.08.76,0,.46.25,1.43.65,1.95.53.67,1.41,1.05,2.33,1.05s1.49-.21,1.89-.73c.08-.13.19-.25.27-.25s.19.15.19.27-.06.36-.17.52c-.65,1.01-1.64,1.83-3.36,1.83-2.41,0-3.88-1.83-3.88-4.22,0-1.68.92-3.36,2.67-4.16.52-.25,1.15-.4,1.72-.4.84,0,1.7.34,2.25.88ZM1001.45,837.58c-.02.1.06.21.15.21.55.02,1.2,0,2.25,0,.36,0,.73-.21.73-.71,0-.59-.59-1.28-1.18-1.28-.88,0-1.7.82-1.95,1.78Z"/>
    <path d="M1008.32,835.94c.4-.15,1.34-.46,1.68-.63s.61-.31.71-.31c.08,0,.23.23.23.31,0,.23-.02.73-.02.92,0,.13.13.1.15.1.84-.63,1.72-1.13,2.67-1.13,1.03,0,1.64.5,1.93.84.48.55.76,1.47.76,2.54,0,.44.04,3.53.06,3.82.04.31.19.57.73.71.4.1.55.21.55.38s-.25.29-.61.29c-.5,0-1.32-.04-1.91-.04-.52,0-1.36.06-1.66.06s-.57-.06-.57-.29c0-.15.23-.27.5-.36.48-.19.59-.38.63-1.07s.04-3.3.04-3.91c0-.42-.17-.99-.46-1.26-.23-.21-.76-.44-1.2-.44-.74,0-1.09.21-1.39.42-.08.06-.19.34-.21.46-.02.36.02,4.87.04,5.12.02.29.08.44.74.65.19.08.36.23.36.36,0,.15-.23.29-.59.29-.4,0-1.18-.04-1.62-.04-.78,0-1.6.06-1.95.06s-.57-.13-.57-.31c0-.17.21-.27.44-.34.69-.23.8-.4.86-1.18.06-.63.11-2.31.11-4.43,0-.23-.15-.44-.61-.86-.17-.17-.23-.23-.23-.29,0-.13.23-.4.4-.46Z"/>
    <path d="M1024.93,835.29c.08.02.15-.1.17-.19.11-.63.02-3.42-.04-3.95-.02-.17-.02-.5-.88-.88-.19-.08-.29-.17-.29-.21,0-.1.25-.38.38-.4.55-.08,2.06-.38,2.65-.61.15-.06.27-.1.4-.1.08,0,.21.21.19.42-.08.8-.19,3.25-.19,7.98,0,2.6.04,3.65.04,4.05.02,1.28.19,1.47.38,1.47.17,0,.8-.08,1.05-.08.08,0,.13.15.13.17,0,.13-.34.52-.44.57-.57.08-1.83.27-2.22.42-.5.17-.82.23-.92.23-.08,0-.25-.17-.25-.29,0-.17.06-.48.06-.8,0-.1-.13-.17-.17-.15-.73.61-1.81.99-2.58.99-1.09,0-1.89-.42-2.52-1.01-.84-.78-1.16-1.95-1.16-2.96,0-2.16,1.24-3.3,2.27-3.91.8-.48,2.06-.8,2.81-.8.53,0,.82,0,1.15.04ZM1021.78,836.63c-.57.61-.78,1.83-.78,2.56,0,1.78,1.2,3.51,2.81,3.51.4,0,.74-.08,1.03-.31.06-.04.27-.67.27-.99.02-.73.04-2.83-.02-3.63,0-.1-.19-.63-.38-.84-.59-.69-1.28-.92-1.7-.92-.34,0-.8.19-1.24.63Z"/>
    <path d="M1030.16,843.84c-.34,0-.59-.13-.59-.27s.15-.25.57-.38c.48-.15.71-.4.76-.61.08-.29.13-1.78.13-3.28,0-.63,0-1.64-.04-1.89-.02-.17-.27-.38-.71-.76-.13-.13-.25-.23-.25-.34,0-.17.23-.34.57-.4.86-.17,2.18-.67,2.52-.76.1,0,.21.17.21.23-.04.69-.1,3.53-.1,4.75,0,.65.02,1.39.04,2.12.02.63.27.71.82.88.32.1.46.23.46.4s-.29.27-.59.27c-.15,0-1.28-.06-1.74-.06-.67,0-1.68.08-2.04.08ZM1033.35,832.1c0,.71-.74,1.28-1.26,1.28-.19,0-.61-.1-.84-.34-.21-.21-.4-.5-.4-.94,0-.23.1-.65.34-.9.25-.23.65-.38,1.05-.38.73,0,1.11.82,1.11,1.28Z"/>
    <path d="M1036.08,835.94c.4-.15,1.34-.46,1.68-.63s.61-.31.71-.31c.08,0,.23.23.23.31,0,.23-.02.73-.02.92,0,.13.13.1.15.1.84-.63,1.72-1.13,2.67-1.13,1.03,0,1.64.5,1.93.84.48.55.76,1.47.76,2.54,0,.44.04,3.53.06,3.82.04.31.19.57.73.71.4.1.55.21.55.38s-.25.29-.61.29c-.5,0-1.32-.04-1.91-.04-.52,0-1.36.06-1.66.06s-.57-.06-.57-.29c0-.15.23-.27.5-.36.48-.19.59-.38.63-1.07s.04-3.3.04-3.91c0-.42-.17-.99-.46-1.26-.23-.21-.76-.44-1.2-.44-.74,0-1.09.21-1.39.42-.08.06-.19.34-.21.46-.02.36.02,4.87.04,5.12.02.29.08.44.74.65.19.08.36.23.36.36,0,.15-.23.29-.59.29-.4,0-1.18-.04-1.62-.04-.78,0-1.6.06-1.95.06s-.57-.13-.57-.31c0-.17.21-.27.44-.34.69-.23.8-.4.86-1.18.06-.63.11-2.31.11-4.43,0-.23-.15-.44-.61-.86-.17-.17-.23-.23-.23-.29,0-.13.23-.4.4-.46Z"/>
    <path d="M1052.29,835.46c.23.04.42.13.57.13.48.02,2.02.1,2.37.17.13.02.21.15.21.23,0,.31-.38.8-.46.8-.13,0-.71.02-1.22-.02-.1,0-.15.13-.13.15.06.25.13.55.13.9,0,1.13-.38,1.99-1.2,2.62-.95.69-2.06.8-2.54.8-.13,0-.63-.02-.84-.04-.15-.02-.23-.02-.29.04-.17.1-.4.38-.4.55,0,.4.53.76.78.78.92.04,3.34.1,3.95.21.21.02.69.19,1.07.5.57.5.9,1.22.9,1.91,0,1.7-1.32,2.83-2.16,3.36-1.07.67-2.16.92-3.19.92s-1.87-.21-2.64-.71c-.69-.48-1.11-1.22-1.11-1.89,0-.76.38-1.05.65-1.24.42-.27,1.07-.67,1.34-.86.06-.04.08-.1,0-.15-.19-.06-.59-.21-.86-.4-.48-.34-.8-.9-.8-1.66,0-.06.06-.21.13-.25.19-.15,1.36-.8,1.7-1.2.04-.02.04-.15-.04-.21-.61-.29-1.7-1.13-1.7-2.65,0-.97.44-1.74,1.26-2.35.63-.46,1.49-.78,2.54-.78.86,0,1.41.17,1.99.34ZM1052.42,848.1c.71-.42.94-1.11.94-1.68,0-.29-.1-.73-.36-1.01-.27-.29-.61-.46-1.18-.55-.74-.1-1.09-.1-2.18-.1-.46,0-.84.13-1.01.25-.42.38-.63.88-.63,1.34,0,.61.29,1.13.73,1.49.55.44,1.32.61,2.04.61.57,0,1.15-.1,1.64-.36ZM1049.27,836.15c-.31.42-.48,1.01-.48,1.78,0,1.34.67,2.71,1.68,2.71.15,0,.42-.13.65-.31.34-.31.57-1.22.57-2.12,0-.34-.15-1.24-.46-1.7-.32-.48-.71-.8-1.13-.8-.31,0-.65.19-.82.44Z"/>
    <path d="M1070.08,830.46c.36,0,2.48-.04,2.94-.15.25-.06.53-.19.76-.38.27-.23.65-.46.76-.46.15,0,.25.17.25.23-.04.52-.21,1.57-.27,2.94-.06,1.85-.06,3.3-.06,3.53,0,.02.06.17.15.1.76-.67,1.7-1.07,2.48-1.07,1.07,0,1.81.4,2.25,1.01.42.57.61,1.41.61,2.31.02,1.32.06,2.86.08,3.78.02.52.27.71.82.86.42.1.57.23.57.38,0,.17-.19.29-.61.29-.61,0-1.2-.08-1.72-.08-.78,0-1.2.06-1.95.06-.36,0-.48-.15-.48-.27s.13-.25.42-.34c.48-.15.57-.36.65-1.05.04-.46.02-3.09.02-3.51,0-1.07-.25-1.49-.52-1.72-.29-.27-.71-.46-1.26-.46-.65,0-1.13.23-1.22.29-.06.06-.23.4-.25.71-.04,1.11-.04,3.95-.04,4.56.04.71.23.97.74,1.09.31.08.5.23.5.36,0,.23-.34.29-.63.29-.17,0-.9-.02-1.91-.02-.86,0-1.43.06-1.81.06-.23,0-.52-.1-.52-.29,0-.13.15-.27.59-.4.63-.23.71-.59.76-1.03.08-.73.19-3,.19-6.11s0-3.67-.06-3.97c-.04-.38-.25-.61-.4-.61-.48-.04-3.53-.06-4.14.02-.12.02-.21.19-.21.27,0,.97-.02,2.56-.02,4.37,0,2.41.02,4.64.11,5.69.06.67.23,1.09,1.64,1.39.29.06.53.29.53.42,0,.19-.36.27-.59.27-.17,0-2.54-.08-3.11-.08-.65,0-2.27.13-2.62.13-.4,0-.65-.08-.65-.23,0-.21.25-.4.46-.44,1.36-.34,1.47-.63,1.53-2.1.08-1.24.19-5.42.19-7.03,0-1.2-.02-1.89-.02-2.44,0-.19-.17-.29-.23-.29-.38-.06-1.87-.06-2.33-.06-.34,0-.92.21-1.16.48-.21.23-.44.59-.71,1.07-.25.42-.38.59-.46.59-.21,0-.32-.27-.32-.48,0-.4.38-1.76.4-2.83,0-.08.19-.42.34-.42s.27.15.4.31c.06.08.48.31.88.36.46.04,3.13.1,4.56.1,1.18,0,3.49.02,3.76,0Z"/>
    <path d="M1088.83,836.09c.48.46.8,1.11.8,1.85,0,.15-.21.5-.46.5h-4.58c-.1,0-.21.06-.23.15-.06.17-.08.48-.08.76,0,.46.25,1.43.65,1.95.52.67,1.41,1.05,2.33,1.05s1.49-.21,1.89-.73c.08-.13.19-.25.27-.25s.19.15.19.27-.06.36-.17.52c-.65,1.01-1.64,1.83-3.36,1.83-2.42,0-3.88-1.83-3.88-4.22,0-1.68.92-3.36,2.67-4.16.53-.25,1.16-.4,1.72-.4.84,0,1.7.34,2.25.88ZM1084.48,837.58c-.02.1.06.21.15.21.55.02,1.2,0,2.25,0,.36,0,.74-.21.74-.71,0-.59-.59-1.28-1.18-1.28-.88,0-1.7.82-1.95,1.78Z"/>
    <path d="M1100.25,839.57c0,1.78-1.09,3.07-1.87,3.57-.86.61-1.93.86-2.9.86s-2.12-.44-2.9-1.09c-.9-.73-1.58-2.06-1.58-3.23,0-1.47.65-2.58,1.45-3.25.63-.55,1.81-1.22,3.36-1.22,2.1,0,4.43,1.64,4.43,4.37ZM1094.39,836.36c-.48.44-.86,1.36-.86,2.75,0,.69.08,1.49.25,2.02.44,1.47,1.41,2.18,2.29,2.18.21,0,.61-.17.92-.55.44-.55.78-1.66.78-2.86,0-.88-.19-2.25-.84-3.17-.38-.48-.92-.84-1.51-.84-.36,0-.69.15-1.03.46Z"/>
    <path d="M1101.93,836.05c.8-.25,1.74-.57,2.12-.8.23-.15.44-.25.5-.25.13,0,.25.19.25.25,0,.38-.06.78-.06,1.18,0,.06.11.15.17.08.65-.69,1.58-1.3,2.23-1.3.92,0,1.22.57,1.22.86,0,.06-.06.23-.12.34-.23.36-.88,1.22-1.03,1.24-.08,0-.31-.02-.38-.08-.23-.21-.92-.59-1.32-.59-.19,0-.4,0-.52.13-.13.1-.19.23-.19.42,0,.42.1,4.07.12,4.39.04.65.19,1.03.48,1.09.21.04.65.19.9.27.34.1.42.25.42.34,0,.17-.25.25-.59.25-.63,0-1.72-.1-2.96-.1-.44,0-.88.06-1.37.06-.25,0-.52-.06-.52-.29,0-.15.32-.25.48-.31.76-.27.8-.5.82-1.76v-3.46c0-.38-.04-.69-.17-.8-.34-.27-.76-.65-.76-.73,0-.04.04-.34.27-.4Z"/>
    <path d="M1109.39,835.42c.73,0,1.45.08,2.08.08s1.41-.04,1.7-.04c.19,0,.5.06.5.25,0,.17-.13.27-.5.38-.57.17-.59.31-.4.86.32,1.05,1.32,3.4,1.62,3.97.04.06.15.06.21-.06.25-.61,1.34-3.3,1.51-3.82.15-.5-.04-.76-.8-.99-.27-.06-.44-.23-.44-.31,0-.19.25-.27.52-.27.4,0,.95.04,1.24.04.32,0,.92-.08,1.47-.08.29,0,.44.08.44.23,0,.19-.23.31-.5.4-.44.13-.74.4-1.09,1.03-.46.94-2,4.68-2.37,5.63-.69,1.74-1.6,4.01-2.27,5.71-.17.46-.8.71-1.2.71-.78,0-1.11-.65-1.11-1.15,0-.34.29-1.03.97-1.03.11,0,.71.02.95.02.19,0,.29-.15.38-.36.19-.34.78-1.95.92-2.37.04-.17.06-.36.02-.44-.08-.15-.27-.65-.36-.9-.52-1.32-2.02-4.85-2.58-6.03-.21-.42-.34-.61-.92-.8-.29-.08-.48-.19-.48-.4,0-.08.17-.25.5-.25Z"/>
    <path d="M892.86,853.01c.25.08.42.04.57-.04.15-.08.29-.19.38-.19.06,0,.08.17-.04.44-.36.63-.65,1.43-.84,2.14-.08.25-.08.36-.19.36-.08,0-.17-.08-.13-.4.11-.73.04-1.07-.25-1.51-.38-.59-1.24-.88-2.56-.88-1.81,0-3.82,1.11-4.81,2.29-1.47,1.76-2.21,3.95-2.21,5.92,0,1.55.44,2.69,1.13,3.42.74.73,1.76,1.11,2.77,1.11s1.7-.29,2.1-1.07c.42-.71,1.03-3.07,1.13-3.55.08-.46-.27-.71-1.13-.78-.57-.06-.55-.34,0-.34s1.43.04,2.02.04,1.26-.08,1.51-.08c.61,0,.42.25-.04.36-.48.1-.65.21-1.01,1.18-.17.44-.42,1.34-.61,2.1-.15.52-.23,1.05-.23,1.32,0,.17-.06.19-.71.5-1.58.57-2.83.73-3.91.73-2.48,0-4.68-1.95-4.68-5.12,0-3.36,1.72-5.5,3.4-6.7,1.74-1.26,3.53-1.7,5.48-1.7,1.34,0,2.35.29,2.86.44Z"/>
    <path d="M896.89,858.42c.02.17-.13.73-.27,1.09-.46,1.18-1.7,4.18-2.16,5.23-.15.34-.06.4.04.4.29,0,1.2-.82,1.53-1.18s.25,0,.11.23c-.9,1.24-1.95,1.85-2.6,1.85-.17,0-.4-.29-.4-.59-.02-.23.15-.76.5-1.62.38-.84,1.2-2.98,1.89-4.49.11-.23.06-.38-.04-.38-.32,0-.8.31-1.39.92-.34.34-.34.04-.17-.19.92-1.15,2.02-1.76,2.6-1.76.25,0,.34.29.36.48ZM897.61,855.23c0,.5-.48.76-.74.76-.36,0-.59-.29-.59-.65,0-.4.36-.8.74-.8.48,0,.59.48.59.69Z"/>
    <path d="M902.71,852c-.57,1.57-3.42,10.83-3.91,12.43-.06.29.02.46.15.46.36.02,1.05-.57,1.64-1.3.19-.21.25-.02.04.29-.53.94-1.7,2.18-2.65,2.18-.31,0-.46-.34-.46-.5,0-.34.12-.88.19-1.15.46-2.02,2.98-9.76,3.51-11.69.15-.52.12-.73-.59-.94-.19-.06-.19-.17.12-.21.48-.06,1.26-.15,1.7-.23.13-.04.25-.06.31-.06.11,0,.08.29-.06.73Z"/>
    <path d="M906.97,852c-.57,1.57-3.42,10.83-3.91,12.43-.06.29.02.46.15.46.36.02,1.05-.57,1.64-1.3.19-.21.25-.02.04.29-.52.94-1.7,2.18-2.64,2.18-.32,0-.46-.34-.46-.5,0-.34.13-.88.19-1.15.46-2.02,2.98-9.76,3.51-11.69.15-.52.13-.73-.59-.94-.19-.06-.19-.17.13-.21.48-.06,1.26-.15,1.7-.23.13-.04.25-.06.32-.06.1,0,.08.29-.06.73Z"/>
    <path d="M911.65,858.97c0,.44-.34,1.07-1.05,1.62-.8.63-2,1.03-2.92,1.09-.08,0-.17.13-.19.19-.21.52-.42,1.53-.42,2.16,0,.38.06,1.03.88,1.03.59,0,1.26-.46,1.81-1.13.08-.1.15-.15.17-.04.02.04-.02.25-.17.57-.5.86-1.39,1.6-2.48,1.6-.69,0-1.39-.8-1.39-2.02,0-1.45.78-3.13,1.39-4.01.88-1.2,2.16-2.08,3.17-2.08.88,0,1.2.52,1.2,1.03ZM907.71,861.32c-.02.06.02.08.11.06,1.24-.19,2.96-1.7,2.96-2.56,0-.36-.15-.59-.42-.59-.9,0-2,1.28-2.65,3.09Z"/>
    <path d="M916.38,858.34c.1.1.15.23.15.36,0,.27-.4.61-.57.61-.06,0-.15-.02-.29-.17-.23-.21-.59-.52-.92-.52-.46,0-.88.36-.86.99,0,.48.21,1.07.8,2.04.4.73.63,1.39.61,1.89,0,.63-.44,1.26-1.22,1.85-.67.5-1.36.67-1.83.67-.67,0-1.11-.52-1.13-1.05-.02-.21.08-.63.25-.78.08-.06.17-.08.23.02.34.61.88,1.15,1.57,1.15.63,0,1.15-.42,1.13-1.18,0-.4-.17-.94-.63-1.78-.55-.97-.71-1.49-.71-1.85,0-.52.29-1.28,1.01-1.89.55-.48,1.13-.76,1.6-.76.32,0,.65.17.82.4Z"/>
    <path d="M926.73,852.92c3.07,0,3.84-.04,4.24-.19.08-.02.1.1.06.21-.34.52-.65,1.53-.76,2.06-.06.38-.32.4-.29-.04.08-1.41.11-1.68-1.53-1.68-.74,0-1.87.02-2.56.06-.15,0-.38.13-.55.52-.32.82-1.41,4.45-1.49,5.02-.02.13,0,.29.08.31.4.04,2.48-.04,3-.08.55-.04.88-.5,1.11-.92.19-.36.38-.34.27.08-.08.29-.27.78-.44,1.24-.08.36-.21.82-.25,1.24-.04.44-.31.36-.31-.04-.02-.73-.11-1.07-.86-1.07-1.3,0-2.06.02-2.62.06-.08,0-.23.08-.27.21-.27.71-1.05,3.46-1.26,4.47-.19.86.15.99,1.05,1.13.4.06.48.31-.08.31-.34,0-1.62-.08-1.95-.08-.61,0-1.51.08-2.04.08s-.4-.25.06-.31c.97-.1,1.15-.4,1.49-1.49.57-1.6,2.31-7.5,2.81-9.51.27-1.09.1-1.24-.82-1.34-.55-.06-.55-.29-.02-.29.69,0,1.55.04,2.39.04h1.53Z"/>
    <path d="M934.08,858.59s.08,0,.1-.04c.27-.48.42-.63.5-.63.15,0,.36.1.53.23.06.04.08.19.04.34-.17.55-1.45,3.88-2.2,6.11-.04.1.02.19.12.19.53,0,1.24-.63,1.76-1.34.13-.13.21-.1.17.06,0,.08-.06.21-.12.34-.55.97-1.85,2.23-2.92,2.23-.27,0-.46-.13-.46-.31,0-.27.61-1.7,1.18-3.23.04-.1-.02-.15-.06-.08-2.27,2.58-3.76,3.63-4.45,3.63-.34,0-.65-.34-.65-.88s.4-1.51,1.03-2.46c.69-1.07,1.76-2.23,2.9-3.11.82-.65,1.83-1.24,2.1-1.24.15,0,.31.1.44.21ZM930.68,860.84c-.82.9-1.72,2.73-1.72,3.65,0,.17.06.44.32.44.38,0,.92-.4,1.53-.94,1.32-1.24,2.35-2.83,2.9-4.39.02-.04,0-.1,0-.15-.08-.04-.34-.17-.59-.17-.82,0-1.79.82-2.44,1.55Z"/>
    <path d="M943.7,859.26c-.55,1.39-1.18,3.13-1.93,4.93-.1.29-.1.46.1.46.53,0,1.45-1.01,1.6-1.18.27-.34.29-.06.13.23-.67,1.2-2.18,2.33-2.92,2.33-.17,0-.34-.17-.34-.42,0-.21.04-.5.17-.84.17-.44.65-1.55,1.09-2.73.08-.23.04-.25-.15-.08-.84,1.05-2.35,2.65-3.57,3.53-.63.46-.97.55-1.22.55-.15,0-.29-.06-.38-.27-.15-.29-.08-.78.12-1.45.48-1.41,1.43-3.51,1.95-4.83.06-.17.06-.29-.04-.29-.29,0-.88.48-1.39.97-.4.36-.31-.02-.15-.21.48-.78,1.91-2.02,2.69-2.02.29,0,.5.34.25,1.09-.23.65-1.79,4.28-2.29,5.61-.08.25-.04.48.15.48.34,0,1.11-.55,2.33-1.91,1.28-1.47,2.52-3.7,3.17-4.81.15-.21.44-.44.69-.44.27,0,.29.31-.08,1.3Z"/>
    <path d="M950.21,858.36c.13.13.21.27.21.5,0,.31-.42.57-.57.57s-.32-.13-.53-.4c-.29-.44-.46-.63-.76-.63-.48,0-.99.63-1.49,1.57-.59,1.03-1.13,2.81-1.13,4.18,0,.67.32,1.07.69,1.07.57,0,1.3-.48,1.99-1.3.17-.19.21-.23.27-.23.11,0-.04.38-.17.57-.46.9-1.55,1.78-2.58,1.78-.63,0-1.47-.59-1.47-2.16,0-.38.11-1.43.63-2.65.48-1.09,1.3-2.27,2.6-2.9.5-.27.92-.38,1.32-.38.34,0,.73.15.97.4Z"/>
    <path d="M956.61,860.38c0,2.16-1.49,4.24-2.42,4.91-.8.61-1.43.76-2.02.76-.71,0-1.55-.67-1.55-2.31,0-1.11.52-2.9,1.49-4.07.97-1.22,2.02-1.72,2.88-1.72,1.28,0,1.62,1.47,1.62,2.44ZM953.1,860.04c-.82,1.3-1.45,3.09-1.45,4.51,0,.78.23,1.2.65,1.2.34,0,.8-.29,1.32-.97.97-1.26,1.95-3.78,1.95-5.21,0-.5-.02-1.34-.55-1.34s-1.13.57-1.93,1.81Z"/>
    <path d="M960.96,858.84c-.06.23-.21.82-.88,2.27-.08.21.02.23.15.06.92-1.2,2.67-3.21,4.26-3.21.46,0,.69.4.69.78,0,.25-.1.65-.36,1.26-.5,1.34-1.49,3.57-1.78,4.28-.06.23-.04.27.1.27.25,0,1.13-.65,1.74-1.32.21-.19.23.04.02.34-.84,1.26-2.48,2.46-3.25,2.46-.29,0-.36-.42-.27-.63.08-.25,2.29-5.08,2.62-6.09.13-.4.04-.73-.29-.73-.5,0-1.32.46-2.6,2.14-1.03,1.45-1.89,3.23-2.86,4.91-.08.15-.38.25-.71.25-.12,0-.25-.1-.23-.25,0-.15.13-.5.25-.78.63-1.49,1.95-4.58,2.33-5.42.15-.31.08-.48-.21-.48-.34,0-.82.25-1.24.88-.1.15-.23.08-.17-.15.17-.46.78-1.72,2.04-1.72.61,0,.74.63.65.88Z"/>
    <path d="M969.46,858.84c-.06.23-.21.82-.88,2.27-.08.21.02.23.15.06.92-1.2,2.67-3.21,4.26-3.21.46,0,.69.4.69.78,0,.25-.11.65-.36,1.26-.5,1.34-1.49,3.57-1.79,4.28-.06.23-.04.27.11.27.25,0,1.13-.65,1.74-1.32.21-.19.23.04.02.34-.84,1.26-2.48,2.46-3.25,2.46-.29,0-.36-.42-.27-.63.08-.25,2.29-5.08,2.62-6.09.12-.4.04-.73-.29-.73-.5,0-1.32.46-2.6,2.14-1.03,1.45-1.89,3.23-2.86,4.91-.08.15-.38.25-.71.25-.13,0-.25-.1-.23-.25,0-.15.13-.5.25-.78.63-1.49,1.95-4.58,2.33-5.42.15-.31.08-.48-.21-.48-.34,0-.82.25-1.24.88-.11.15-.23.08-.17-.15.17-.46.78-1.72,2.04-1.72.61,0,.73.63.65.88Z"/>
    <path d="M978.3,858.42c.02.17-.13.73-.27,1.09-.46,1.18-1.7,4.18-2.16,5.23-.15.34-.06.4.04.4.29,0,1.2-.82,1.53-1.18s.25,0,.1.23c-.9,1.24-1.95,1.85-2.6,1.85-.17,0-.4-.29-.4-.59-.02-.23.15-.76.5-1.62.38-.84,1.2-2.98,1.89-4.49.1-.23.06-.38-.04-.38-.31,0-.8.31-1.38.92-.34.34-.34.04-.17-.19.92-1.15,2.02-1.76,2.6-1.76.25,0,.34.29.36.48ZM979.02,855.23c0,.5-.48.76-.73.76-.36,0-.59-.29-.59-.65,0-.4.36-.8.73-.8.48,0,.59.48.59.69Z"/>
    <path d="M984.75,858.97c0,.44-.34,1.07-1.05,1.62-.8.63-2,1.03-2.92,1.09-.08,0-.17.13-.19.19-.21.52-.42,1.53-.42,2.16,0,.38.06,1.03.88,1.03.59,0,1.26-.46,1.81-1.13.08-.1.15-.15.17-.04.02.04-.02.25-.17.57-.5.86-1.39,1.6-2.48,1.6-.69,0-1.39-.8-1.39-2.02,0-1.45.78-3.13,1.39-4.01.88-1.2,2.16-2.08,3.17-2.08.88,0,1.2.52,1.2,1.03ZM980.8,861.32c-.02.06.02.08.11.06,1.24-.19,2.96-1.7,2.96-2.56,0-.36-.15-.59-.42-.59-.9,0-2,1.28-2.65,3.09Z"/>
    <path d="M988.26,858.86c-.02.48-.65,2.06-.78,2.5-.06.23.04.29.15.1.48-.78.97-1.6,1.53-2.27.59-.76,1.28-1.26,1.83-1.26.46,0,.67.42.67.76,0,.78-.67,1.22-.9,1.22-.15,0-.25-.06-.23-.27,0-.59-.04-.92-.34-.92-.36,0-.97.71-2.02,2.75-.63,1.22-1.41,2.81-2.04,4.18-.13.29-.29.4-.38.4-.15,0-.4-.04-.52-.23-.04-.06-.06-.17-.02-.34.06-.27,1.07-3.19,1.99-5.92.13-.38.06-.52-.08-.52-.44,0-1.05.71-1.41,1.05-.13.1-.21.02-.21-.06.02-.46.88-1.95,2.1-1.95.44,0,.67.34.65.8Z"/>
    <path d="M1001.11,858.05c-.99.88-3.95,2.86-4.49,3.19-.08.04-.11.15-.11.27.02,2.04,1.6,3.38,3.17,3.38,2.9,0,5.54-2.92,5.59-5.63,0-.19-.02-.44-.13-.5-.1-.1-.42-.25-1.03-.25-1.09,0-1.3.67-1.3,1.09-.02.38.23.76.36,1.03.02.08.02.15-.02.23-.06.06-.17.15-.36.15-.42,0-.84-.4-.84-.8,0-.5.38-.97.92-1.53.65-.59,1.43-.97,2.08-.97,1.34,0,2.18,1.03,2.42,1.3.17.17.31.29.52.29s.38-.23.38-.57c0-.44-.13-.92-.44-1.34-.12-.17,0-.19.11-.19.57,0,1.03.78,1.03,1.43-.02.36-.15.61-.27.65-.31.13-1.2.55-1.51.76-.15.06-.21.06-.27-.02-.23-.42-.8-.86-1.18-1.07-.06-.04-.1,0-.1.1-.08,1.89-.82,3.57-1.85,4.79-1.36,1.62-3.17,2.29-4.47,2.29-3.19,0-3.99-2.58-3.99-4.16,0-1.36.61-3.13,1.97-4.39.5-.55,1.55-1.24,2.25-1.24.36,0,.9.59,1.07,1.6.02.08.08.06.13.02,1.11-.9,2.69-2.6,2.71-4.22,0-.4-.17-.67-.25-.86-.02-.1-.02-.23.04-.34.13-.17.44-.46.63-.46.25,0,.52.48.52,1.03-.02,1.76-1.7,3.53-3.28,4.93ZM996.53,860.65c0,.06.02.17.12.1.46-.23,2.35-1.49,2.54-1.66.19-.21.29-.48.31-.78,0-.38-.12-1.22-.8-1.22-.95,0-2.1,1.53-2.18,3.55Z"/>
    <path d="M1023.12,865.81c-.55,0-.61-.25-.02-.34.88-.13,1.15-.27,1.47-1.83.23-1.26,1.37-6.49,1.74-8.57.04-.25-.06-.29-.1-.21-1.16,1.62-3.67,5.23-4.87,6.99-.63.94-1.2,1.72-1.85,2.69-.57.8-.8,1.11-.9,1.11-.08,0-.17-.1-.17-.36.02-.52-.36-7.85-.55-10.25,0-.34-.15-.06-.19,0-.88,1.78-3.23,6.66-4.07,8.8-.5,1.26-.17,1.51.8,1.64.48.08.5.34-.04.34-.59,0-1.07-.08-1.72-.08-.61,0-1.3.08-1.7.08-.42,0-.34-.25-.04-.29.99-.17,1.49-.55,2.1-1.74,1.55-3.07,3.74-7.54,4.54-9.28.31-.71.15-1.05-.31-1.18-.23-.06-.5-.08-.9-.15-.61-.08-.5-.34.06-.34.76,0,1.83.06,2.5.06.15,0,.19.17.19.27.02,1.01.61,7.83.76,9.68.02.19.08.19.23.04.71-1.03,3.34-4.72,5.29-7.5.71-.97,1.26-1.78,1.51-2.23.13-.23.21-.27.44-.27.44,0,1.97-.08,2.29-.08.57,0,.44.27.02.34-1.47.17-1.57.46-1.91,1.68-.27,1.01-1.41,7.33-1.62,8.76-.21,1.55,0,1.68,1.01,1.91.44.08.48.34-.02.34-.76,0-1.45-.1-2.12-.1-.55,0-1.16.06-1.83.06Z"/>
    <path d="M1034.92,858.59s.08,0,.1-.04c.27-.48.42-.63.5-.63.15,0,.36.1.53.23.06.04.08.19.04.34-.17.55-1.45,3.88-2.2,6.11-.04.1.02.19.12.19.53,0,1.24-.63,1.76-1.34.13-.13.21-.1.17.06,0,.08-.06.21-.12.34-.55.97-1.85,2.23-2.92,2.23-.27,0-.46-.13-.46-.31,0-.27.61-1.7,1.18-3.23.04-.1-.02-.15-.06-.08-2.27,2.58-3.76,3.63-4.45,3.63-.34,0-.65-.34-.65-.88s.4-1.51,1.03-2.46c.69-1.07,1.76-2.23,2.9-3.11.82-.65,1.83-1.24,2.1-1.24.15,0,.31.1.44.21ZM1031.52,860.84c-.82.9-1.72,2.73-1.72,3.65,0,.17.06.44.32.44.38,0,.92-.4,1.53-.94,1.32-1.24,2.35-2.83,2.9-4.39.02-.04,0-.1,0-.15-.08-.04-.34-.17-.59-.17-.82,0-1.79.82-2.44,1.55Z"/>
    <path d="M1040.08,858.86c-.02.48-.65,2.06-.78,2.5-.06.23.04.29.15.1.48-.78.97-1.6,1.53-2.27.59-.76,1.28-1.26,1.83-1.26.46,0,.67.42.67.76,0,.78-.67,1.22-.9,1.22-.15,0-.25-.06-.23-.27,0-.59-.04-.92-.34-.92-.36,0-.97.71-2.02,2.75-.63,1.22-1.41,2.81-2.04,4.18-.13.29-.29.4-.38.4-.15,0-.4-.04-.52-.23-.04-.06-.06-.17-.02-.34.06-.27,1.07-3.19,1.99-5.92.13-.38.06-.52-.08-.52-.44,0-1.05.71-1.41,1.05-.13.1-.21.02-.21-.06.02-.46.88-1.95,2.1-1.95.44,0,.67.34.65.8Z"/>
    <path d="M1050.33,858.63c0,.78-.78,1.68-1.38,2.12-.5.36-1.01.67-1.72.99-.06.02-.1.13-.08.21.19.9.44,1.87.71,2.52.23.5.38.69.59.69.29,0,.8-.29,1.38-1.13.19-.23.32-.17.15.19-.57,1.18-1.55,1.87-2.04,1.87-.42,0-.8-.42-1.07-1.2-.21-.48-.52-1.34-.71-1.93-.15-.48-.42-.71-.57-.71-.13,0-.36.29-.5.65-.25.57-.65,1.68-1.03,2.56-.17.36-.34.5-.4.5-.32,0-.59-.25-.57-.46.04-.15.06-.36.19-.76,1.24-3.97,3.23-10.18,3.72-11.97.15-.55,0-.76-.46-.82-.19-.04-.29-.1-.29-.15,0-.08.13-.1.21-.13.82-.13,1.55-.23,1.89-.34.11-.02.21-.04.27-.04.08,0,.08.21.02.38-.42,1.28-2.12,6.24-2.83,8.5-.02.1.02.25.13.1.76-.94,1.55-1.53,2.16-1.89.53-.34,1.13-.46,1.37-.46.54,0,.88.25.88.69ZM1045.65,861.62c-.08.17-.08.34.19.34,1.11,0,3.32-1.76,3.32-2.73,0-.34-.19-.52-.5-.52-.71,0-1.93.63-3,2.92Z"/>
    <path d="M1065.01,852.92c1.05,0,1.66-.04,1.95-.17.17-.08.23-.1.29-.1s.04.17,0,.29c-.31.67-.63,1.39-.82,2.23-.06.25-.27.08-.27-.19.02-1.13.13-1.55-.94-1.62-.59-.02-1.18-.02-2.5-.02-.1,0-.19.08-.31.42-.15.31-2.62,8.1-3.15,10.02-.42,1.49-.23,1.55.94,1.76.48.08.36.31-.08.31-.63,0-1.32-.1-2.2-.1-.69,0-1.64.1-2.14.1-.57,0-.38-.27-.02-.34,1.03-.15,1.43-.25,1.93-1.72.38-1.09,3.23-9.85,3.28-10.16.04-.25.04-.31-.06-.31-1.24,0-2.08-.04-2.71.04-1.01.1-1.3.63-1.97,1.72-.19.31-.44.29-.27-.15.4-.84.65-1.43.86-2.25.02-.1.15-.15.19-.13.08.15.46.29,1.05.31.5.04,2.33.04,3.63.04h3.34Z"/>
    <path d="M1070.87,859.26c-.55,1.39-1.18,3.13-1.93,4.93-.1.29-.1.46.1.46.53,0,1.45-1.01,1.6-1.18.27-.34.29-.06.13.23-.67,1.2-2.18,2.33-2.92,2.33-.17,0-.34-.17-.34-.42,0-.21.04-.5.17-.84.17-.44.65-1.55,1.09-2.73.08-.23.04-.25-.15-.08-.84,1.05-2.35,2.65-3.57,3.53-.63.46-.97.55-1.22.55-.15,0-.29-.06-.38-.27-.15-.29-.08-.78.12-1.45.48-1.41,1.43-3.51,1.95-4.83.06-.17.06-.29-.04-.29-.29,0-.88.48-1.39.97-.4.36-.31-.02-.15-.21.48-.78,1.91-2.02,2.69-2.02.29,0,.5.34.25,1.09-.23.65-1.79,4.28-2.29,5.61-.08.25-.04.48.15.48.34,0,1.11-.55,2.33-1.91,1.28-1.47,2.52-3.7,3.17-4.81.15-.21.44-.44.69-.44.27,0,.29.31-.08,1.3Z"/>
    <path d="M1075.07,858.86c-.02.48-.65,2.06-.78,2.5-.06.23.04.29.15.1.48-.78.97-1.6,1.53-2.27.59-.76,1.28-1.26,1.83-1.26.46,0,.67.42.67.76,0,.78-.67,1.22-.9,1.22-.15,0-.25-.06-.23-.27,0-.59-.04-.92-.34-.92-.36,0-.97.71-2.02,2.75-.63,1.22-1.41,2.81-2.04,4.18-.12.29-.29.4-.38.4-.15,0-.4-.04-.53-.23-.04-.06-.06-.17-.02-.34.06-.27,1.07-3.19,2-5.92.13-.38.06-.52-.08-.52-.44,0-1.05.71-1.41,1.05-.12.1-.21.02-.21-.06.02-.46.88-1.95,2.1-1.95.44,0,.67.34.65.8Z"/>
    <path d="M1081.96,858.84c-.06.23-.21.82-.88,2.27-.08.21.02.23.15.06.92-1.2,2.67-3.21,4.26-3.21.46,0,.69.4.69.78,0,.25-.1.65-.36,1.26-.5,1.34-1.49,3.57-1.78,4.28-.06.23-.04.27.1.27.25,0,1.13-.65,1.74-1.32.21-.19.23.04.02.34-.84,1.26-2.48,2.46-3.25,2.46-.29,0-.36-.42-.27-.63.08-.25,2.29-5.08,2.62-6.09.13-.4.04-.73-.29-.73-.5,0-1.32.46-2.6,2.14-1.03,1.45-1.89,3.23-2.86,4.91-.08.15-.38.25-.71.25-.12,0-.25-.1-.23-.25,0-.15.13-.5.25-.78.63-1.49,1.95-4.58,2.33-5.42.15-.31.08-.48-.21-.48-.34,0-.82.25-1.24.88-.1.15-.23.08-.17-.15.17-.46.78-1.72,2.04-1.72.61,0,.74.63.65.88Z"/>
    <path d="M1092.9,858.97c0,.44-.34,1.07-1.05,1.62-.8.63-2,1.03-2.92,1.09-.08,0-.17.13-.19.19-.21.52-.42,1.53-.42,2.16,0,.38.06,1.03.88,1.03.59,0,1.26-.46,1.81-1.13.08-.1.15-.15.17-.04.02.04-.02.25-.17.57-.5.86-1.39,1.6-2.48,1.6-.69,0-1.39-.8-1.39-2.02,0-1.45.78-3.13,1.39-4.01.88-1.2,2.16-2.08,3.17-2.08.88,0,1.2.52,1.2,1.03ZM1088.95,861.32c-.02.06.02.08.11.06,1.24-.19,2.96-1.7,2.96-2.56,0-.36-.15-.59-.42-.59-.9,0-2,1.28-2.65,3.09Z"/>
    <path d="M1096.4,858.86c-.02.48-.65,2.06-.78,2.5-.06.23.04.29.15.1.48-.78.97-1.6,1.53-2.27.59-.76,1.28-1.26,1.83-1.26.46,0,.67.42.67.76,0,.78-.67,1.22-.9,1.22-.15,0-.25-.06-.23-.27,0-.59-.04-.92-.34-.92-.36,0-.97.71-2.02,2.75-.63,1.22-1.41,2.81-2.04,4.18-.13.29-.29.4-.38.4-.15,0-.4-.04-.52-.23-.04-.06-.06-.17-.02-.34.06-.27,1.07-3.19,1.99-5.92.13-.38.06-.52-.08-.52-.44,0-1.05.71-1.41,1.05-.13.1-.21.02-.21-.06.02-.46.88-1.95,2.1-1.95.44,0,.67.34.65.8Z"/>
    <path d="M1099.74,865.18c0,1.64-2.04,2.54-2.42,2.58-.27.02-.23-.08-.02-.19.76-.38,1.58-1.11,1.58-1.85,0-.44-.34-.61-.69-.69-.11-.02-.19-.17-.19-.25.02-.4.42-.76.82-.76.78,0,.92.73.92,1.15Z"/>
    <path d="M1113.08,856.05c0,1.51-1.15,2.88-2.27,3.95-1.32,1.26-3.32,2.92-5.1,4.51-.08.06-.06.13.06.13,1.39,0,4.43-.02,4.96-.04.71-.02.99-.29,1.34-.82.31-.44.4-.19.21.19-.19.4-.8,1.43-.92,1.74-.04.08-.17.15-.23.15-.5,0-3.9-.1-5.06-.1-.76,0-1.01.02-1.55.02-.25,0-.44-.04-.44-.17,0-.1.17-.27.38-.44.9-.73,2.86-2.39,3.93-3.51,1.76-1.78,3.28-3.32,3.28-5.31,0-1.36-.76-2.12-1.93-2.12-.82,0-1.85.46-2.62,1.36-.17.17-.21.23-.29.23-.06,0-.02-.21.02-.29.65-1.18,2.04-2.29,3.59-2.29s2.67,1.18,2.67,2.81Z"/>
    <path d="M1122.13,856.91c0,2.04-1.05,5.4-2.56,7.22-.99,1.22-2.08,1.89-3.04,1.89-2.18,0-2.46-2.23-2.46-3.67,0-2.04,1.11-5.44,2.52-7.14,1.07-1.26,2.1-1.97,3.23-1.97,2.04,0,2.31,2.16,2.31,3.67ZM1117.51,855.63c-1.16,2.06-2.16,5.46-2.16,8.06,0,1.15.29,2.02,1.16,2.02,1.53,0,2.44-2.48,3.09-4.09.65-1.66,1.22-4.24,1.22-5.92,0-1.11-.17-2.16-1.05-2.16-.82,0-1.49.82-2.25,2.1Z"/>
    <path d="M1130.82,856.91c0,2.04-1.05,5.4-2.56,7.22-.99,1.22-2.08,1.89-3.04,1.89-2.18,0-2.46-2.23-2.46-3.67,0-2.04,1.11-5.44,2.52-7.14,1.07-1.26,2.1-1.97,3.23-1.97,2.04,0,2.31,2.16,2.31,3.67ZM1126.2,855.63c-1.16,2.06-2.16,5.46-2.16,8.06,0,1.15.29,2.02,1.16,2.02,1.53,0,2.44-2.48,3.09-4.09.65-1.66,1.22-4.24,1.22-5.92,0-1.11-.17-2.16-1.05-2.16-.82,0-1.49.82-2.25,2.1Z"/>
    <path d="M1139.16,856.05c0,1.51-1.15,2.88-2.27,3.95-1.32,1.26-3.32,2.92-5.1,4.51-.08.06-.06.13.06.13,1.39,0,4.43-.02,4.96-.04.71-.02.99-.29,1.34-.82.31-.44.4-.19.21.19-.19.4-.8,1.43-.92,1.74-.04.08-.17.15-.23.15-.5,0-3.9-.1-5.06-.1-.76,0-1.01.02-1.55.02-.25,0-.44-.04-.44-.17,0-.1.17-.27.38-.44.9-.73,2.86-2.39,3.93-3.51,1.76-1.78,3.28-3.32,3.28-5.31,0-1.36-.76-2.12-1.93-2.12-.82,0-1.85.46-2.62,1.36-.17.17-.21.23-.29.23-.06,0-.02-.21.02-.29.65-1.18,2.04-2.29,3.59-2.29s2.67,1.18,2.67,2.81Z"/>
  </g>
</svg>