<?xml version="1.0" encoding="UTF-8"?>
<svg id="Layer_1" data-name="Layer 1" xmlns="http://www.w3.org/2000/svg" viewBox="0 0 1196.41 941.78">
  <defs>
    <style>
      .cls-1 {
        fill: #fff;
      }

      .cls-2 {
        fill: #c73319;
        font-family: Lexend-Regular, Lexend;
        font-size: 22.28px;
        font-variation-settings: 'wght' 400;
        letter-spacing: .06em;
      }
    </style>
  </defs>
  <rect class="cls-1" x="0" width="1196.41" height="941.78"/>
  <g>
    <path d="M880.6,830.38c.46,0,2.12.08,3.19.08.11,0,.4.21.46.27.32.38.9,1.03,1.76,2.04,1.03,1.26,5.14,5.52,6.26,6.7.11.1.19-.08.19-.13.1-.61.04-2.98.04-4.77,0-.69-.06-1.68-.12-2.23-.04-.44-.25-.9-1.3-1.18-.42-.1-.69-.23-.69-.48,0-.15.25-.25.61-.25.53,0,1.01.02,1.45.02.99,0,1.85-.1,2.39-.1.36,0,.5.13.5.27,0,.13-.15.31-.52.42-1.09.36-1.2.73-1.3,1.57-.06.76-.21,6.07-.21,7.85,0,.88.12,2.73.12,3.28,0,.19-.23.4-.34.4-.44,0-.94-.55-1.13-.8-.4-.52-.8-1.01-1.37-1.7-1.97-2.41-5.4-6.05-7.26-8.23-.1-.13-.23.04-.23.08-.04.57-.08,1.07-.1,2.73-.02,2.92-.06,4.51.04,5.54.08.67.31,1.03,1.32,1.34.44.13.59.27.59.4,0,.23-.29.31-.69.31-.61,0-1.09-.08-1.83-.08-.46,0-1.64.06-1.99.06-.29,0-.55-.1-.55-.27,0-.21.25-.31.46-.38.97-.29,1.47-.46,1.53-2.04.1-2.35.38-6.38.38-7.89,0-.84-.06-1.09-.12-1.18-.38-.46-.53-.76-1.62-1.01-.23-.04-.55-.21-.55-.36,0-.17.25-.31.63-.31Z"/>
    <path d="M904.89,839.57c0,1.78-1.09,3.07-1.87,3.57-.86.61-1.93.86-2.9.86s-2.12-.44-2.9-1.09c-.9-.73-1.58-2.06-1.58-3.23,0-1.47.65-2.58,1.45-3.25.63-.55,1.81-1.22,3.36-1.22,2.1,0,4.43,1.64,4.43,4.37ZM899.03,836.36c-.48.44-.86,1.36-.86,2.75,0,.69.08,1.49.25,2.02.44,1.47,1.41,2.18,2.29,2.18.21,0,.61-.17.92-.55.44-.55.78-1.66.78-2.86,0-.88-.19-2.25-.84-3.17-.38-.48-.92-.84-1.51-.84-.36,0-.69.15-1.03.46Z"/>
    <path d="M912.22,842.18c.08-.06.23-.4.23-.48v-4.7c0-.15-.13-.38-.36-.48-.34-.1-.57-.21-.84-.31-.15-.04-.34-.21-.34-.38,0-.08.19-.21.36-.21.84,0,2.16-.15,2.77-.27.21-.04.36-.08.5-.08s.21.25.21.34c-.04.76-.11,6.09-.11,6.76,0,.06.04.38.27.38.21-.02.67-.15.95-.15.08,0,.23.48.25.55.02.04-.15.23-.25.23-.57.04-1.66.31-2.14.44-.36.1-1.03.27-1.09.27-.08,0-.23-.15-.23-.29,0-.13.04-.5.06-.86,0-.1-.1-.19-.15-.17-.53.4-1.2.84-1.47.94-.36.17-.74.31-1.34.31-.99,0-1.68-.42-2.12-1.11-.15-.21-.25-.84-.25-1.11,0-1.49-.02-3.53-.06-4.64-.02-.61-.36-.73-.71-.88-.19-.08-.38-.25-.38-.44,0-.1.15-.23.34-.23.59,0,2.81-.23,2.9-.23s.17.23.17.31c.04,1.6-.02,4.75-.02,5.71,0,.4.19.71.4.9.34.25.78.4,1.18.4.32,0,.82-.13,1.28-.5Z"/>
    <path d="M917.39,835.94c.4-.15,1.34-.46,1.68-.63s.61-.31.71-.31c.08,0,.23.23.23.31,0,.23-.02.73-.02.92,0,.13.13.1.15.1.84-.63,1.72-1.13,2.67-1.13,1.03,0,1.64.5,1.93.84.48.55.76,1.47.76,2.54,0,.44.04,3.53.06,3.82.04.31.19.57.74.71.4.1.55.21.55.38s-.25.29-.61.29c-.5,0-1.32-.04-1.91-.04-.53,0-1.37.06-1.66.06s-.57-.06-.57-.29c0-.15.23-.27.5-.36.48-.19.59-.38.63-1.07s.04-3.3.04-3.91c0-.42-.17-.99-.46-1.26-.23-.21-.76-.44-1.2-.44-.73,0-1.09.21-1.38.42-.08.06-.19.34-.21.46-.02.36.02,4.87.04,5.12.02.29.08.44.73.65.19.08.36.23.36.36,0,.15-.23.29-.59.29-.4,0-1.18-.04-1.62-.04-.78,0-1.6.06-1.95.06s-.57-.13-.57-.31c0-.17.21-.27.44-.34.69-.23.8-.4.86-1.18.06-.63.1-2.31.1-4.43,0-.23-.15-.44-.61-.86-.17-.17-.23-.23-.23-.29,0-.13.23-.4.4-.46Z"/>
    <path d="M937.17,830.99c-.19,0-.48.1-.57.19-.06.06-.17.29-.19.78-.02.42-.02,3.02-.04,5.42,0,1.89.04,3.28.04,3.78.02,1.28.08,1.68,1.3,1.97.42.1.59.25.59.44s-.36.29-.65.29c-.55,0-1.74-.1-2.67-.1-.61,0-1.64.06-2.29.06-.48,0-.78-.08-.78-.34,0-.15.29-.31.5-.38,1.03-.23,1.28-.55,1.36-1.51.06-.84.1-2.23.1-3.28,0-.69,0-5.4-.04-5.98-.04-.73-.17-1.07-1.32-1.22-.27-.04-.48-.19-.48-.31,0-.17.19-.29.44-.34.15-.02.5-.02.69-.02,1.34,0,3.06-.19,4.01-.19,2.02,0,3.38.38,4.24,1.24.99.97,1.22,2.1,1.22,2.83,0,1.72-.78,2.65-1.39,3.17-.55.46-1.7.94-2.52.94-.23,0-.82-.04-1.09-.15-.29-.13-.44-.23-.44-.42,0-.08.15-.21.31-.21h.31c.88,0,2.18-1.05,2.18-3.23,0-1.68-1.13-3.44-2.86-3.44Z"/>
    <path d="M943.97,836.05c.8-.25,1.74-.57,2.12-.8.23-.15.44-.25.5-.25.13,0,.25.19.25.25,0,.38-.06.78-.06,1.18,0,.06.1.15.17.08.65-.69,1.57-1.3,2.22-1.3.92,0,1.22.57,1.22.86,0,.06-.06.23-.13.34-.23.36-.88,1.22-1.03,1.24-.08,0-.32-.02-.38-.08-.23-.21-.92-.59-1.32-.59-.19,0-.4,0-.53.13-.13.1-.19.23-.19.42,0,.42.11,4.07.13,4.39.04.65.19,1.03.48,1.09.21.04.65.19.9.27.34.1.42.25.42.34,0,.17-.25.25-.59.25-.63,0-1.72-.1-2.96-.1-.44,0-.88.06-1.36.06-.25,0-.53-.06-.53-.29,0-.15.31-.25.48-.31.76-.27.8-.5.82-1.76v-3.46c0-.38-.04-.69-.17-.8-.34-.27-.76-.65-.76-.73,0-.04.04-.34.27-.4Z"/>
    <path d="M960.12,839.57c0,1.78-1.09,3.07-1.87,3.57-.86.61-1.93.86-2.9.86s-2.12-.44-2.9-1.09c-.9-.73-1.58-2.06-1.58-3.23,0-1.47.65-2.58,1.45-3.25.63-.55,1.81-1.22,3.36-1.22,2.1,0,4.43,1.64,4.43,4.37ZM954.26,836.36c-.48.44-.86,1.36-.86,2.75,0,.69.08,1.49.25,2.02.44,1.47,1.41,2.18,2.29,2.18.21,0,.61-.17.92-.55.44-.55.78-1.66.78-2.86,0-.88-.19-2.25-.84-3.17-.38-.48-.92-.84-1.51-.84-.36,0-.69.15-1.03.46Z"/>
    <path d="M961.76,836.09c.57-.15,1.87-.48,2.48-.82.15-.08.29-.13.38-.13s.23.19.23.27c-.02,1.09-.06,6.78-.08,7.33-.04,1.45-.34,2.67-.88,3.57-.5.86-1.16,1.66-1.85,2.2-.55.48-1.26.84-1.41.84-.1,0-.4-.1-.5-.25-.04-.04-.04-.19.06-.25.96-.61,1.18-.86,1.3-1.01.59-.71,1.03-2.37,1.03-5.1,0-1.03-.02-4.37-.06-5.04-.02-.29-.08-.52-.82-1.01-.06-.04-.23-.21-.23-.36,0-.08.13-.19.36-.25ZM964.78,832.1c0,.94-.84,1.28-1.3,1.28-.42,0-1.2-.5-1.22-1.26-.02-.4.19-.8.48-1.05.17-.17.34-.25.63-.25,1.09,0,1.41.94,1.41,1.28Z"/>
    <path d="M973.41,836.09c.48.46.8,1.11.8,1.85,0,.15-.21.5-.46.5h-4.58c-.11,0-.21.06-.23.15-.06.17-.08.48-.08.76,0,.46.25,1.43.65,1.95.53.67,1.41,1.05,2.33,1.05s1.49-.21,1.89-.73c.08-.13.19-.25.27-.25s.19.15.19.27-.06.36-.17.52c-.65,1.01-1.64,1.83-3.36,1.83-2.41,0-3.88-1.83-3.88-4.22,0-1.68.92-3.36,2.67-4.16.52-.25,1.15-.4,1.72-.4.84,0,1.7.34,2.25.88ZM969.07,837.58c-.02.1.06.21.15.21.55.02,1.2,0,2.25,0,.36,0,.73-.21.73-.71,0-.59-.59-1.28-1.18-1.28-.88,0-1.7.82-1.95,1.78Z"/>
    <path d="M982.72,835.77c.27.19.36.48.36.76,0,.38-.69.99-.82.99-.19,0-.53-.15-.97-.52-.57-.46-1.01-.9-1.66-.9-.23,0-.59.13-.9.46-.53.55-.82,1.6-.82,2.56,0,1.36.57,2.08.67,2.2.4.55,1.16,1.13,2.29,1.13.61,0,1.3-.25,2.02-.69.11-.06.27,0,.27.17,0,.21-.17.48-.34.65-.71.76-1.93,1.41-3.23,1.41-1.53,0-2.71-.8-3.3-1.68-.42-.65-.69-1.57-.69-2.44,0-1.64.84-2.83,2.1-3.65.73-.52,2.12-.9,2.96-.9.63,0,1.68.17,2.06.46Z"/>
    <path d="M989.84,835.44c.08,0,.31.08.31.23,0-.06.06.61.06.86,0,.21-.4.25-.55.25h-1.99c-.13,0-.21.1-.21.15,0,1.05-.02,3-.02,4.24,0,.52.1.78.34.99s.69.36,1.03.36c.21,0,.65-.15.92-.29.17-.1.27-.15.36-.15.06,0,.15.1.15.34,0,.19-.21.46-.34.61-.57.59-1.41.99-2.39.99-.84,0-1.62-.42-1.95-.9-.25-.36-.38-.67-.38-1.49s.08-3.82.08-4.56c0-.15-.36-.29-.8-.46-.17-.06-.25-.23-.25-.36,0-.08.02-.13.11-.19,1.05-.69,1.74-1.2,2.2-1.68.25-.29.4-.46.48-.46.15,0,.42.21.42.36v1.05c0,.06.1.19.19.19.46,0,2.14-.06,2.23-.06Z"/>
    <path d="M892.59,857.96c0,2.29-1.11,4.49-2.62,6-1.53,1.53-3.32,2.1-4.62,2.1-1.13,0-2.46-.61-3.28-1.74-.69-.9-.99-2.02-.99-3.44,0-1.97.78-4.05,2.06-5.56,1.41-1.72,3.34-2.75,5.06-2.75,2.67,0,4.39,2.48,4.39,5.4ZM884.57,855.46c-1.11,1.55-2.04,4.41-2.04,6.68,0,2.62,1.15,3.42,2.52,3.42,1.15,0,2.44-.38,3.76-2.06,1.24-1.55,2.37-4.64,2.37-6.66,0-1.62-.44-3.84-2.65-3.84-1.53,0-2.83.92-3.97,2.46Z"/>
    <path d="M900.31,858.63c0,.78-.78,1.68-1.38,2.12-.5.36-1.01.67-1.72.99-.06.02-.1.13-.08.21.19.9.44,1.87.71,2.52.23.5.38.69.59.69.29,0,.8-.29,1.38-1.13.19-.23.32-.17.15.19-.57,1.18-1.55,1.87-2.04,1.87-.42,0-.8-.42-1.07-1.2-.21-.48-.52-1.34-.71-1.93-.15-.48-.42-.71-.57-.71-.13,0-.36.29-.5.65-.25.57-.65,1.68-1.03,2.56-.17.36-.34.5-.4.5-.32,0-.59-.25-.57-.46.04-.15.06-.36.19-.76,1.24-3.97,3.23-10.18,3.72-11.97.15-.55,0-.76-.46-.82-.19-.04-.29-.1-.29-.15,0-.08.13-.1.21-.13.82-.13,1.55-.23,1.89-.34.11-.02.21-.04.27-.04.08,0,.08.21.02.38-.42,1.28-2.12,6.24-2.83,8.5-.02.1.02.25.13.1.76-.94,1.55-1.53,2.16-1.89.53-.34,1.13-.46,1.37-.46.54,0,.88.25.88.69ZM895.63,861.61c-.08.17-.08.34.19.34,1.11,0,3.32-1.76,3.32-2.73,0-.34-.19-.52-.5-.52-.71,0-1.93.63-3,2.92Z"/>
    <path d="M905.77,858.34c.1.1.15.23.15.36,0,.27-.4.61-.57.61-.06,0-.15-.02-.29-.17-.23-.21-.59-.52-.92-.52-.46,0-.88.36-.86.99,0,.48.21,1.07.8,2.04.4.73.63,1.39.61,1.89,0,.63-.44,1.26-1.22,1.85-.67.5-1.36.67-1.83.67-.67,0-1.11-.52-1.13-1.05-.02-.21.08-.63.25-.78.08-.06.17-.08.23.02.34.61.88,1.15,1.57,1.15.63,0,1.15-.42,1.13-1.18,0-.4-.17-.94-.63-1.78-.55-.97-.71-1.49-.71-1.85,0-.52.29-1.28,1.01-1.89.55-.48,1.13-.76,1.6-.76.32,0,.65.17.82.4Z"/>
    <path d="M912.39,858.59s.08,0,.1-.04c.27-.48.42-.63.5-.63.15,0,.36.1.53.23.06.04.08.19.04.34-.17.55-1.45,3.88-2.2,6.11-.04.1.02.19.12.19.53,0,1.24-.63,1.76-1.34.13-.13.21-.1.17.06,0,.08-.06.21-.12.34-.55.97-1.85,2.23-2.92,2.23-.27,0-.46-.13-.46-.31,0-.27.61-1.7,1.18-3.23.04-.1-.02-.15-.06-.08-2.27,2.58-3.76,3.63-4.45,3.63-.34,0-.65-.34-.65-.88s.4-1.51,1.03-2.46c.69-1.07,1.76-2.23,2.9-3.11.82-.65,1.83-1.24,2.1-1.24.15,0,.31.1.44.21ZM908.99,860.84c-.82.9-1.72,2.73-1.72,3.65,0,.17.06.44.32.44.38,0,.92-.4,1.53-.94,1.32-1.24,2.35-2.83,2.9-4.39.02-.04,0-.1,0-.15-.08-.04-.34-.17-.59-.17-.82,0-1.79.82-2.44,1.55Z"/>
    <path d="M917.85,858.84c-.06.23-.21.82-.88,2.27-.08.21.02.23.15.06.92-1.2,2.67-3.21,4.26-3.21.46,0,.69.4.69.78,0,.25-.11.65-.36,1.26-.5,1.34-1.49,3.57-1.79,4.28-.06.23-.04.27.11.27.25,0,1.13-.65,1.74-1.32.21-.19.23.04.02.34-.84,1.26-2.48,2.46-3.25,2.46-.29,0-.36-.42-.27-.63.08-.25,2.29-5.08,2.62-6.09.12-.4.04-.73-.29-.73-.5,0-1.32.46-2.6,2.14-1.03,1.45-1.89,3.23-2.86,4.91-.08.15-.38.25-.71.25-.13,0-.25-.1-.23-.25,0-.15.13-.5.25-.78.63-1.49,1.95-4.58,2.33-5.42.15-.31.08-.48-.21-.48-.34,0-.82.25-1.24.88-.11.15-.23.08-.17-.15.17-.46.78-1.72,2.04-1.72.61,0,.73.63.65.88Z"/>
    <path d="M929.04,858.59s.08,0,.1-.04c.27-.48.42-.63.5-.63.15,0,.36.1.53.23.06.04.08.19.04.34-.17.55-1.45,3.88-2.2,6.11-.04.1.02.19.12.19.53,0,1.24-.63,1.76-1.34.13-.13.21-.1.17.06,0,.08-.06.21-.12.34-.55.97-1.85,2.23-2.92,2.23-.27,0-.46-.13-.46-.31,0-.27.61-1.7,1.18-3.23.04-.1-.02-.15-.06-.08-2.27,2.58-3.76,3.63-4.45,3.63-.34,0-.65-.34-.65-.88s.4-1.51,1.03-2.46c.69-1.07,1.76-2.23,2.9-3.11.82-.65,1.83-1.24,2.1-1.24.15,0,.31.1.44.21ZM925.64,860.84c-.82.9-1.72,2.73-1.72,3.65,0,.17.06.44.32.44.38,0,.92-.4,1.53-.94,1.32-1.24,2.35-2.83,2.9-4.39.02-.04,0-.1,0-.15-.08-.04-.34-.17-.59-.17-.82,0-1.79.82-2.44,1.55Z"/>
    <path d="M939.48,852.92c.9,0,1.22-.08,1.89-.08.59,0,.4.27-.02.31-.86.1-.99.23-1.39,1.22-.38.97-3.02,8.5-3.46,10.16-.1.36,0,.65.32.76.25.1,1.26.13,2.33.13,2.25,0,2.6-.02,3.17-.44.48-.31.97-.82,1.43-1.57.25-.46.44-.46.25.1-.25.73-.84,1.72-1.13,2.04-.13.17-.27.27-.44.31-.27.04-.53.04-1.05.04-1.2,0-4.45-.15-5.75-.15-.55,0-1.91.08-2.29.08-.4,0-.42-.25-.06-.29,1.01-.13,1.32-.25,1.85-1.53.52-1.3,2.79-8,3.21-9.34.34-1.15.29-1.39-.65-1.53-.5-.08-.36-.29.04-.29.57,0,1.09.08,1.76.08Z"/>
    <path d="M951.22,858.59s.08,0,.11-.04c.27-.48.42-.63.5-.63.15,0,.36.1.52.23.06.04.08.19.04.34-.17.55-1.45,3.88-2.21,6.11-.04.1.02.19.13.19.52,0,1.24-.63,1.76-1.34.12-.13.21-.1.17.06,0,.08-.06.21-.13.34-.54.97-1.85,2.23-2.92,2.23-.27,0-.46-.13-.46-.31,0-.27.61-1.7,1.18-3.23.04-.1-.02-.15-.06-.08-2.27,2.58-3.76,3.63-4.45,3.63-.34,0-.65-.34-.65-.88s.4-1.51,1.03-2.46c.69-1.07,1.76-2.23,2.9-3.11.82-.65,1.83-1.24,2.1-1.24.15,0,.32.1.44.21ZM947.81,860.84c-.82.9-1.72,2.73-1.72,3.65,0,.17.06.44.31.44.38,0,.92-.4,1.53-.94,1.32-1.24,2.35-2.83,2.9-4.39.02-.04,0-.1,0-.15-.08-.04-.34-.17-.59-.17-.82,0-1.78.82-2.44,1.55Z"/>
    <path d="M956.74,858.7c-.08,0-.17.17-.21.29-.25.67-1.22,3.46-1.8,5.33-.04.15-.02.34.1.34.23,0,.88-.36,1.64-1.2.36-.38.25.02.11.25-.8,1.2-2.25,2.33-2.9,2.33-.17,0-.42-.21-.42-.5,0-.27.13-.67.23-.99.25-.71,1.24-3.74,1.89-5.58.02-.08.04-.23-.06-.23-.32-.02-.61,0-.84-.02-.15-.02-.17-.08-.17-.1,0-.08.19-.23.27-.23.1-.02.4-.06.92-.08.04,0,.13-.1.15-.15.19-.42.52-1.18.76-1.51.12-.19.54-.44.86-.44.1,0,.13.19.06.36-.17.57-.34,1.18-.46,1.55-.02.04,0,.13.02.13.38,0,.99-.04,1.57-.04.04,0,.15.06.15.1s-.1.25-.46.29c-.44.04-1.24.1-1.41.1Z"/>
    <path d="M961.67,859.14c.27.84.32,1.95.32,3.11,0,.76-.1,1.76-.23,2.65-.04.31.08.23.21.04,1.11-2.16,2.12-5.58,2.14-6.84,0-.08.11-.17.15-.17.34,0,.52.46.5.8,0,1.3-1.78,5.08-2.52,6.47-.44.84-.76,1.32-.9,1.55-.82,1.36-2.16,3.09-3.11,3.84-1.13.88-1.85,1.09-2.39,1.09s-.97-.34-.97-.88c0-.48.44-.86.67-.86.19,0,.23.06.29.34.15.36.4.65.84.65.67,0,1.3-.38,2.06-1.28.61-.76,1.26-1.66,1.89-3.72.38-1.87.52-4.47.02-6.09-.19-.57-.42-.84-.65-.84-.54,0-.88.86-1.05,1.34-.11.44-.23.29-.23-.04,0-1.11.9-2.33,1.76-2.33.57,0,.97.5,1.2,1.18Z"/>
    <path d="M969.91,858.34c.1.1.15.23.15.36,0,.27-.4.61-.57.61-.06,0-.15-.02-.29-.17-.23-.21-.59-.52-.92-.52-.46,0-.88.36-.86.99,0,.48.21,1.07.8,2.04.4.73.63,1.39.61,1.89,0,.63-.44,1.26-1.22,1.85-.67.5-1.36.67-1.83.67-.67,0-1.11-.52-1.13-1.05-.02-.21.08-.63.25-.78.08-.06.17-.08.23.02.34.61.88,1.15,1.57,1.15.63,0,1.15-.42,1.13-1.18,0-.4-.17-.94-.63-1.78-.55-.97-.71-1.49-.71-1.85,0-.52.29-1.28,1.01-1.89.55-.48,1.13-.76,1.6-.76.32,0,.65.17.82.4Z"/>
    <path d="M977.82,859.47c0,1.85-1.18,4.3-1.87,5.1-.32.4-.57.57-.94.82-.29.19-1.16.69-1.47.69-.29,0-.54-.19-.54-.4,0-.1.12-.42.29-.63.02-.04.13-.04.19-.02.4.25.61.4.82.4.19,0,.48-.29.69-.63.73-1.24,1.57-4.03,1.57-5.23,0-.59-.21-.92-.59-.92-.84,0-1.87,1.24-2.88,2.81-.94,1.45-1.72,3.4-2.04,4.05-.19.34-.27.42-.36.42-.21,0-.48-.13-.55-.25-.08-.13-.06-.31-.02-.44.88-3.04,3.25-11.36,3.46-12.39.13-.61.08-.71-.57-.99-.17-.06-.25-.13-.25-.19s.06-.08.32-.1c.69-.04,1.45-.17,1.78-.27.15-.04.21-.04.27-.04.11,0,.15.21.02.59-.38,1.18-1.89,6.21-2.9,9.72-.02.13.04.19.15.04.8-1.18,1.78-2.33,2.77-3.04.8-.61,1.26-.63,1.58-.63.82,0,1.05.92,1.05,1.53Z"/>
    <path d="M984.44,858.97c0,.44-.34,1.07-1.05,1.62-.8.63-2,1.03-2.92,1.09-.08,0-.17.13-.19.19-.21.52-.42,1.53-.42,2.16,0,.38.06,1.03.88,1.03.59,0,1.26-.46,1.81-1.13.08-.1.15-.15.17-.04.02.04-.02.25-.17.57-.5.86-1.39,1.6-2.48,1.6-.69,0-1.39-.8-1.39-2.02,0-1.45.78-3.13,1.39-4.01.88-1.2,2.16-2.08,3.17-2.08.88,0,1.2.52,1.2,1.03ZM980.49,861.32c-.02.06.02.08.11.06,1.24-.19,2.96-1.7,2.96-2.56,0-.36-.15-.59-.42-.59-.9,0-2,1.28-2.65,3.09Z"/>
    <path d="M988.11,858.36c.04.21-.02.67-.21,1.24-.4,1.11-1.49,3.8-1.72,4.54-.21.63.06.99.48.99,1.49,0,3.61-3.19,3.63-5.08.02-.46,0-.71-.32-1.13-.04-.04-.1-.21-.1-.27.02-.31.44-.71.84-.71.25,0,.48.38.46,1.07,0,1.7-1.32,3.88-2.33,5.06-.71.78-1.51,1.41-2.08,1.68-.4.21-.8.27-1.05.27-.44,0-.8-.42-.78-1.11,0-.34.19-1.05.32-1.43.34-.92,1.13-2.98,1.6-4.05.06-.17.08-.42-.06-.42-.31,0-1.05.61-1.47,1.09-.27.27-.21-.02-.11-.19.34-.65,1.6-1.93,2.54-1.93.17,0,.31.19.36.4Z"/>
    <path d="M997.52,858.59s.08,0,.11-.04c.27-.48.42-.63.5-.63.15,0,.36.1.52.23.06.04.08.19.04.34-.17.55-1.45,3.88-2.21,6.11-.04.1.02.19.13.19.52,0,1.24-.63,1.76-1.34.12-.13.21-.1.17.06,0,.08-.06.21-.13.34-.54.97-1.85,2.23-2.92,2.23-.27,0-.46-.13-.46-.31,0-.27.61-1.7,1.18-3.23.04-.1-.02-.15-.06-.08-2.27,2.58-3.76,3.63-4.45,3.63-.34,0-.65-.34-.65-.88s.4-1.51,1.03-2.46c.69-1.07,1.76-2.23,2.9-3.11.82-.65,1.83-1.24,2.1-1.24.15,0,.32.1.44.21ZM994.12,860.84c-.82.9-1.72,2.73-1.72,3.65,0,.17.06.44.31.44.38,0,.92-.4,1.53-.94,1.32-1.24,2.35-2.83,2.9-4.39.02-.04,0-.1,0-.15-.08-.04-.34-.17-.59-.17-.82,0-1.78.82-2.44,1.55Z"/>
    <path d="M1000.88,865.18c0,1.64-2.04,2.54-2.42,2.58-.27.02-.23-.08-.02-.19.76-.38,1.58-1.11,1.58-1.85,0-.44-.34-.61-.69-.69-.11-.02-.19-.17-.19-.25.02-.4.42-.76.82-.76.78,0,.92.73.92,1.15Z"/>
    <path d="M1014.21,856.05c0,1.51-1.15,2.88-2.27,3.95-1.32,1.26-3.32,2.92-5.1,4.51-.08.06-.06.13.06.13,1.39,0,4.43-.02,4.96-.04.71-.02.99-.29,1.34-.82.31-.44.4-.19.21.19-.19.4-.8,1.43-.92,1.74-.04.08-.17.15-.23.15-.5,0-3.9-.1-5.06-.1-.76,0-1.01.02-1.55.02-.25,0-.44-.04-.44-.17,0-.1.17-.27.38-.44.9-.73,2.86-2.39,3.93-3.51,1.76-1.78,3.28-3.32,3.28-5.31,0-1.36-.76-2.12-1.93-2.12-.82,0-1.85.46-2.62,1.36-.17.17-.21.23-.29.23-.06,0-.02-.21.02-.29.65-1.18,2.04-2.29,3.59-2.29s2.67,1.18,2.67,2.81Z"/>
    <path d="M1023.26,856.91c0,2.04-1.05,5.4-2.56,7.22-.99,1.22-2.08,1.89-3.04,1.89-2.18,0-2.46-2.23-2.46-3.67,0-2.04,1.11-5.44,2.52-7.14,1.07-1.26,2.1-1.97,3.23-1.97,2.04,0,2.31,2.16,2.31,3.67ZM1018.64,855.63c-1.16,2.06-2.16,5.46-2.16,8.06,0,1.15.29,2.02,1.16,2.02,1.53,0,2.44-2.48,3.09-4.09.65-1.66,1.22-4.24,1.22-5.92,0-1.11-.17-2.16-1.05-2.16-.82,0-1.49.82-2.25,2.1Z"/>
    <path d="M1030.55,853.41c-.08.23-.34.9-.76,2.29-.44,1.45-1.78,5.77-2.35,7.89-.48,1.74-.32,1.78.94,1.91.38.04.46.31-.06.31-.57,0-1.34-.06-1.95-.06-.96,0-1.51.1-2.33.1-.48,0-.44-.23,0-.29,1.22-.15,1.34-.25,1.79-1.49.25-.67.84-2.5,1.8-5.71.61-2.04.88-2.88,1.05-3.46.15-.5.15-.65-.11-.67-.19-.02-.73-.04-1.01-.06s-.38-.23.02-.25c.99-.1,1.83-.27,2.37-.46.19-.08.42-.21.52-.21.06,0,.11.06.06.17Z"/>
    <path d="M1042.25,853.51c0,.1-.13.44-.5.97-2.31,3.19-6.91,9.76-8.25,11.63-.15.19-.21.31-.31.31s-.21-.15-.21-.23c0-.1.19-.36.25-.46,2.77-3.88,5.31-7.39,7.79-10.88.06-.06,0-.1-.06-.1-.27-.02-.92-.02-1.62-.02-1.32,0-3.15.02-3.84.06-.73.02-1.09.36-1.36.92-.1.17-.23.23-.23.1-.02-.06.02-.27.13-.52.06-.17.63-1.36.86-1.7.04-.04.17-.13.23-.15.23.02.73.04,2.94.04,2.37,0,3.4-.06,3.95-.06.1,0,.25.02.25.08Z"/>
  </g>
  <text class="cls-2" transform="translate(566.23 688.89)"><tspan x="0" y="0">CARE</tspan></text>
  <g>
    <path d="M616.01,417.47l.71-.71.71.71,77.33-77.33c21.35-21.35,21.35-55.98,0-77.33-10.68-10.68-24.67-16.02-38.67-16.02s-27.99,5.34-38.67,16.02l-.71.71-.71-.71c-10.68-10.68-24.67-16.02-38.67-16.02s-27.99,5.34-38.67,16.02c-21.35,21.35-21.35,55.98,0,77.33l77.34,77.33ZM606.24,272.58l.71.71,9.77,9.77,9.77-9.77.72-.72c7.72-7.72,17.98-11.97,28.9-11.97s21.18,4.25,28.9,11.97c7.72,7.72,11.97,17.98,11.97,28.9s-4.25,21.18-11.97,28.9l-67.56,67.57-.71-.71-.72.72-67.56-67.56c-15.93-15.93-15.93-41.86,0-57.79,7.72-7.72,17.98-11.97,28.9-11.97,10.92,0,21.18,4.25,28.9,11.96Z"/>
    <path d="M447.42,615.48c3.33,0,6.68-1.06,9.52-3.22l54.87-42.02c4.04.6,8.1.66,12.49.66h121.71c3.37,0,6.86,0,10.41-.38,2.52-.27,4.56-1.87,5.54-4.02,2.34-1.28,4.51-2.89,6.45-4.83l110.74-110.74c6.67-6.67,10.24-15.94,9.79-25.42-.45-9.46-4.89-18.35-12.18-24.38-13.22-10.94-33.55-9.54-46.28,3.19l-49.6,49.61c-4.64-2.78-9.89-4.3-15.24-4.3h-.02c-.99-.04-24.38-.98-29.95-.98-3.93.03-7.97.11-12.07.19-20.42.41-41.55.83-60.59-4.14-4.36-1.14-8.54-2.36-12.61-3.54-20.37-5.92-39.61-11.51-64.21-3-21.55,7.4-42.03,21.79-64.46,45.29l-42.1,38.2c-6.24,5.63-6.83,15.39-1.34,21.74l57.28,66.68c3.07,3.56,7.43,5.4,11.83,5.4ZM388.93,531.9l42.3-38.38c.12-.11.24-.23.36-.35,20.9-21.94,39.69-35.26,59.13-41.94,20.47-7.08,36.08-2.54,55.86,3.21,4.19,1.22,8.48,2.46,12.97,3.64,20.9,5.44,43.98,4.98,64.36,4.58,4.05-.08,8.04-.16,11.92-.19,5.22-.1,29.01.95,29.54.97,4.43,0,8.62,1.74,11.78,4.9s4.9,7.35,4.9,11.78c0,9.23-7.49,16.74-16.69,16.74h-107.81c-3.21,0-5.99,2.21-6.73,5.33-.24,1.04-.52,2.44-.52,4.29,0,3.82,3.09,6.81,6.91,6.81,2.16,0,4.1-1.03,5.36-2.62h102.78c16.82,0,30.5-13.7,30.5-30.55,0-6-1.74-11.73-4.97-16.65l49.39-49.39c7.74-7.74,19.91-8.76,27.7-2.31,4.37,3.61,6.92,8.72,7.18,14.39.26,5.6-1.84,11.07-5.77,15l-110.74,110.74c-3.28,3.28-8.06,4.56-12.56,3.93v1.25h-121.79c-4.73,0-8.95-.07-12.69-.93-2.01-.47-4.13,0-5.76,1.25l-57.31,43.89c-.78.59-1.87.49-2.49-.22l-57.29-66.69c-.64-.74-.58-1.82.15-2.47Z"/>
  </g>
</svg>