<?xml version="1.0" encoding="UTF-8"?>
<svg id="Layer_1" data-name="Layer 1" xmlns="http://www.w3.org/2000/svg" viewBox="0 0 1196.41 941.78">
  <defs>
    <style>
      .cls-1 {
        fill: #c73319;
        font-family: Lexend-Regular, Lexend;
        font-size: 22.28px;
        font-variation-settings: 'wght' 400;
      }

      .cls-2 {
        fill: #fff;
      }

      .cls-3 {
        letter-spacing: 0em;
      }

      .cls-4 {
        letter-spacing: .06em;
      }

      .cls-5 {
        letter-spacing: .06em;
      }

      .cls-6 {
        letter-spacing: .05em;
      }

      .cls-7 {
        letter-spacing: .05em;
      }

      .cls-8 {
        letter-spacing: .01em;
      }
    </style>
  </defs>
  <rect class="cls-2" x="0" width="1196.41" height="941.78"/>
  <text class="cls-1" transform="translate(521.13 688.89)"><tspan class="cls-3" x="0" y="0">P</tspan><tspan class="cls-4" x="14.03" y="0">AE</tspan><tspan class="cls-6" x="46.02" y="0">D</tspan><tspan class="cls-5" x="63.71" y="0">I</tspan><tspan class="cls-8" x="75.72" y="0">A</tspan><tspan class="cls-4" x="91.56" y="0">TR</tspan><tspan class="cls-7" x="122.59" y="0">I</tspan><tspan class="cls-5" x="134.26" y="0">CS</tspan></text>
  <g>
    <path d="M463.97,282.71l267.78-.08c20.05,2.23,37.35,19.28,39.92,39.28.45,89.7.45,179.52,0,269.22-2.82,20.13-20.08,37.06-40.4,39.04h-265.94c-21.49-1.95-39.86-21.01-40.92-42.6v-262.34c.97-21.18,18.58-39.94,39.56-42.52ZM622.17,327.76c-.35.25-4.17-2.07-4.91-2.4-7.68-3.45-19.73-3.3-28.08-2.63-5.9.47-11,2-16.07,5.03-4.26-10.47-17.87-14.73-28.35-14.16-14.06.77-24.13,12.62-23.4,26.54.62,11.82,8.71,28.28,22.09,28.91-.51,1.83-.53,3.52-.49,5.41.41,20.89,8.21,38.76,26.43,49.89,36.39,22.22,82.27-3.42,83.75-45.57.13-3.67-.1-7.18-1.21-10.69,11.3-.4,19.94-12.82,22.01-22.99,3.61-17.75-8.17-32.43-26.45-31.49-9.16.47-22.17,4.56-25.33,14.16ZM547.01,421.91c-10.29.91-15.09,8.47-20.69,16.03-10.41,14.03-19.83,29.69-21.95,47.41-1.59,13.28.64,38.8,11.12,48.33,10.76,9.79,28.4,4.2,34.06-8.44,5-11.16-1.96-18.59-1.3-29.38.98-16.11,14.13-26.81,21.41-39.79,10.35-18.45-2.09-35.99-22.65-34.17ZM680.65,533.84c11.55-10.6,13.27-39.57,10.33-53.96-3.63-17.75-15.04-34.73-26.23-48.65-3.77-4.69-7.54-8.03-13.72-9.08-19.85-3.35-34.95,13.76-25.3,32.5,7.06,13.69,20.11,23.18,22.09,39.83,1.43,12.03-6.94,19.81-.49,32.17,5.98,11.48,23.25,16.43,33.32,7.19ZM608.74,460.48h-20.76l-.36.36v18.24l-.36.36h-18.36v20.76l.36.36h18.36v18.36l.36.36h20.76v-18.72h18.72v-21.12h-18.36l-.36-.36v-18.6ZM583.93,543.6c-15.72-14.92-42.24-8.48-49.12,12.03-7.66,22.81,13.22,44.89,36.43,38.59,22.21-6.03,29.46-34.71,12.69-50.62ZM610.51,545.53c-14.09,15.88-7.18,41.57,12.92,48.21,24.54,8.11,47.33-16.46,37.11-40.23-8.65-20.12-35.47-24.41-50.03-7.98Z"/>
    <path d="M601.06,397.36l.05,9.44c3.43,2.99,8.68,2.93,11.84-.55.92-1.02,2.19-3.79,2.91-4.29,1.83-1.27,4.43-.25,4.64,2.04s-3.73,6.76-5.53,8.11c-5.14,3.85-11.93,3.04-17.1-.3-4.79,2.88-11.4,3.62-16.49,1.05-2.54-1.28-5.9-4.45-7.15-7.01-1.07-2.2.19-4.59,2.71-4.41,2.03.14,2.58,2.39,3.73,3.73,2.5,2.89,5.44,3.77,9.2,3.46,1.49-.12,5.21-.9,5.44-2.72.31-2.38-.23-5.44-.04-7.9l-.2-.28c-5.88-.03-6.65-8.97-1.22-10.08,1.34-.28,5.81-.33,7.3-.26,6.63.34,6.61,10.22-.08,9.99Z"/>
    <path d="M575.56,368.86c7.53-.89,8.6,10.72,1.13,11.22s-8.26-10.38-1.13-11.22Z"/>
    <path d="M619,368.86c7.42-.88,8.61,10.62,1.13,11.22s-8.41-10.35-1.13-11.22Z"/>
  </g>
  <g>
    <path d="M885.45,830.99c-.19,0-.48.1-.57.19-.06.06-.17.29-.19.78-.02.42-.02,3.02-.04,5.42,0,1.89.04,3.28.04,3.78.02,1.28.08,1.68,1.3,1.97.42.1.59.25.59.44s-.36.29-.65.29c-.55,0-1.74-.1-2.67-.1-.61,0-1.64.06-2.29.06-.48,0-.78-.08-.78-.34,0-.15.29-.31.5-.38,1.03-.23,1.28-.55,1.36-1.51.06-.84.1-2.23.1-3.28,0-.69,0-5.4-.04-5.98-.04-.73-.17-1.07-1.32-1.22-.27-.04-.48-.19-.48-.31,0-.17.19-.29.44-.34.15-.02.5-.02.69-.02,1.34,0,3.06-.19,4.01-.19,2.02,0,3.38.38,4.24,1.24.99.97,1.22,2.1,1.22,2.83,0,1.72-.78,2.65-1.39,3.17-.55.46-1.7.94-2.52.94-.23,0-.82-.04-1.09-.15-.29-.13-.44-.23-.44-.42,0-.08.15-.21.31-.21h.31c.88,0,2.18-1.05,2.18-3.23,0-1.68-1.13-3.44-2.86-3.44Z"/>
    <path d="M898.11,842.18c.08-.06.23-.4.23-.48v-4.7c0-.15-.13-.38-.36-.48-.34-.1-.57-.21-.84-.31-.15-.04-.34-.21-.34-.38,0-.08.19-.21.36-.21.84,0,2.16-.15,2.77-.27.21-.04.36-.08.5-.08s.21.25.21.34c-.04.76-.11,6.09-.11,6.76,0,.06.04.38.27.38.21-.02.67-.15.95-.15.08,0,.23.48.25.55.02.04-.15.23-.25.23-.57.04-1.66.31-2.14.44-.36.1-1.03.27-1.09.27-.08,0-.23-.15-.23-.29,0-.13.04-.5.06-.86,0-.1-.1-.19-.15-.17-.53.4-1.2.84-1.47.94-.36.17-.74.31-1.34.31-.99,0-1.68-.42-2.12-1.11-.15-.21-.25-.84-.25-1.11,0-1.49-.02-3.53-.06-4.64-.02-.61-.36-.73-.71-.88-.19-.08-.38-.25-.38-.44,0-.1.15-.23.34-.23.59,0,2.81-.23,2.9-.23s.17.23.17.31c.04,1.6-.02,4.75-.02,5.71,0,.4.19.71.4.9.34.25.78.4,1.18.4.32,0,.82-.13,1.28-.5Z"/>
    <path d="M910.18,843.08c-.9.67-2.29.92-3.09.92s-2.12-.23-2.81-.44c-.08-.04-.23-.02-.44.08-.11.04-.23.08-.27.08-.08,0-.23-.13-.23-.27.11-1.64.13-5.29.13-7.01,0-1.99-.02-4.66-.06-4.98-.02-.13-.1-.36-.44-.65-.4-.29-.59-.38-.59-.48,0-.15.21-.36.34-.4.71-.19,1.58-.36,2.27-.73.4-.19.59-.25.69-.25.06,0,.23.19.23.34-.06,1.49-.19,3.21-.19,4.85,0,.48,0,1.13.02,1.6,0,.06.06.13.08.1.67-.42,1.64-.63,2.23-.63,1.07,0,2.02.34,2.69.92.92.8,1.43,1.89,1.43,3.28,0,1.7-.99,2.94-1.97,3.67ZM908.74,837.16c-.38-.44-1.16-.9-2-.9-.36,0-.63.1-.82.19-.06.04-.15.17-.17.23-.02.31-.04.73-.04,1.18,0,1.6.08,2.92.19,3.65.02.23.17.82.59,1.2.42.42.97.57,1.28.57.19,0,.59-.19,1.03-.63.55-.63.84-1.81.84-2.81,0-.84-.31-1.95-.9-2.67Z"/>
    <path d="M913.9,829.83c.9-.25,1.91-.42,2.73-.94.06-.04.25.13.25.21-.06.73-.17,4.98-.17,8.13,0,1.64.02,4.41.08,5.04.06.48.15.73.94.97.29.1.44.21.44.36,0,.19-.34.25-.57.25-.5,0-1.7-.08-2.08-.08-.48,0-1.51.08-1.95.08s-.61-.15-.61-.25c0-.23.27-.31.5-.36.69-.19.82-.5.88-1.6.06-.94.12-3.3.12-6.61,0-1.11,0-3.09-.02-3.7-.02-.23-.13-.36-.55-.71-.29-.21-.4-.31-.4-.42s.15-.27.38-.36Z"/>
    <path d="M919.55,843.84c-.34,0-.59-.13-.59-.27s.15-.25.57-.38c.48-.15.71-.4.76-.61.08-.29.13-1.78.13-3.28,0-.63,0-1.64-.04-1.89-.02-.17-.27-.38-.71-.76-.13-.13-.25-.23-.25-.34,0-.17.23-.34.57-.4.86-.17,2.18-.67,2.52-.76.11,0,.21.17.21.23-.04.69-.11,3.53-.11,4.75,0,.65.02,1.39.04,2.12.02.63.27.71.82.88.31.1.46.23.46.4s-.29.27-.59.27c-.15,0-1.28-.06-1.74-.06-.67,0-1.68.08-2.04.08ZM922.74,832.1c0,.71-.73,1.28-1.26,1.28-.19,0-.61-.1-.84-.34-.21-.21-.4-.5-.4-.94,0-.23.11-.65.34-.9.25-.23.65-.38,1.05-.38.74,0,1.11.82,1.11,1.28Z"/>
    <path d="M932.02,835.77c.27.19.36.48.36.76,0,.38-.69.99-.82.99-.19,0-.53-.15-.97-.52-.57-.46-1.01-.9-1.66-.9-.23,0-.59.13-.9.46-.53.55-.82,1.6-.82,2.56,0,1.36.57,2.08.67,2.2.4.55,1.16,1.13,2.29,1.13.61,0,1.3-.25,2.02-.69.11-.06.27,0,.27.17,0,.21-.17.48-.34.65-.71.76-1.93,1.41-3.23,1.41-1.53,0-2.71-.8-3.3-1.68-.42-.65-.69-1.57-.69-2.44,0-1.64.84-2.83,2.1-3.65.73-.52,2.12-.9,2.96-.9.63,0,1.68.17,2.06.46Z"/>
    <path d="M950.02,832.29c1.13,1.09,1.97,2.88,1.97,4.6,0,2.98-1.87,5.1-3.32,5.9-1.24.71-3,1.15-4.81,1.15-.86,0-2.96-.06-4.2-.13-.63-.02-1.09-.02-1.43-.02-.46,0-.69-.17-.69-.34s.29-.31.55-.36c1.3-.17,1.41-.46,1.47-2.37.04-1.15.06-1.99.06-2.9-.02-1.09,0-3.44-.08-4.85-.08-1.32-.13-1.68-1.28-1.85-.23-.04-.5-.21-.5-.36,0-.17.25-.31.57-.31h1.09c1.03,0,3.44-.17,5-.17,2.92,0,4.79,1.24,5.61,1.99ZM942.38,831.26c-.13.08-.17.19-.17.29-.04.5-.08,1.85-.08,3.7v3.04c0,1.45.02,2.52.08,3.44.04.5.23.73.42.92.34.29,1.11.57,1.41.57.86,0,1.99-.27,3.15-1.24,1.28-1.07,1.95-3.11,1.95-5.1,0-1.47-.59-3.28-1.68-4.37-.92-.94-2.52-1.49-3.99-1.49-.5,0-.82.08-1.09.23Z"/>
    <path d="M962.98,839.57c0,1.78-1.09,3.07-1.87,3.57-.86.61-1.93.86-2.9.86s-2.12-.44-2.9-1.09c-.9-.73-1.57-2.06-1.57-3.23,0-1.47.65-2.58,1.45-3.25.63-.55,1.8-1.22,3.36-1.22,2.1,0,4.43,1.64,4.43,4.37ZM957.12,836.36c-.48.44-.86,1.36-.86,2.75,0,.69.08,1.49.25,2.02.44,1.47,1.41,2.18,2.29,2.18.21,0,.61-.17.92-.55.44-.55.78-1.66.78-2.86,0-.88-.19-2.25-.84-3.17-.38-.48-.92-.84-1.51-.84-.36,0-.69.15-1.03.46Z"/>
    <path d="M964.85,836.09c.53-.17,1.76-.69,2.27-.94.11-.06.15-.04.19-.02.1.06.19.23.19.27,0,.29-.06.69-.06.9,0,.04.08.19.15.13.82-.65,1.81-1.22,2.83-1.22.65,0,1.2.17,1.53.44.36.25.57.57.67.76.02.06.13.08.17.06.36-.27.84-.61,1.36-.88.48-.25,1.05-.38,1.41-.38.82,0,1.34.25,1.81.73.57.55.76,1.32.8,2.12.04.69.08,2.98.1,4.33.02.36.19.67.74.84.27.08.42.21.42.34,0,.15-.21.27-.59.27-.42,0-1.11-.08-1.68-.08-.71,0-1.24.06-1.72.06-.4,0-.53-.17-.53-.31,0-.13.21-.23.44-.31.55-.17.63-.36.65-1.18.02-.55-.02-2.96-.02-3.65,0-.36-.06-.78-.29-1.18-.25-.4-.67-.69-1.32-.69-.74,0-1.09.29-1.3.46-.1.08-.17.44-.17.65,0,.15-.02,4.07.02,4.54.06.67.15.86.88,1.07.23.06.44.17.44.31s-.21.29-.54.29c-.46,0-1.41-.06-1.89-.06-.44,0-1.28.04-1.72.04-.53,0-.61-.15-.61-.31,0-.06.15-.21.42-.29.57-.17.76-.38.76-1.13l.02-3.61c.02-.84-.15-1.18-.25-1.32-.27-.38-.74-.65-1.37-.65-.46,0-.9.15-1.28.46-.1.1-.19.29-.19.46-.02,1.36-.02,3.25-.02,4.85,0,.44.17.71.73.9.4.13.5.21.5.38,0,.13-.27.27-.57.27-.08,0-1.26-.04-2.06-.04-.69,0-1.32.08-1.76.08-.29,0-.59-.08-.59-.27,0-.13.15-.25.53-.36.73-.17.8-.44.88-1.34.04-.57.1-2.18.1-4.03,0-.19,0-.38-.12-.48-.5-.5-.76-.76-.76-.88s.25-.34.4-.38Z"/>
    <path d="M986.52,836.34c.25.34.46.86.46,1.81,0,.82-.08,3.32-.08,3.55,0,.59.42.84.78.84.1,0,.52-.17.73-.25.06-.04.08-.02.13.02.04.08.06.23.06.29,0,.4-.99,1.43-2.16,1.43-.61,0-1.26-.19-1.58-1.01-.02-.08-.15-.13-.19-.08-.52.38-1.39.78-1.66.88-.23.08-.65.17-.92.17-.78,0-1.62-.94-1.62-2.12,0-.38.17-.78.38-1.07s.57-.42.76-.5c.46-.19,2.37-.71,2.86-.86.25-.08.38-.23.38-.31.02-.19.06-1.34.04-1.62-.02-.5-.46-1.34-1.41-1.34-.29,0-.53.04-.67.15-.08.04-.13.25-.13.97,0,.08-.04.15-.08.19-.15.15-1.7.84-1.85.84-.12,0-.27-.17-.27-.29,0-.61.46-1.18,1.76-2.02.78-.5,1.81-.78,2.1-.78,1.28,0,1.87.67,2.18,1.13ZM984.57,842.47c.08-.06.17-.31.17-.4.04-.29.08-1.18.08-1.87,0-.08-.08-.21-.15-.21-.36,0-1.32.31-1.7.55-.25.19-.38.29-.38.84,0,.92.76,1.34,1.16,1.34.19,0,.61-.13.82-.25Z"/>
    <path d="M989.71,843.84c-.34,0-.59-.13-.59-.27s.15-.25.57-.38c.48-.15.71-.4.76-.61.08-.29.13-1.78.13-3.28,0-.63,0-1.64-.04-1.89-.02-.17-.27-.38-.71-.76-.13-.13-.25-.23-.25-.34,0-.17.23-.34.57-.4.86-.17,2.18-.67,2.52-.76.11,0,.21.17.21.23-.04.69-.11,3.53-.11,4.75,0,.65.02,1.39.04,2.12.02.63.27.71.82.88.31.1.46.23.46.4s-.29.27-.59.27c-.15,0-1.28-.06-1.74-.06-.67,0-1.68.08-2.04.08ZM992.9,832.1c0,.71-.73,1.28-1.26,1.28-.19,0-.61-.1-.84-.34-.21-.21-.4-.5-.4-.94,0-.23.11-.65.34-.9.25-.23.65-.38,1.05-.38.74,0,1.11.82,1.11,1.28Z"/>
    <path d="M995.63,835.94c.4-.15,1.34-.46,1.68-.63s.61-.31.71-.31c.08,0,.23.23.23.31,0,.23-.02.73-.02.92,0,.13.13.1.15.1.84-.63,1.72-1.13,2.67-1.13,1.03,0,1.64.5,1.93.84.48.55.76,1.47.76,2.54,0,.44.04,3.53.06,3.82.04.31.19.57.74.71.4.1.55.21.55.38s-.25.29-.61.29c-.5,0-1.32-.04-1.91-.04-.53,0-1.37.06-1.66.06s-.57-.06-.57-.29c0-.15.23-.27.5-.36.48-.19.59-.38.63-1.07s.04-3.3.04-3.91c0-.42-.17-.99-.46-1.26-.23-.21-.76-.44-1.2-.44-.73,0-1.09.21-1.38.42-.08.06-.19.34-.21.46-.02.36.02,4.87.04,5.12.02.29.08.44.73.65.19.08.36.23.36.36,0,.15-.23.29-.59.29-.4,0-1.18-.04-1.62-.04-.78,0-1.6.06-1.95.06s-.57-.13-.57-.31c0-.17.21-.27.44-.34.69-.23.8-.4.86-1.18.06-.63.1-2.31.1-4.43,0-.23-.15-.44-.61-.86-.17-.17-.23-.23-.23-.29,0-.13.23-.4.4-.46Z"/>
    <path d="M885.7,865.86c-.54,0-.48-.25,0-.31,1.11-.13,1.24-.55,1.58-1.64.19-.61.69-2.41,1.01-3.59.02-.06,0-.17-.06-.17-1.07,0-2.64.1-3.11.19-.17.02-.42.15-.54.29-.82.9-2.23,2.54-2.98,3.44-.82,1.07-.5,1.26.36,1.43.48.08.38.31-.04.31s-.86-.06-1.34-.06c-.52,0-1.72.1-2.12.1-.5,0-.44-.23,0-.31.8-.15,1.41-.38,2.73-1.81,2.86-3.15,6.07-6.68,9.05-9.99.23-.25.29-.27.38-.31.13-.06.38-.06.67-.48.11-.13.25-.27.34-.27s.08.23-.06.73c-.88,2.77-2.29,8.15-2.79,10.75-.21.94.02,1.2.82,1.32.48.06.36.31-.02.31-.8,0-1.18-.04-1.6-.04-.61,0-1.91.1-2.25.1ZM888.51,859.37c.29-.9.96-3.44,1.26-4.35.1-.31.02-.27-.13-.13-1.36,1.57-3.23,3.57-4.12,4.68-.1.13.02.17.08.17.46,0,2.25-.1,2.69-.15.11,0,.17-.13.21-.23Z"/>
    <path d="M894.79,858.84c-.06.23-.21.82-.88,2.27-.08.21.02.23.15.06.92-1.2,2.67-3.21,4.26-3.21.46,0,.69.4.69.78,0,.25-.1.65-.36,1.26-.5,1.34-1.49,3.57-1.78,4.28-.06.23-.04.27.1.27.25,0,1.13-.65,1.74-1.32.21-.19.23.04.02.34-.84,1.26-2.48,2.46-3.25,2.46-.29,0-.36-.42-.27-.63.08-.25,2.29-5.08,2.62-6.09.13-.4.04-.73-.29-.73-.5,0-1.32.46-2.6,2.14-1.03,1.45-1.89,3.23-2.86,4.91-.08.15-.38.25-.71.25-.12,0-.25-.1-.23-.25,0-.15.13-.5.25-.78.63-1.49,1.95-4.58,2.33-5.42.15-.31.08-.48-.21-.48-.34,0-.82.25-1.24.88-.1.15-.23.08-.17-.15.17-.46.78-1.72,2.04-1.72.61,0,.74.63.65.88Z"/>
    <path d="M906.11,860.38c0,2.16-1.49,4.24-2.42,4.91-.8.61-1.43.76-2.02.76-.71,0-1.55-.67-1.55-2.31,0-1.11.52-2.9,1.49-4.07.97-1.22,2.02-1.72,2.88-1.72,1.28,0,1.62,1.47,1.62,2.44ZM902.6,860.04c-.82,1.3-1.45,3.09-1.45,4.51,0,.78.23,1.2.65,1.2.34,0,.8-.29,1.32-.97.97-1.26,1.95-3.78,1.95-5.21,0-.5-.02-1.34-.55-1.34s-1.13.57-1.93,1.81Z"/>
    <path d="M910.46,858.84c-.06.23-.21.82-.88,2.27-.08.21.02.23.15.06.92-1.2,2.67-3.21,4.26-3.21.46,0,.69.4.69.78,0,.25-.1.65-.36,1.26-.5,1.34-1.49,3.57-1.78,4.28-.06.23-.04.27.1.27.25,0,1.13-.65,1.74-1.32.21-.19.23.04.02.34-.84,1.26-2.48,2.46-3.25,2.46-.29,0-.36-.42-.27-.63.08-.25,2.29-5.08,2.62-6.09.13-.4.04-.73-.29-.73-.5,0-1.32.46-2.6,2.14-1.03,1.45-1.89,3.23-2.86,4.91-.08.15-.38.25-.71.25-.12,0-.25-.1-.23-.25,0-.15.13-.5.25-.78.63-1.49,1.95-4.58,2.33-5.42.15-.31.08-.48-.21-.48-.34,0-.82.25-1.24.88-.1.15-.23.08-.17-.15.17-.46.78-1.72,2.04-1.72.61,0,.74.63.65.88Z"/>
    <path d="M918.65,859.14c.27.84.31,1.95.31,3.11,0,.76-.11,1.76-.23,2.65-.04.31.08.23.21.04,1.11-2.16,2.12-5.58,2.14-6.84,0-.08.1-.17.15-.17.34,0,.53.46.5.8,0,1.3-1.79,5.08-2.52,6.47-.44.84-.76,1.32-.9,1.55-.82,1.36-2.16,3.09-3.11,3.84-1.13.88-1.85,1.09-2.39,1.09s-.96-.34-.96-.88c0-.48.44-.86.67-.86.19,0,.23.06.29.34.15.36.4.65.84.65.67,0,1.3-.38,2.06-1.28.61-.76,1.26-1.66,1.89-3.72.38-1.87.53-4.47.02-6.09-.19-.57-.42-.84-.65-.84-.55,0-.88.86-1.05,1.34-.1.44-.23.29-.23-.04,0-1.11.9-2.33,1.76-2.33.57,0,.97.5,1.2,1.18Z"/>
    <path d="M925.91,859.07c-.06.25-.27.67-.73,1.74-.08.19,0,.25.17.04.59-.76,1.57-1.87,2.48-2.46.48-.31.86-.46,1.26-.46.57,0,.76.57.76.94,0,.29-.17.82-.73,2.06-.04.1.06.15.11.08.96-1.18,1.76-1.97,2.69-2.58.57-.36,1.03-.5,1.38-.5.48,0,.69.52.69.84,0,.36-.08.69-.25,1.11-.5,1.3-1.55,3.57-1.83,4.28-.04.13-.02.27.1.27.27,0,.97-.48,1.76-1.26.15-.15.21,0,0,.29-.97,1.39-2.73,2.54-3.28,2.54-.29,0-.36-.46-.32-.61.61-1.47,2.37-5.38,2.62-5.96.21-.46.04-.84-.29-.84-.5,0-1.43.61-2.81,2.58-.86,1.22-1.85,3.23-2.54,4.43-.17.23-.46.44-.8.44-.23,0-.23-.42-.17-.57.61-1.57,2.02-4.81,2.52-6.09.17-.44.04-.78-.23-.78-.76,0-1.43.55-2.88,2.62-.8,1.2-1.87,3.28-2.54,4.43-.13.21-.4.38-.76.38-.11,0-.23-.15-.23-.29.02-.1.17-.55.34-.9.59-1.36,1.95-4.22,2.29-5.08.23-.57.04-.86-.19-.86-.38,0-.88.36-1.3.94-.06.1-.12.19-.19.19s-.08-.06-.02-.25c.12-.59,1.09-1.85,2.12-1.85.82,0,.86.78.8,1.11Z"/>
    <path d="M941.05,860.38c0,2.16-1.49,4.24-2.41,4.91-.8.61-1.43.76-2.02.76-.71,0-1.55-.67-1.55-2.31,0-1.11.53-2.9,1.49-4.07.97-1.22,2.02-1.72,2.88-1.72,1.28,0,1.62,1.47,1.62,2.44ZM937.55,860.04c-.82,1.3-1.45,3.09-1.45,4.51,0,.78.23,1.2.65,1.2.34,0,.8-.29,1.32-.97.97-1.26,1.95-3.78,1.95-5.21,0-.5-.02-1.34-.54-1.34s-1.13.57-1.93,1.81Z"/>
    <path d="M949.56,859.26c-.55,1.39-1.18,3.13-1.93,4.93-.1.29-.1.46.1.46.53,0,1.45-1.01,1.6-1.18.27-.34.29-.06.13.23-.67,1.2-2.18,2.33-2.92,2.33-.17,0-.34-.17-.34-.42,0-.21.04-.5.17-.84.17-.44.65-1.55,1.09-2.73.08-.23.04-.25-.15-.08-.84,1.05-2.35,2.65-3.57,3.53-.63.46-.97.55-1.22.55-.15,0-.29-.06-.38-.27-.15-.29-.08-.78.12-1.45.48-1.41,1.43-3.51,1.95-4.83.06-.17.06-.29-.04-.29-.29,0-.88.48-1.39.97-.4.36-.31-.02-.15-.21.48-.78,1.91-2.02,2.69-2.02.29,0,.5.34.25,1.09-.23.65-1.79,4.28-2.29,5.61-.08.25-.04.48.15.48.34,0,1.11-.55,2.33-1.91,1.28-1.47,2.52-3.7,3.17-4.81.15-.21.44-.44.69-.44.27,0,.29.31-.08,1.3Z"/>
    <path d="M955.21,858.34c.1.1.15.23.15.36,0,.27-.4.61-.57.61-.06,0-.15-.02-.29-.17-.23-.21-.59-.52-.92-.52-.46,0-.88.36-.86.99,0,.48.21,1.07.8,2.04.4.73.63,1.39.61,1.89,0,.63-.44,1.26-1.22,1.85-.67.5-1.36.67-1.83.67-.67,0-1.11-.52-1.13-1.05-.02-.21.08-.63.25-.78.08-.06.17-.08.23.02.34.61.88,1.15,1.57,1.15.63,0,1.15-.42,1.13-1.18,0-.4-.17-.94-.63-1.78-.55-.97-.71-1.49-.71-1.85,0-.52.29-1.28,1.01-1.89.55-.48,1.13-.76,1.6-.76.32,0,.65.17.82.4Z"/>
  </g>
</svg>