<?xml version="1.0" encoding="UTF-8"?>
<svg xmlns="http://www.w3.org/2000/svg" viewBox="0 0 204.3 214.79">
  <defs>
    <style>
      .cls-1 {
        fill: #f9f9f9;
      }

      .cls-1, .cls-2, .cls-3 {
        stroke: #000;
      }

      .cls-1, .cls-2, .cls-3, .cls-4 {
        stroke-linejoin: round;
        stroke-width: 2px;
      }

      .cls-5 {
        fill: none;
        mix-blend-mode: multiply;
        stroke: #ff7002;
        stroke-dasharray: 4.09 4.09 4.09 4.09 4.09 4.09;
        stroke-width: 1.36px;
      }

      .cls-2 {
        fill: #9e9e9e;
      }

      .cls-6 {
        isolation: isolate;
      }

      .cls-3 {
        fill: #cecccc;
      }

      .cls-4 {
        fill: #fff;
        stroke: #d8d6d6;
      }
    </style>
  </defs>
  <g class="cls-6">
    <g id="Capa_2" data-name="Capa 2">
      <g id="Layer_1" data-name="Layer 1">
        <g>
          <path class="cls-1" d="M92.95,163.13l36.78-20.27s36.78,20.26,36.78,20.26l-36.78,20.27-36.78-20.26Z"/>
          <path class="cls-3" d="M129.73,142.86h0v-40.53s36.78,20.27,36.78,20.27v40.53l-36.78-20.27Z"/>
          <path class="cls-1" d="M129.73,142.86l18.39,10.13,55.17-30.4-55.17-30.4h0s-18.39,10.13-18.39,10.13l36.78,20.27-36.78,20.27Z"/>
          <path class="cls-3" d="M92.95,163.13v20.27h0l55.17,30.4v-60.8l-18.39-10.13v40.53l-36.78-20.27Z"/>
          <path class="cls-2" d="M148.12,213.79l55.17-30.4h0v-60.8l-55.17,30.4v60.8Z"/>
        </g>
        <g>
          <path class="cls-4" d="M111.34,51.66v40.53l-36.78,20.26v-40.53s36.78-20.27,36.78-20.27Z"/>
          <path class="cls-4" d="M37.78,71.93l18.39,10.13,18.39-10.13-18.39-10.13-18.39,10.13Z"/>
          <path class="cls-4" d="M56.17,41.53v20.27l18.39,10.13v-20.27l-18.39-10.13Z"/>
          <path class="cls-4" d="M56.23,61.62v20.27l-18.39-10.13v20.27l36.78,20.27v-40.53s-18.39-10.13-18.39-10.13Z"/>
          <path class="cls-4" d="M111.34,51.66l-36.78-20.27-18.39,10.13,18.39,10.13-18.39,10.13,18.39,10.13,36.78-20.27Z"/>
        </g>
        <path class="cls-5" d="M93.04,165.07s-55.17-30.26-55.17-71.21"/>
        <path class="cls-5" d="M129.73,142.83s-55.17-30.26-55.17-71.21M111.34,51.66c0,40.53,55.13,70.93,55.13,70.93"/>
        <path class="cls-5" d="M1,32.86c0,20.43,18.39,30.4,18.39,30.4l18.39,10.13"/>
        <g>
          <path class="cls-4" d="M19.39,41.53l18.39-10.13V11.13l-18.39,10.13v20.27Z"/>
          <path class="cls-4" d="M37.78,11.13L19.39,1,1,11.13l18.39,10.13,18.39-10.13Z"/>
          <path class="cls-4" d="M1,11.13v20.27l18.39,10.13v-20.27L1,11.13Z"/>
        </g>
        <path class="cls-5" d="M37.78,11.13c.03,20.25,18.39,30.4,18.39,30.4l18.39,10.13M19.39,21.27c0,20.43,18.39,30.4,18.39,30.4l18.39,10.13"/>
      </g>
    </g>
  </g>
</svg>