<svg xmlns="http://www.w3.org/2000/svg" xmlns:xlink="http://www.w3.org/1999/xlink" xmlns:serif="http://www.serif.com/" viewBox="0 0 100 125" version="1.1" xml:space="preserve" style="" x="0px" y="0px" fill-rule="evenodd" clip-rule="evenodd" stroke-linejoin="round" stroke-miterlimit="2"><rect serif:id="62 - accessibility" x="0" y="0" width="100" height="100" style="" fill="none"/><path d="M50,5c-24.836,0 -45,20.164 -45,45c0,24.836 20.164,45 45,45c24.837,0 45,-20.164 45,-45c0,-24.836 -20.163,-45 -45,-45Zm-6.575,42.761c-0.777,8.925 -2.824,17.581 -6.015,25.997c-0.779,2.055 0.257,4.355 2.312,5.134c2.054,0.779 4.355,-0.256 5.134,-2.311c2.258,-5.958 3.985,-12.027 5.144,-18.215c1.16,6.188 2.887,12.257 5.145,18.215c0.779,2.055 3.08,3.09 5.134,2.311c2.055,-0.779 3.091,-3.079 2.312,-5.134c-3.189,-8.411 -5.236,-17.063 -6.014,-25.98c4.769,-0.234 9.54,-0.734 14.311,-1.509c2.169,-0.353 3.644,-2.4 3.292,-4.569c-0.353,-2.168 -2.4,-3.643 -4.569,-3.291c-13.081,2.126 -26.163,2.042 -39.245,-0.004c-2.171,-0.339 -4.209,1.148 -4.548,3.319c-0.34,2.171 1.147,4.209 3.318,4.548c4.763,0.745 9.525,1.245 14.289,1.489Zm6.575,-25.473c3.967,0 7.187,3.22 7.187,7.186c-0,3.966 -3.22,7.186 -7.187,7.186c-3.966,0 -7.186,-3.22 -7.186,-7.186c0,-3.966 3.22,-7.186 7.186,-7.186Z"/><text x="0" y="115" fill="#000000" font-size="5px" font-weight="bold" font-family="'Helvetica Neue', Helvetica, Arial-Unicode, Arial, Sans-serif">Created by Zach Bogart</text><text x="0" y="120" fill="#000000" font-size="5px" font-weight="bold" font-family="'Helvetica Neue', Helvetica, Arial-Unicode, Arial, Sans-serif">from the Noun Project</text></svg>