<?xml version="1.0" encoding="UTF-8"?>
<svg xmlns="http://www.w3.org/2000/svg" version="1.1" viewBox="0 0 1280 900">
  <!-- Generator: Adobe Illustrator 29.7.1, SVG Export Plug-In . SVG Version: 2.1.1 Build 8)  -->
  <defs>
    <style>
      .st0 {
        fill: #9e9e9e;
      }

      .st0, .st1, .st2 {
        stroke: #000;
        stroke-linejoin: round;
        stroke-width: 3.64px;
      }

      .st3 {
        fill: none;
        mix-blend-mode: multiply;
        stroke: #ff7002;
        stroke-dasharray: 4.09 4.09 4.09 4.09 4.09 4.09;
        stroke-width: 1.36px;
      }

      .st4 {
        isolation: isolate;
      }

      .st1 {
        fill: #cecccc;
      }

      .st2 {
        fill: #f9f9f9;
      }
    </style>
  </defs>
  <g class="st4">
    <g id="Capa_1">
      <path class="st2" d="M567.7,679.78l110.2-60.72s110.19,60.71,110.2,60.71l-110.2,60.72-110.2-60.71Z"/>
      <path class="st1" d="M677.91,619.06h0v-121.43s110.2,60.72,110.2,60.72v121.43l-110.2-60.72Z"/>
      <path class="st2" d="M677.9,619.06l55.1,30.36,165.3-91.08-165.29-91.07h0s-55.1,30.36-55.1,30.36l110.2,60.72-110.2,60.72Z"/>
      <path class="st1" d="M567.7,679.78v60.72h0l165.3,91.07v-182.15l-55.1-30.36v121.43l-110.2-60.72Z"/>
      <path class="st0" d="M733.01,831.57l165.3-91.08h0v-182.15l-165.3,91.07v182.15Z"/>
      <path class="st0" d="M622.81,345.83v121.43l-110.2,60.71v-121.43s110.2-60.72,110.2-60.72Z"/>
      <path class="st2" d="M402.41,406.55l55.1,30.36,55.1-30.36-55.1-30.36-55.1,30.36Z"/>
      <path class="st1" d="M457.51,315.48v60.72l55.1,30.36v-60.72l-55.1-30.36Z"/>
      <path class="st1" d="M457.68,375.67v60.72l-55.1-30.36v60.72l110.2,60.72v-121.43s-55.1-30.36-55.1-30.36Z"/>
      <path class="st2" d="M622.81,345.83l-110.2-60.72-55.1,30.36,55.1,30.36-55.1,30.36,55.1,30.36,110.2-60.72Z"/>
      <path class="st3" d="M567.98,685.6s-165.29-90.66-165.29-213.34"/>
      <path class="st3" d="M677.9,618.98s-165.29-90.66-165.29-213.34M622.81,345.83c0,121.44,165.18,212.5,165.18,212.5"/>
      <path class="st0" d="M347.32,315.48l55.1-30.36v-60.72l-55.1,30.36v60.72Z"/>
      <path class="st2" d="M402.42,224.4l-55.1-30.36-55.1,30.36,55.1,30.36,55.1-30.36Z"/>
      <path class="st3" d="M402.42,224.4c.08,60.67,55.09,91.07,55.09,91.07l55.1,30.36M347.32,254.76c0,61.22,55.09,91.07,55.09,91.07l55.1,30.36"/>
      <path class="st3" d="M292.22,289.51c0,61.22,55.09,91.07,55.09,91.07l55.1,30.36"/>
      <path class="st1" d="M292.22,224.4v60.72l55.1,30.36v-60.72l-55.1-30.36Z"/>
      <g>
        <path d="M419.85,229.77l-.31-17.71,5.89-3.28c.79-.44,1.5-.59,2.15-.47.65.12,1.17.49,1.57,1.1.4.61.61,1.42.63,2.44.02,1.01-.16,2.04-.53,3.08-.37,1.04-.87,1.99-1.5,2.84-.63.85-1.34,1.5-2.12,1.94l-3.66,2.03.12,6.78-2.23,1.24ZM421.91,219.11l3.61-2.01c.37-.21.71-.53,1.01-.96.3-.43.54-.91.72-1.45.18-.53.26-1.06.25-1.58s-.11-.94-.3-1.26c-.19-.32-.44-.52-.75-.6-.31-.09-.65-.02-1.02.18l-3.61,2.01.1,5.67Z"/>
        <path d="M433.5,205.79c-.45.25-.81.31-1.06.16-.25-.15-.38-.49-.39-1.01,0-.49.11-.96.36-1.4.25-.45.59-.79,1.03-1.04.45-.25.81-.3,1.06-.16.25.15.38.49.39,1.01,0,.49-.11.96-.36,1.4s-.59.79-1.03,1.04ZM432.76,222.59l-.23-13.28,2.13-1.18.24,13.28-2.13,1.18Z"/>
        <path d="M442.76,217.28c-1,.56-1.91.76-2.71.59-.8-.17-1.44-.64-1.92-1.43-.48-.79-.73-1.83-.75-3.13-.02-1.3.19-2.6.63-3.9.44-1.3,1.05-2.48,1.84-3.52.78-1.05,1.67-1.85,2.68-2.41.97-.54,1.85-.78,2.65-.74.8.04,1.41.36,1.84.96l-1.15,2.43c-.23-.27-.52-.46-.87-.59-.35-.13-.72-.18-1.11-.15-.39.03-.76.14-1.12.34-.66.37-1.25.89-1.76,1.58-.51.68-.91,1.46-1.2,2.32-.29.86-.43,1.72-.41,2.58.02.86.19,1.54.52,2.05.33.51.76.82,1.29.93.53.12,1.11,0,1.75-.36.37-.21.73-.48,1.08-.83.35-.35.69-.76,1.01-1.25.33-.49.63-1.03.91-1.63l1.21,1.12c-.43,1-1.05,1.98-1.86,2.92-.81.95-1.66,1.66-2.54,2.15Z"/>
        <path d="M448.1,203.19l-.04-2.53,6.9-3.84.04,2.53-6.9,3.84ZM450.54,212.69l-.29-16.68,2.13-1.18.3,16.68-2.13,1.18Z"/>
        <path d="M461.91,206.63c-1.06.59-2.01.82-2.86.68s-1.52-.59-2.02-1.36c-.5-.77-.76-1.82-.79-3.15-.02-1.33.2-2.65.66-3.96.46-1.31,1.11-2.49,1.93-3.55s1.76-1.89,2.82-2.48c1.05-.58,1.99-.81,2.84-.67.84.14,1.52.59,2.02,1.36.5.77.76,1.82.79,3.15.02,1.33-.2,2.65-.66,3.96-.46,1.3-1.11,2.49-1.93,3.55-.82,1.06-1.76,1.89-2.8,2.47ZM461.87,204.25c.65-.36,1.22-.88,1.72-1.56.5-.68.89-1.44,1.17-2.28.28-.84.4-1.69.37-2.55,0-.89-.15-1.59-.46-2.11-.3-.52-.71-.83-1.23-.94-.52-.1-1.1.02-1.74.38s-1.23.88-1.74,1.57c-.51.68-.9,1.45-1.18,2.29-.28.84-.4,1.69-.37,2.55,0,.87.15,1.56.45,2.09.3.52.71.84,1.24.95.52.11,1.11-.02,1.76-.38Z"/>
        <path d="M474.69,205.14c-.77.43-1.54.71-2.31.84-.77.13-1.39.09-1.87-.12l.75-2.46c.28.1.61.14.98.13.38-.01.77-.08,1.19-.2.42-.12.82-.29,1.22-.51.76-.42,1.39-.93,1.89-1.51.5-.59.88-1.25,1.13-1.99.25-.73.37-1.54.35-2.42l-.05-2.56.23.05c-.06.56-.28,1.19-.65,1.88-.37.69-.84,1.35-1.39,1.96-.56.62-1.14,1.09-1.73,1.42-1.03.57-1.96.79-2.77.64-.82-.15-1.47-.61-1.95-1.39-.49-.78-.74-1.83-.77-3.16-.02-1.33.19-2.65.63-3.94.44-1.29,1.06-2.46,1.86-3.51.8-1.05,1.7-1.85,2.7-2.41.41-.23.81-.39,1.2-.48.39-.09.75-.11,1.08-.07s.63.13.9.25c.27.12.48.29.65.5.17.21.28.44.32.69l-.45.46-.05-3.11,2.13-1.18.22,12.47c.02,1.06-.09,2.07-.33,3.03-.24.96-.6,1.86-1.07,2.69-.47.83-1.05,1.59-1.73,2.27-.68.68-1.46,1.26-2.33,1.74ZM474.63,197.12c.67-.38,1.27-.9,1.79-1.58.52-.68.91-1.44,1.19-2.27.28-.84.41-1.69.39-2.57-.01-.88-.18-1.58-.48-2.1-.31-.52-.72-.83-1.25-.93s-1.12.04-1.8.41c-.66.37-1.25.89-1.76,1.58-.51.68-.91,1.45-1.19,2.3-.28.85-.42,1.7-.4,2.56.02.86.18,1.55.48,2.07.31.52.72.83,1.25.93.52.1,1.12-.03,1.78-.4Z"/>
        <path d="M483.14,194.56l-.23-13.28,2.15-1.2.07,4.17-.23-.9c.14-.73.39-1.45.74-2.18.36-.73.77-1.37,1.24-1.94.47-.57.96-1,1.47-1.28.23-.13.46-.23.67-.3.21-.07.38-.1.51-.1l-.51,3.14c-.17,0-.35.04-.55.09-.2.05-.4.13-.59.24-.37.21-.72.49-1.06.86-.33.36-.63.77-.88,1.23-.25.45-.45.93-.59,1.43-.15.5-.21.99-.2,1.48l.13,7.34-2.15,1.2Z"/>
        <path d="M495.19,188.11c-.9.5-1.72.65-2.46.45-.75-.2-1.35-.7-1.81-1.5-.46-.8-.7-1.86-.72-3.17-.02-1.33.18-2.64.61-3.93.43-1.29,1.02-2.44,1.78-3.45.75-1.02,1.61-1.79,2.55-2.32.56-.31,1.08-.5,1.56-.56s.89,0,1.25.16c.36.17.65.42.89.77.24.35.39.77.45,1.28l-.48.06-.06-3.44,2.15-1.2.23,13.28-2.15,1.2-.06-3.16.49-.45c-.07.5-.24,1.04-.48,1.61-.25.57-.56,1.14-.95,1.69-.39.56-.82,1.07-1.29,1.53s-.97.85-1.49,1.14ZM495.7,185.4c.65-.36,1.21-.87,1.7-1.54.49-.66.87-1.41,1.14-2.25.27-.84.4-1.7.38-2.58-.02-.86-.17-1.55-.46-2.07s-.69-.83-1.19-.95c-.5-.11-1.08.01-1.73.37-.63.35-1.19.86-1.67,1.52-.48.66-.86,1.41-1.13,2.24-.27.83-.4,1.68-.38,2.54.02.88.17,1.58.46,2.11.29.52.69.85,1.19.96.5.12,1.06,0,1.69-.36Z"/>
        <path d="M504.18,188.47l-.33-18.85,2.15-1.2.05,3.04-.34-.04c.07-.55.3-1.17.68-1.84.38-.68.84-1.32,1.39-1.93.55-.6,1.13-1.07,1.72-1.4.98-.54,1.85-.73,2.62-.56.77.17,1.38.65,1.84,1.43.46.78.7,1.84.72,3.18.02,1.32-.17,2.61-.59,3.89-.42,1.28-1,2.43-1.74,3.45-.75,1.02-1.6,1.79-2.55,2.32-.63.35-1.25.54-1.85.55s-1.11-.1-1.53-.36c-.42-.26-.68-.62-.79-1.09l.53-.65.16,8.88-2.15,1.2ZM509.42,177.74c.63-.35,1.2-.86,1.68-1.52s.87-1.41,1.15-2.25c.28-.84.41-1.68.39-2.55-.01-.86-.17-1.55-.46-2.06-.29-.51-.69-.82-1.2-.93s-1.08.01-1.72.37c-.65.36-1.22.87-1.7,1.52-.49.66-.87,1.4-1.15,2.24-.28.83-.41,1.68-.39,2.54.02.86.17,1.55.47,2.06.3.51.7.83,1.21.94.5.11,1.08-.01,1.72-.37Z"/>
        <path d="M517.12,175.66l-.33-18.73,2.13-1.18.14,8.17-.37.51c.13-.67.39-1.36.78-2.08.39-.72.86-1.39,1.4-2.01.54-.62,1.11-1.09,1.69-1.41.83-.46,1.52-.64,2.08-.55.56.09.98.46,1.27,1.12.29.66.45,1.6.47,2.83l.14,8.1-2.13,1.18-.14-7.92c-.01-.76-.11-1.34-.28-1.75-.17-.41-.43-.63-.78-.66-.35-.04-.78.1-1.29.42-.41.23-.79.52-1.13.87-.34.35-.64.74-.89,1.17-.25.43-.44.87-.58,1.33-.14.46-.2.91-.19,1.35l.14,8.05-1.05.59c-.18.1-.36.2-.54.3-.18.1-.36.2-.54.3Z"/>
        <path d="M530.51,151.83c-.45.25-.81.31-1.06.16-.25-.15-.38-.48-.39-1.01,0-.49.11-.96.36-1.4.25-.44.59-.79,1.03-1.04.46-.25.81-.3,1.06-.16.25.15.38.49.39,1.01,0,.49-.11.96-.36,1.4s-.59.79-1.03,1.04ZM529.76,168.62l-.24-13.28,2.13-1.18.23,13.28-2.13,1.18Z"/>
        <path d="M539.76,163.31c-1.01.56-1.91.76-2.71.59-.8-.17-1.45-.64-1.92-1.43-.48-.79-.73-1.83-.75-3.13-.02-1.3.19-2.6.63-3.9.44-1.3,1.06-2.48,1.84-3.53.78-1.05,1.67-1.85,2.68-2.41.96-.54,1.85-.78,2.65-.74.8.04,1.41.36,1.84.96l-1.15,2.43c-.23-.27-.52-.46-.87-.59-.35-.13-.72-.18-1.11-.15s-.76.14-1.12.34c-.66.37-1.25.89-1.76,1.58-.51.68-.91,1.46-1.2,2.32s-.43,1.72-.41,2.58c.01.86.19,1.54.52,2.05.33.51.76.82,1.29.93.53.12,1.11,0,1.74-.36.37-.21.73-.48,1.08-.83.35-.35.68-.76,1.01-1.25s.63-1.03.91-1.63l1.21,1.12c-.43,1-1.05,1.98-1.86,2.92-.81.95-1.66,1.66-2.54,2.15Z"/>
        <path d="M552.03,156.24l-.33-18.73,2.13-1.18.33,18.73-2.13,1.18Z"/>
        <path d="M561.14,151.42c-.9.5-1.72.65-2.46.45-.75-.2-1.35-.7-1.81-1.5-.46-.8-.7-1.86-.72-3.17-.02-1.33.18-2.64.61-3.93.43-1.29,1.02-2.44,1.78-3.45.75-1.02,1.61-1.79,2.55-2.32.56-.31,1.08-.5,1.56-.56.47-.06.89,0,1.24.16.36.17.65.42.89.77.24.35.38.77.45,1.28l-.48.06-.06-3.44,2.15-1.2.23,13.28-2.15,1.2-.06-3.16.49-.45c-.07.5-.23,1.04-.48,1.61-.25.57-.56,1.14-.95,1.69-.39.56-.82,1.07-1.29,1.53-.47.47-.97.85-1.49,1.14ZM561.66,148.71c.65-.36,1.21-.87,1.7-1.54.49-.66.87-1.41,1.14-2.25.27-.84.4-1.7.38-2.58-.02-.86-.17-1.55-.46-2.07-.29-.52-.69-.83-1.19-.95-.5-.11-1.08.01-1.73.37-.63.35-1.19.86-1.67,1.52-.48.66-.86,1.41-1.13,2.24-.27.83-.4,1.68-.38,2.54.02.88.17,1.58.47,2.11.29.52.69.84,1.19.96s1.06,0,1.69-.36Z"/>
        <path d="M570.04,146.22l-.24-13.28,2.13-1.18.05,2.73-.37.51c.13-.67.39-1.36.78-2.08.39-.72.86-1.39,1.41-2.01.54-.62,1.11-1.09,1.68-1.41.83-.46,1.52-.64,2.08-.55.56.09.98.46,1.27,1.12.29.66.44,1.6.47,2.83l.14,8.1-2.13,1.18-.14-7.92c-.01-.76-.11-1.34-.28-1.75-.17-.4-.44-.63-.78-.66-.35-.04-.78.11-1.29.42-.41.23-.79.52-1.13.87-.34.35-.64.74-.89,1.17-.25.43-.44.87-.58,1.33s-.2.91-.2,1.35l.14,8.05-1.05.59c-.18.1-.36.2-.54.3-.18.1-.36.2-.54.3Z"/>
        <path d="M587.29,142.5c-.77.43-1.54.71-2.31.84-.77.13-1.39.09-1.87-.12l.75-2.46c.28.1.61.14.98.13.37-.01.77-.08,1.18-.2.42-.12.82-.29,1.22-.51.76-.42,1.39-.92,1.89-1.51.5-.59.88-1.25,1.13-1.99.25-.74.37-1.54.35-2.42l-.05-2.56.23.05c-.06.56-.27,1.19-.64,1.88-.37.69-.84,1.35-1.39,1.96-.56.62-1.13,1.09-1.73,1.42-1.03.57-1.96.79-2.77.64-.82-.15-1.47-.61-1.96-1.39-.48-.78-.74-1.83-.76-3.16-.02-1.33.19-2.65.63-3.94.44-1.3,1.06-2.47,1.86-3.51.8-1.05,1.69-1.85,2.7-2.41.41-.23.81-.39,1.2-.48.39-.09.75-.11,1.08-.07.34.04.64.13.9.25.27.12.48.29.66.5s.28.44.32.69l-.45.46-.05-3.11,2.13-1.18.22,12.47c.02,1.06-.09,2.07-.33,3.03-.24.96-.6,1.86-1.07,2.69-.47.83-1.05,1.59-1.73,2.27-.68.68-1.46,1.26-2.33,1.74ZM587.23,134.48c.67-.38,1.27-.9,1.79-1.58.52-.68.91-1.44,1.19-2.27.28-.84.41-1.69.39-2.57-.01-.88-.18-1.58-.48-2.1-.31-.52-.72-.83-1.25-.93-.52-.1-1.12.04-1.8.41-.66.37-1.25.89-1.76,1.58-.51.68-.91,1.45-1.19,2.3s-.42,1.7-.4,2.56c.02.86.18,1.55.48,2.07.31.52.72.83,1.25.93.52.1,1.11-.03,1.78-.4Z"/>
        <path d="M599.38,130.15c-.77.43-1.45.58-2.03.46-.58-.12-1.03-.49-1.35-1.11-.32-.62-.5-1.48-.52-2.57l-.15-8.2,2.13-1.18.13,7.49c.01.78.13,1.39.34,1.84.21.45.51.73.89.82.38.09.84-.01,1.38-.31.4-.22.76-.51,1.09-.85.33-.34.61-.73.85-1.15.24-.42.42-.87.55-1.35.13-.48.19-.96.18-1.43l-.14-8,2.13-1.18.24,13.28-2.13,1.18-.05-2.78.37-.51c-.15.72-.42,1.44-.81,2.16-.38.72-.84,1.38-1.37,1.98-.53.59-1.11,1.06-1.73,1.41Z"/>
        <path d="M612.25,122.99c-.9.5-1.72.65-2.46.45-.75-.2-1.35-.7-1.81-1.5-.46-.8-.7-1.86-.72-3.17-.02-1.33.18-2.64.61-3.93.43-1.29,1.02-2.44,1.77-3.45.75-1.02,1.61-1.79,2.56-2.32.56-.31,1.08-.5,1.55-.56s.89,0,1.25.16c.36.17.65.42.89.77.23.35.38.77.45,1.28l-.48.06-.06-3.44,2.15-1.2.23,13.28-2.15,1.2-.06-3.16.49-.45c-.07.5-.24,1.04-.48,1.61-.25.57-.56,1.14-.95,1.69-.39.56-.82,1.07-1.29,1.53-.47.47-.97.85-1.49,1.14ZM612.76,120.27c.65-.36,1.21-.87,1.7-1.54.49-.66.87-1.41,1.14-2.25.27-.84.4-1.7.38-2.58-.01-.86-.17-1.55-.46-2.07-.29-.52-.69-.83-1.19-.95-.5-.11-1.08.01-1.73.37-.63.35-1.19.86-1.67,1.52-.48.66-.86,1.41-1.13,2.24-.27.83-.4,1.68-.38,2.54.02.88.17,1.58.46,2.11.29.52.69.84,1.19.96s1.06,0,1.69-.35Z"/>
        <path d="M626.1,120.9c-.77.43-1.54.71-2.31.84s-1.39.09-1.87-.12l.75-2.46c.28.1.61.14.98.13.38-.01.77-.08,1.19-.2.42-.12.82-.29,1.22-.51.76-.42,1.39-.92,1.89-1.51.5-.59.88-1.25,1.13-1.99.25-.74.37-1.54.35-2.42l-.05-2.56.23.05c-.06.56-.28,1.19-.65,1.88-.37.69-.84,1.35-1.39,1.96-.56.62-1.13,1.09-1.73,1.42-1.03.57-1.96.79-2.77.64-.82-.15-1.47-.62-1.95-1.39-.49-.78-.74-1.83-.77-3.16-.02-1.33.19-2.65.63-3.94.44-1.29,1.06-2.46,1.86-3.51.8-1.05,1.7-1.85,2.7-2.41.41-.23.81-.39,1.2-.48.39-.09.75-.11,1.08-.07.34.04.64.13.9.25.27.12.48.29.65.5.17.21.28.44.32.69l-.45.46-.05-3.11,2.13-1.18.22,12.47c.02,1.06-.09,2.07-.33,3.03-.24.96-.6,1.86-1.07,2.69-.47.83-1.05,1.59-1.73,2.27-.68.68-1.46,1.26-2.33,1.74ZM626.04,112.89c.67-.38,1.27-.9,1.79-1.58s.91-1.44,1.19-2.27.41-1.69.39-2.57c-.01-.88-.18-1.58-.48-2.1-.31-.52-.72-.83-1.25-.93-.52-.1-1.12.04-1.8.41-.66.37-1.25.89-1.76,1.58-.51.68-.91,1.45-1.19,2.3-.28.85-.42,1.7-.4,2.56.02.86.18,1.55.48,2.07.31.52.72.83,1.25.93.52.1,1.12-.03,1.78-.4Z"/>
        <path d="M639.62,107.76c-1.11.62-2.11.88-2.98.78-.87-.1-1.56-.53-2.07-1.27-.51-.74-.77-1.77-.8-3.08-.02-1.05.1-2.08.36-3.09.26-1.01.63-1.97,1.11-2.88.48-.9,1.05-1.72,1.73-2.44.68-.73,1.41-1.31,2.21-1.75.7-.39,1.36-.59,1.97-.6.61,0,1.15.15,1.6.47.46.32.81.81,1.07,1.46.25.65.38,1.45.39,2.38v1.13s-8.86,4.93-8.86,4.93l-.51-1.81,7.5-4.17-.3.6v-.61c-.06-.53-.22-.95-.49-1.24-.27-.29-.61-.46-1.01-.49-.4-.03-.84.08-1.31.34-.74.41-1.37.94-1.87,1.57s-.88,1.35-1.13,2.16c-.25.81-.37,1.71-.35,2.69.02.93.19,1.65.52,2.15.33.51.79.79,1.37.83.58.05,1.26-.14,2.01-.56.54-.3,1.03-.69,1.49-1.16.46-.47.95-1.15,1.48-2.02l1.11,1.25c-.32.59-.72,1.17-1.19,1.74-.47.57-.97,1.09-1.5,1.56-.53.47-1.04.85-1.56,1.13Z"/>
      </g>
      <g>
        <path d="M650.49,348.5c-1.05.58-2.03.89-2.95.94-.92.04-1.73-.16-2.43-.6-.7-.44-1.25-1.11-1.65-2.01-.4-.89-.61-1.98-.63-3.27-.02-1.26.15-2.55.5-3.86.36-1.31.87-2.56,1.54-3.76.67-1.2,1.45-2.28,2.35-3.24.9-.96,1.87-1.73,2.92-2.32.73-.41,1.45-.68,2.15-.81.7-.13,1.34-.13,1.91.01.57.14,1.04.41,1.41.8l-1.41,2.65c-.42-.26-.85-.43-1.29-.51-.44-.08-.89-.08-1.35,0-.46.08-.91.25-1.37.51-.74.41-1.43.95-2.05,1.62-.62.67-1.16,1.42-1.63,2.26-.46.84-.82,1.71-1.07,2.63-.25.91-.36,1.83-.35,2.74.02.88.17,1.63.46,2.26.29.63.68,1.11,1.18,1.42.5.32,1.07.47,1.72.45.65-.02,1.33-.23,2.04-.63.54-.3,1.05-.68,1.52-1.14.48-.46.9-.97,1.27-1.53.37-.56.65-1.13.85-1.71.2-.58.29-1.13.28-1.65v-.51s.31.18.31.18l-4.42,2.46-.05-2.71,6.4-3.56c.03.17.05.34.07.51s.03.33.04.49c0,.16.02.31.02.46.02,1.16-.13,2.32-.44,3.45-.31,1.14-.76,2.21-1.33,3.23-.58,1.02-1.25,1.93-2.02,2.74-.77.81-1.61,1.47-2.52,1.98Z"/>
        <path d="M664.37,340.78c-1.12.62-2.11.88-2.98.78-.87-.1-1.56-.53-2.07-1.27-.51-.74-.77-1.77-.8-3.08-.02-1.05.1-2.08.36-3.09.26-1.01.63-1.97,1.11-2.88.48-.9,1.05-1.72,1.73-2.44.68-.73,1.41-1.31,2.21-1.75.7-.39,1.36-.59,1.97-.6.61,0,1.15.15,1.6.47.46.32.81.81,1.07,1.46.25.65.38,1.44.39,2.38v1.13s-8.86,4.93-8.86,4.93l-.51-1.81,7.5-4.17-.3.6v-.61c-.06-.53-.22-.95-.49-1.24-.27-.29-.61-.46-1.01-.49-.4-.03-.84.08-1.31.34-.74.41-1.37.94-1.87,1.56-.5.63-.88,1.35-1.13,2.16-.25.81-.37,1.71-.35,2.69.02.93.19,1.65.52,2.15.33.51.79.78,1.37.83.58.05,1.26-.14,2.01-.56.54-.3,1.03-.69,1.49-1.16.46-.47.95-1.15,1.48-2.02l1.11,1.25c-.32.59-.72,1.17-1.19,1.74-.47.57-.97,1.09-1.49,1.56-.53.47-1.05.85-1.56,1.13Z"/>
        <path d="M671.41,336.61l-.23-13.28,2.13-1.18.05,2.73-.37.51c.13-.67.38-1.36.78-2.08.39-.72.86-1.39,1.4-2.01.54-.62,1.11-1.09,1.69-1.41.83-.46,1.52-.64,2.08-.55.56.09.98.46,1.27,1.12.29.66.44,1.6.47,2.83l.14,8.1-2.13,1.18-.14-7.92c-.01-.76-.11-1.34-.28-1.75-.17-.4-.43-.63-.78-.66-.35-.04-.78.1-1.29.42-.41.23-.79.52-1.13.87-.34.35-.64.74-.89,1.17-.25.43-.44.87-.58,1.33-.14.46-.2.91-.2,1.35l.14,8.05-1.05.59c-.18.1-.36.2-.54.3-.18.1-.36.2-.54.3Z"/>
        <path d="M688.77,327.21c-1.11.62-2.11.88-2.98.78-.87-.1-1.56-.53-2.07-1.27-.51-.74-.77-1.77-.8-3.08-.02-1.05.1-2.08.36-3.09s.63-1.97,1.11-2.88c.48-.9,1.05-1.72,1.73-2.44.68-.73,1.41-1.31,2.21-1.75.7-.39,1.36-.59,1.97-.6.61,0,1.15.15,1.6.47.46.32.81.81,1.07,1.46.25.65.38,1.44.39,2.38v1.13s-8.86,4.93-8.86,4.93l-.51-1.81,7.5-4.17-.3.6v-.61c-.06-.53-.22-.95-.49-1.24-.27-.29-.61-.46-1.01-.49s-.84.08-1.31.34c-.74.41-1.37.94-1.87,1.56-.5.63-.88,1.35-1.13,2.16-.25.81-.37,1.71-.35,2.69.02.93.19,1.65.52,2.15.33.51.78.78,1.37.83.58.05,1.26-.14,2.01-.56.54-.3,1.03-.69,1.49-1.16.46-.47.95-1.15,1.48-2.02l1.11,1.25c-.32.59-.72,1.17-1.19,1.74-.47.57-.97,1.09-1.49,1.56-.53.47-1.05.85-1.56,1.13Z"/>
        <path d="M695.81,323.03l-.24-13.28,2.15-1.2.07,4.17-.22-.9c.14-.73.39-1.45.74-2.18.36-.73.77-1.37,1.24-1.94.47-.57.96-1,1.47-1.28.23-.13.46-.23.67-.3.21-.07.38-.1.51-.11l-.51,3.14c-.17,0-.35.04-.55.09-.2.05-.4.13-.59.24-.37.21-.72.49-1.06.86-.33.36-.63.77-.88,1.23s-.45.93-.59,1.43c-.15.5-.21.99-.2,1.48l.13,7.34-2.15,1.2Z"/>
        <path d="M707.85,316.59c-.9.5-1.72.65-2.46.45-.75-.2-1.35-.7-1.81-1.5-.46-.8-.7-1.86-.72-3.17-.02-1.33.18-2.64.61-3.93.43-1.29,1.02-2.44,1.78-3.45.75-1.02,1.61-1.79,2.56-2.32.56-.31,1.08-.5,1.56-.56.47-.06.89,0,1.24.16.36.17.65.42.89.77s.39.77.45,1.28l-.48.06-.06-3.44,2.15-1.2.23,13.28-2.15,1.2-.06-3.16.49-.45c-.07.5-.24,1.04-.48,1.61-.25.57-.56,1.14-.95,1.69s-.82,1.07-1.29,1.53c-.47.47-.97.85-1.49,1.14ZM708.37,313.87c.65-.36,1.22-.87,1.7-1.54.49-.66.87-1.42,1.14-2.25.27-.84.4-1.7.38-2.58-.02-.86-.17-1.55-.46-2.07-.3-.52-.69-.83-1.19-.95-.5-.11-1.08.01-1.73.37-.63.35-1.19.86-1.67,1.52-.48.66-.86,1.41-1.13,2.24s-.4,1.68-.38,2.54c.02.88.17,1.58.46,2.11.29.52.69.85,1.19.96.5.12,1.06,0,1.69-.36Z"/>
        <path d="M715.65,301.13l-.05-2.53,6.9-3.84.05,2.53-6.9,3.84ZM718.1,310.64l-.3-16.68,2.13-1.18.29,16.68-2.13,1.18Z"/>
        <path d="M725.78,289.98c-.46.25-.81.31-1.06.16-.25-.15-.38-.49-.39-1.01,0-.49.11-.96.36-1.4.25-.45.59-.79,1.03-1.04.45-.25.81-.3,1.06-.16.25.15.38.49.39,1.01,0,.49-.11.96-.36,1.4-.25.45-.6.79-1.03,1.04ZM725.04,306.77l-.23-13.28,2.13-1.18.24,13.28-2.13,1.18Z"/>
        <path d="M733.98,301.8l-4.82-10.73,2.29-1.28,3.48,8.1-.39.45,3.35-12.14,2.19-1.22-4.58,15.96-1.53.85Z"/>
        <path d="M747.02,294.8c-1.11.62-2.11.88-2.98.78-.87-.1-1.56-.53-2.07-1.27-.51-.74-.77-1.77-.8-3.08-.02-1.05.1-2.08.36-3.09.26-1.01.63-1.97,1.11-2.88.48-.9,1.05-1.72,1.73-2.44.68-.73,1.41-1.31,2.21-1.75.7-.39,1.36-.59,1.97-.6.61,0,1.15.15,1.6.47.46.32.81.81,1.07,1.46.25.65.38,1.45.39,2.38v1.13s-8.86,4.93-8.86,4.93l-.51-1.81,7.5-4.17-.3.6v-.61c-.06-.53-.22-.95-.49-1.24s-.61-.46-1.01-.49c-.4-.03-.84.08-1.31.34-.74.41-1.37.94-1.87,1.56-.5.63-.88,1.35-1.13,2.16-.25.81-.37,1.71-.35,2.69.02.93.19,1.65.52,2.15.33.51.78.78,1.37.83.58.05,1.26-.14,2.01-.56.54-.3,1.03-.69,1.49-1.16.46-.47.95-1.15,1.48-2.02l1.11,1.25c-.32.59-.72,1.17-1.19,1.74-.47.57-.97,1.09-1.49,1.56-.53.47-1.05.85-1.56,1.13Z"/>
        <path d="M763.46,285.65c-.91.51-1.73.77-2.47.79-.74.02-1.35-.22-1.85-.71l1.42-2.32c.42.36.88.54,1.38.53s1.05-.19,1.67-.53c.25-.14.48-.3.69-.5.21-.19.39-.41.55-.65.16-.24.27-.49.35-.74.08-.26.12-.51.11-.77,0-.44-.15-.72-.41-.84-.14-.04-.36-.05-.66-.03-.3.02-.68.09-1.15.2-.8.19-1.46.27-1.98.23-.52-.04-.91-.18-1.2-.43-.21-.2-.37-.47-.47-.8-.1-.33-.16-.72-.17-1.17,0-.56.08-1.12.27-1.7.19-.57.46-1.13.8-1.67.34-.54.75-1.04,1.23-1.49.47-.45.98-.83,1.51-1.12.51-.28,1.02-.48,1.52-.59.5-.11.97-.12,1.41-.04.43.08.8.26,1.09.54l-1.19,2.32c-.27-.17-.56-.3-.87-.37-.31-.07-.63-.09-.95-.05-.32.04-.61.14-.87.28-.29.16-.55.34-.78.54-.23.2-.43.41-.58.63-.16.22-.27.46-.35.71-.08.25-.12.5-.11.75.02.21.07.39.15.54.08.15.19.26.33.32.15.05.38.07.69.05.3-.02.69-.09,1.17-.21.69-.16,1.26-.24,1.72-.23.45.01.81.11,1.08.31.28.17.48.43.6.79.12.36.18.8.19,1.32.01.76-.15,1.54-.49,2.33-.34.79-.8,1.53-1.39,2.19s-1.24,1.2-1.97,1.61Z"/>
        <path d="M771.66,286.72l2.08-7.42.06,2.06-5.68-11.97,2.48-1.38,3.56,7.88c.07.13.16.34.26.63.1.29.19.59.27.89l-.53.45c.1-.42.21-.83.3-1.24.1-.41.19-.82.28-1.23l2.66-11.16,2.52-1.4-4.23,15.77-1.73,6.84-2.29,1.28Z"/>
        <path d="M785.15,273.59c-.91.51-1.73.77-2.47.79-.74.02-1.35-.22-1.85-.71l1.42-2.32c.42.36.88.54,1.38.53.49-.01,1.05-.19,1.67-.53.25-.14.48-.3.69-.5s.4-.41.55-.65c.15-.24.27-.49.35-.74.08-.26.12-.51.11-.77,0-.44-.15-.72-.41-.84-.14-.04-.36-.05-.66-.03-.3.02-.68.09-1.15.19-.8.19-1.46.27-1.98.23-.52-.04-.91-.18-1.2-.43-.21-.2-.37-.47-.47-.8-.1-.33-.16-.72-.17-1.17,0-.56.08-1.12.27-1.7.19-.58.46-1.13.8-1.67.34-.54.75-1.04,1.23-1.49s.98-.83,1.51-1.12c.51-.28,1.02-.48,1.52-.59.5-.11.97-.12,1.41-.04.43.08.8.26,1.09.54l-1.19,2.32c-.27-.17-.56-.3-.87-.37-.31-.07-.63-.09-.95-.05-.32.04-.61.14-.87.28-.29.16-.55.34-.78.54-.23.2-.43.41-.58.63-.16.22-.27.46-.35.71-.08.25-.12.5-.11.75.02.21.07.39.15.55.08.15.19.26.33.32.15.05.38.07.69.05.3-.02.69-.09,1.16-.21.69-.17,1.27-.24,1.72-.23.45.01.81.11,1.08.31.28.17.48.43.6.79.12.36.18.8.19,1.32.01.76-.15,1.54-.49,2.33s-.8,1.52-1.39,2.19c-.59.67-1.24,1.2-1.97,1.61Z"/>
        <path d="M790.33,259.59l-.05-2.53,6.9-3.84.05,2.53-6.9,3.84ZM792.77,269.09l-.3-16.68,2.13-1.18.3,16.68-2.13,1.18Z"/>
        <path d="M804.32,262.92c-1.11.62-2.11.88-2.98.78-.87-.1-1.56-.52-2.07-1.27-.51-.74-.77-1.77-.8-3.08-.02-1.05.1-2.08.36-3.09.26-1.01.63-1.97,1.11-2.88.48-.9,1.05-1.72,1.73-2.44.68-.73,1.41-1.31,2.21-1.75.7-.39,1.36-.59,1.97-.6.61,0,1.15.15,1.6.47.46.32.81.81,1.07,1.46.25.65.38,1.44.38,2.38v1.13s-8.86,4.93-8.86,4.93l-.51-1.81,7.5-4.17-.3.6v-.61c-.06-.53-.22-.95-.49-1.24-.27-.29-.6-.46-1.01-.49-.4-.03-.84.08-1.31.34-.74.41-1.37.93-1.87,1.56-.5.63-.88,1.35-1.13,2.16-.25.81-.37,1.71-.35,2.69.02.93.19,1.65.52,2.15.33.51.78.78,1.37.83.58.05,1.26-.14,2.01-.56.54-.3,1.03-.69,1.49-1.16.46-.47.95-1.15,1.48-2.02l1.11,1.25c-.32.59-.72,1.17-1.19,1.74-.47.57-.97,1.09-1.49,1.56-.53.47-1.05.85-1.56,1.13Z"/>
        <path d="M811.32,258.77l-.24-13.28,2.15-1.2.05,2.83-.39.52c.1-.5.27-1.02.5-1.56.23-.54.52-1.06.87-1.57.35-.51.72-.97,1.12-1.38.4-.41.82-.74,1.24-.97.62-.35,1.17-.52,1.64-.53s.87.16,1.18.5c.31.34.54.85.7,1.53l-.33.08.14-.51c.14-.47.35-.96.61-1.45.26-.49.56-.97.9-1.43.34-.46.7-.88,1.08-1.24.38-.37.76-.65,1.13-.86.81-.45,1.49-.62,2.03-.51.54.11.95.5,1.23,1.18s.44,1.63.46,2.86l.14,7.97-2.15,1.2-.14-7.82c-.01-.76-.1-1.34-.27-1.73-.17-.39-.41-.62-.73-.68-.32-.06-.73.05-1.23.32-.38.22-.75.5-1.08.84-.33.35-.62.73-.87,1.16-.24.42-.43.87-.56,1.32-.13.46-.19.91-.19,1.37l.14,7.95-2.15,1.19-.14-7.87c-.01-.69-.11-1.23-.28-1.62-.17-.39-.42-.62-.74-.7-.32-.08-.71.01-1.16.26-.39.21-.74.49-1.07.84-.33.35-.61.72-.86,1.14-.24.42-.43.85-.56,1.31-.13.46-.19.9-.18,1.34l.14,8-2.15,1.2Z"/>
      </g>
      <g>
        <path d="M922.51,564.31c-.78.44-1.51.72-2.18.83-.67.12-1.29.07-1.84-.14-.55-.21-1.05-.58-1.49-1.1l1.49-3c.7.81,1.36,1.26,1.98,1.37.63.11,1.37-.07,2.22-.55.52-.29,1-.66,1.42-1.1.42-.44.76-.91,1-1.4.24-.49.36-.97.35-1.42,0-.3-.05-.57-.14-.79-.09-.22-.22-.4-.4-.52-.18-.12-.4-.2-.67-.24-.27-.03-.59-.03-.95.03-.36.05-.78.16-1.25.32-.75.23-1.4.34-1.95.34-.56,0-1.02-.12-1.41-.37-.38-.25-.66-.61-.85-1.1-.19-.48-.29-1.09-.3-1.81-.01-.71.1-1.44.35-2.19.24-.75.59-1.47,1.03-2.17.44-.7.96-1.33,1.56-1.92s1.25-1.07,1.96-1.46c.74-.41,1.43-.67,2.05-.78s1.18-.07,1.67.13c.49.2.9.54,1.23,1.04l-1.54,2.77c-.29-.4-.6-.7-.95-.89-.35-.19-.74-.26-1.15-.23-.42.04-.86.18-1.33.44-.54.3-1,.66-1.4,1.08-.4.42-.7.88-.92,1.37-.22.49-.33.98-.32,1.47,0,.35.07.65.18.88s.29.4.52.5c.23.1.54.13.93.1.39-.04.85-.14,1.39-.3.76-.22,1.44-.34,2.04-.35.6-.02,1.11.07,1.53.26.42.19.74.49.96.89.22.4.34.91.35,1.52.02,1.13-.18,2.23-.59,3.29-.41,1.07-1.01,2.04-1.78,2.92-.78.88-1.71,1.63-2.8,2.23Z"/>
        <path d="M935.28,557.21c-1.06.59-2.01.82-2.86.68-.84-.14-1.52-.59-2.02-1.36-.5-.77-.76-1.82-.79-3.15-.02-1.33.2-2.65.66-3.96.46-1.3,1.11-2.49,1.93-3.55.82-1.06,1.76-1.89,2.82-2.48,1.05-.58,1.99-.81,2.84-.67.84.14,1.52.59,2.02,1.36.5.77.76,1.82.79,3.15s-.2,2.65-.66,3.96c-.46,1.3-1.11,2.49-1.93,3.55-.82,1.06-1.76,1.89-2.8,2.47ZM935.24,554.83c.65-.36,1.22-.88,1.72-1.56.5-.68.89-1.44,1.17-2.28.28-.84.4-1.69.37-2.55,0-.89-.15-1.59-.45-2.11-.3-.52-.71-.83-1.23-.94-.52-.1-1.1.03-1.74.39-.65.36-1.23.88-1.74,1.56-.51.68-.9,1.45-1.18,2.29-.28.84-.4,1.69-.37,2.55,0,.87.15,1.56.45,2.09.3.52.71.84,1.24.95.52.11,1.11-.02,1.76-.38Z"/>
        <path d="M947.71,550.29c-1.01.56-1.91.76-2.71.59-.8-.16-1.45-.64-1.93-1.43-.48-.79-.73-1.83-.75-3.13-.02-1.3.19-2.6.63-3.9.44-1.3,1.05-2.48,1.84-3.53.78-1.05,1.67-1.85,2.68-2.41.96-.54,1.85-.78,2.65-.74.8.04,1.41.36,1.84.96l-1.15,2.43c-.23-.26-.52-.46-.87-.59-.35-.13-.72-.18-1.11-.15-.39.03-.76.14-1.12.34-.66.37-1.25.89-1.76,1.58-.51.68-.91,1.46-1.2,2.32-.29.86-.43,1.72-.41,2.58.01.86.19,1.54.52,2.05s.76.82,1.29.93c.53.11,1.11,0,1.74-.36.37-.21.73-.48,1.08-.83.35-.35.69-.76,1.01-1.25.32-.49.63-1.03.91-1.63l1.21,1.12c-.43,1-1.05,1.98-1.86,2.92-.81.95-1.66,1.66-2.54,2.15Z"/>
        <path d="M955.25,529.46c-.45.25-.81.31-1.06.16-.25-.15-.38-.49-.39-1.01,0-.49.11-.96.36-1.4.25-.44.59-.79,1.03-1.04.45-.25.81-.3,1.06-.16.25.15.38.48.39,1.01,0,.49-.11.96-.36,1.4-.25.45-.59.79-1.03,1.04ZM954.5,546.25l-.24-13.28,2.13-1.18.23,13.28-2.13,1.18Z"/>
        <path d="M964.77,540.8c-1.06.59-2.01.82-2.86.68-.84-.14-1.51-.59-2.02-1.36-.5-.77-.76-1.82-.79-3.15-.02-1.33.2-2.65.66-3.96.46-1.3,1.11-2.49,1.93-3.55.82-1.06,1.76-1.89,2.82-2.48,1.05-.58,1.99-.81,2.84-.67.84.14,1.52.59,2.02,1.36.5.77.76,1.82.79,3.15.02,1.33-.2,2.65-.66,3.96-.46,1.3-1.11,2.49-1.93,3.55-.82,1.06-1.76,1.89-2.8,2.47ZM964.73,538.42c.65-.36,1.22-.88,1.72-1.56.5-.68.89-1.44,1.17-2.28.28-.84.4-1.69.37-2.55,0-.89-.15-1.59-.45-2.11-.3-.52-.71-.83-1.23-.94-.52-.1-1.1.03-1.75.39-.65.36-1.23.88-1.73,1.56-.51.68-.9,1.45-1.18,2.29-.28.84-.4,1.69-.37,2.55,0,.87.15,1.56.45,2.09.3.52.71.84,1.24.95s1.11-.02,1.76-.38Z"/>
        <path d="M972.1,530.46l-.05-2.58,5.95-3.31.05,2.58-5.95,3.31Z"/>
        <path d="M979.64,521.41l-.04-2.53,6.9-3.84.04,2.53-6.9,3.84ZM982.08,530.91l-.3-16.68,2.13-1.18.3,16.68-2.13,1.18Z"/>
        <path d="M993.63,524.74c-1.12.62-2.11.88-2.98.78-.87-.1-1.56-.53-2.07-1.27-.51-.74-.77-1.77-.8-3.08-.02-1.05.1-2.08.36-3.09s.63-1.97,1.11-2.88c.48-.9,1.05-1.72,1.73-2.44.68-.73,1.41-1.31,2.21-1.75.7-.39,1.36-.59,1.97-.6.61,0,1.15.15,1.6.48.46.32.82.81,1.07,1.46.25.65.38,1.45.39,2.38v1.13s-8.86,4.93-8.86,4.93l-.51-1.81,7.5-4.17-.3.6v-.61c-.06-.53-.22-.95-.49-1.24-.27-.29-.61-.46-1.01-.49-.4-.03-.84.08-1.31.34-.74.41-1.37.94-1.87,1.56-.5.63-.88,1.35-1.13,2.16-.25.81-.37,1.71-.35,2.69.02.93.19,1.65.52,2.15s.79.78,1.37.83c.58.05,1.26-.14,2.01-.56.54-.3,1.03-.69,1.49-1.16.46-.47.95-1.15,1.48-2.02l1.11,1.25c-.32.59-.72,1.17-1.19,1.74-.47.57-.97,1.09-1.49,1.56-.53.47-1.05.85-1.56,1.13Z"/>
        <path d="M1005.28,518.26c-1,.56-1.91.76-2.71.59-.8-.17-1.45-.64-1.92-1.43-.48-.79-.73-1.83-.75-3.13-.02-1.3.19-2.6.63-3.9.44-1.3,1.05-2.48,1.84-3.52.78-1.05,1.67-1.85,2.68-2.41.97-.54,1.85-.78,2.65-.74.8.04,1.41.36,1.84.96l-1.15,2.43c-.23-.26-.52-.46-.87-.59-.35-.13-.72-.18-1.11-.15-.39.03-.76.14-1.12.34-.66.37-1.25.9-1.75,1.58-.51.68-.91,1.46-1.2,2.32-.29.86-.43,1.72-.41,2.58.01.86.19,1.55.52,2.05.33.51.76.82,1.29.93.53.11,1.11,0,1.74-.36.37-.21.73-.48,1.08-.83.35-.35.68-.76,1.01-1.25.32-.48.63-1.03.91-1.63l1.21,1.12c-.43,1-1.05,1.98-1.86,2.92-.81.95-1.66,1.66-2.54,2.15Z"/>
        <path d="M1011.72,514.42l-.33-18.73,2.13-1.18.15,8.17-.37.51c.13-.67.38-1.36.78-2.08.39-.72.86-1.39,1.4-2.01.54-.62,1.11-1.09,1.69-1.41.83-.46,1.52-.64,2.08-.55.56.09.98.46,1.27,1.12.29.66.44,1.6.47,2.83l.14,8.1-2.13,1.18-.14-7.92c-.01-.76-.11-1.34-.28-1.75-.17-.41-.44-.63-.78-.66-.35-.03-.78.11-1.29.42-.41.23-.79.52-1.13.87-.34.35-.64.74-.89,1.17-.25.43-.44.87-.58,1.33-.14.46-.2.91-.2,1.35l.14,8.05-1.05.59c-.18.1-.36.2-.54.3-.18.1-.36.2-.54.3Z"/>
        <path d="M1024.01,507.58l-.23-13.28,2.13-1.18.05,2.73-.37.51c.13-.67.39-1.36.78-2.08.39-.72.86-1.39,1.4-2.01.55-.62,1.11-1.09,1.69-1.41.83-.46,1.52-.64,2.08-.55.56.09.98.46,1.27,1.12.29.65.44,1.6.47,2.83l.14,8.1-2.13,1.18-.14-7.92c-.01-.76-.11-1.34-.28-1.75-.17-.41-.44-.63-.78-.66-.35-.03-.78.11-1.29.42-.41.23-.79.52-1.13.87-.34.35-.64.74-.89,1.17s-.44.87-.58,1.33c-.14.46-.2.91-.2,1.35l.14,8.05-1.05.59c-.18.1-.36.2-.54.3-.18.1-.36.2-.54.3Z"/>
        <path d="M1037.4,483.75c-.45.25-.81.31-1.06.16s-.38-.48-.39-1.01c0-.49.11-.96.36-1.4.25-.44.59-.79,1.03-1.04.45-.25.81-.3,1.06-.16.25.15.38.48.39,1.01,0,.49-.11.96-.36,1.4-.25.45-.59.79-1.03,1.04ZM1036.66,500.55l-.23-13.28,2.13-1.18.23,13.28-2.13,1.18Z"/>
        <path d="M1046.66,495.24c-1.01.56-1.91.76-2.71.59-.8-.16-1.44-.64-1.92-1.43-.48-.79-.73-1.83-.75-3.13-.02-1.3.19-2.6.63-3.9.44-1.3,1.05-2.48,1.84-3.53.78-1.05,1.67-1.85,2.68-2.41.96-.54,1.84-.78,2.65-.74.8.04,1.41.36,1.84.96l-1.15,2.43c-.23-.26-.52-.46-.87-.59-.35-.13-.72-.18-1.11-.15-.39.03-.76.14-1.12.34-.66.37-1.25.89-1.76,1.58-.51.68-.91,1.46-1.2,2.32-.29.86-.43,1.72-.41,2.58.01.86.19,1.54.52,2.05s.76.82,1.29.93c.53.11,1.11,0,1.75-.36.37-.21.73-.48,1.08-.83.35-.35.68-.76,1.01-1.25.33-.49.63-1.03.91-1.63l1.21,1.12c-.43,1-1.05,1.98-1.86,2.92s-1.66,1.66-2.54,2.15Z"/>
        <path d="M1057.28,489.33c-.9.5-1.72.65-2.46.45-.75-.2-1.35-.7-1.81-1.5-.46-.8-.7-1.86-.72-3.17-.02-1.33.18-2.64.61-3.93.43-1.28,1.02-2.44,1.78-3.45.75-1.02,1.61-1.79,2.56-2.32.56-.32,1.08-.5,1.56-.56.47-.06.89,0,1.24.16.36.17.65.42.89.77.23.34.38.77.45,1.28l-.48.06-.06-3.44,2.15-1.2.23,13.28-2.15,1.2-.06-3.16.49-.45c-.07.5-.24,1.04-.48,1.61-.25.57-.56,1.14-.95,1.69-.39.56-.82,1.07-1.29,1.53-.47.47-.97.85-1.49,1.14ZM1057.79,486.62c.65-.36,1.22-.87,1.7-1.54s.87-1.41,1.14-2.25c.27-.84.4-1.7.38-2.58-.01-.86-.17-1.55-.46-2.07-.29-.52-.69-.83-1.19-.95-.5-.11-1.08.01-1.72.37-.63.35-1.19.86-1.67,1.52-.48.66-.86,1.41-1.13,2.24s-.4,1.68-.38,2.54c.02.88.17,1.58.46,2.11s.69.84,1.19.96c.5.12,1.06,0,1.69-.35Z"/>
        <path d="M1066.22,484.11l-.33-18.73,2.13-1.18.33,18.73-2.13,1.18Z"/>
        <path d="M1080.76,476.27c-.91.5-1.73.77-2.47.79-.74.02-1.35-.22-1.85-.71l1.42-2.32c.42.36.88.54,1.38.52.49-.01,1.05-.19,1.67-.53.25-.14.48-.31.69-.5.21-.19.4-.41.55-.65.16-.24.27-.49.35-.74.08-.26.12-.51.11-.76,0-.44-.15-.72-.41-.84-.14-.04-.36-.05-.66-.03-.3.02-.68.09-1.15.19-.8.19-1.46.27-1.98.23-.52-.04-.91-.18-1.2-.43-.21-.2-.37-.47-.47-.8-.1-.33-.16-.72-.17-1.17-.01-.56.08-1.12.27-1.7.19-.58.46-1.13.8-1.68.35-.54.75-1.04,1.23-1.49.47-.45.98-.83,1.51-1.12.51-.28,1.02-.48,1.52-.59.5-.11.97-.12,1.41-.04.43.08.8.26,1.09.54l-1.19,2.32c-.27-.17-.56-.3-.87-.37-.32-.07-.63-.09-.95-.05-.32.04-.61.14-.87.28-.29.16-.55.34-.78.54-.23.2-.43.41-.58.63s-.27.46-.35.71c-.08.25-.12.5-.11.75.02.21.06.39.14.54.08.15.19.26.33.32.15.05.38.07.69.05.31-.02.69-.09,1.17-.21.69-.17,1.27-.24,1.72-.23.45.01.81.11,1.08.31.28.17.48.43.6.79.12.36.18.8.19,1.32.01.76-.15,1.54-.49,2.33-.34.79-.8,1.52-1.39,2.19-.59.67-1.25,1.2-1.98,1.61Z"/>
        <path d="M1088.96,477.33l2.08-7.42.06,2.06-5.68-11.97,2.48-1.38,3.56,7.88c.07.13.16.34.26.63.1.29.19.59.27.89l-.54.45c.1-.42.21-.83.3-1.24.1-.41.19-.82.28-1.23l2.66-11.16,2.52-1.4-4.23,15.77-1.74,6.84-2.29,1.28Z"/>
        <path d="M1102.45,464.2c-.91.51-1.73.77-2.47.79s-1.35-.22-1.85-.71l1.42-2.32c.42.36.88.54,1.38.53.49-.01,1.05-.19,1.67-.54.25-.14.48-.3.69-.5.21-.19.4-.41.55-.65.16-.24.27-.49.35-.74.08-.26.12-.51.11-.76,0-.44-.15-.72-.41-.84-.14-.04-.36-.05-.66-.03-.3.02-.68.09-1.16.19-.8.19-1.46.27-1.98.23-.52-.04-.91-.18-1.2-.43-.21-.2-.37-.47-.47-.8-.1-.33-.16-.72-.17-1.17-.01-.56.08-1.12.27-1.7.19-.57.46-1.13.8-1.67.35-.54.75-1.04,1.23-1.49.47-.45.98-.83,1.51-1.12.51-.28,1.02-.48,1.52-.59.5-.11.97-.12,1.41-.04.43.08.8.26,1.09.54l-1.19,2.32c-.27-.17-.56-.3-.87-.37-.32-.07-.63-.09-.95-.05-.32.04-.61.14-.87.28-.29.16-.55.34-.78.54-.23.2-.43.41-.58.63-.16.22-.27.46-.35.71-.08.25-.12.5-.11.75.02.21.07.39.15.55.08.15.19.26.33.32.15.05.38.07.69.05.3-.02.69-.09,1.16-.21.69-.16,1.27-.24,1.72-.23.45.01.81.11,1.08.31.28.17.48.43.6.79.12.36.18.8.19,1.32.01.76-.15,1.54-.49,2.33-.34.8-.8,1.53-1.39,2.19-.59.67-1.25,1.2-1.98,1.61Z"/>
        <path d="M1107.63,450.21l-.04-2.53,6.9-3.84.04,2.53-6.9,3.84ZM1110.07,459.71l-.3-16.68,2.13-1.18.3,16.68-2.13,1.18Z"/>
        <path d="M1121.62,453.54c-1.11.62-2.11.88-2.98.78-.87-.1-1.56-.52-2.07-1.27-.51-.74-.77-1.77-.79-3.08-.02-1.05.1-2.07.36-3.09.26-1.01.63-1.97,1.11-2.88.48-.9,1.05-1.72,1.73-2.44.68-.73,1.41-1.31,2.21-1.75.7-.39,1.36-.59,1.97-.6.61,0,1.15.15,1.6.48.46.32.81.81,1.07,1.46.25.65.38,1.44.38,2.38v1.13s-8.86,4.93-8.86,4.93l-.51-1.81,7.5-4.17-.3.6v-.61c-.06-.53-.22-.95-.49-1.24-.27-.29-.6-.46-1.01-.49-.4-.03-.84.09-1.31.35-.74.41-1.37.93-1.87,1.56-.5.63-.88,1.35-1.13,2.16-.25.81-.37,1.71-.35,2.69.02.93.19,1.65.52,2.15s.78.79,1.37.83c.58.05,1.26-.14,2.01-.56.54-.3,1.03-.69,1.49-1.16.46-.48.95-1.15,1.48-2.02l1.11,1.25c-.32.59-.72,1.17-1.19,1.74-.47.57-.97,1.09-1.49,1.56-.53.47-1.05.85-1.56,1.13Z"/>
        <path d="M1128.62,449.39l-.23-13.28,2.15-1.2.05,2.83-.39.52c.1-.5.27-1.02.5-1.56.23-.54.52-1.06.87-1.57.35-.51.72-.97,1.12-1.38.4-.41.82-.74,1.25-.97.62-.34,1.17-.52,1.64-.53.47,0,.86.16,1.18.5.31.34.54.85.69,1.53l-.33.08.14-.51c.14-.47.35-.96.61-1.45.26-.49.56-.97.9-1.43.34-.46.7-.88,1.08-1.24.38-.37.76-.65,1.13-.86.81-.45,1.49-.62,2.03-.51.54.11.95.5,1.23,1.18.28.67.44,1.63.46,2.86l.14,7.97-2.15,1.2-.14-7.82c-.01-.76-.1-1.34-.27-1.73-.17-.39-.41-.62-.73-.68s-.73.05-1.23.32c-.38.22-.74.5-1.08.84-.34.35-.62.73-.87,1.16-.24.42-.43.87-.56,1.32-.13.46-.19.91-.19,1.37l.14,7.95-2.15,1.2-.14-7.87c-.01-.69-.1-1.23-.28-1.62-.17-.39-.42-.62-.74-.7-.32-.08-.71.01-1.16.27-.39.21-.74.49-1.07.84-.33.34-.61.72-.86,1.14-.24.41-.43.85-.56,1.31-.13.46-.19.9-.18,1.34l.14,8-2.15,1.2Z"/>
      </g>
      <g>
        <path d="M177.37,218.22l.3-17.71,6.9,4.03c1,.59,1.89,1.36,2.67,2.33.78.96,1.39,2.02,1.84,3.17.45,1.15.66,2.27.65,3.37-.02,1.15-.27,2.04-.75,2.67s-1.12.98-1.91,1.04c-.79.06-1.69-.2-2.7-.79l-3.02-1.76-.1,5.92-3.88-2.27ZM181.34,210.76l2.53,1.48c.34.2.64.28.92.26.28-.02.5-.15.67-.37.17-.22.26-.54.27-.97,0-.44-.07-.86-.23-1.26-.16-.4-.38-.77-.65-1.1-.27-.33-.57-.59-.91-.79l-2.53-1.48-.07,4.23Z"/>
        <path d="M194.4,211.93c-.69-.4-1.22-.9-1.6-1.49s-.57-1.22-.56-1.9c.01-.61.22-.99.62-1.15.4-.16.94-.04,1.61.35.69.4,1.22.89,1.59,1.48.37.59.56,1.21.55,1.87-.01.62-.21,1.02-.61,1.18-.4.16-.93.05-1.6-.35ZM192.3,226.96l.23-13.44,3.65,2.14-.23,13.44-3.65-2.14Z"/>
        <path d="M204.7,234.46c-1.17-.69-2.22-1.6-3.14-2.75-.92-1.15-1.64-2.41-2.16-3.78s-.77-2.72-.75-4.05.31-2.37.87-3.11c.56-.74,1.31-1.14,2.25-1.2.94-.06,1.99.25,3.17.93,1.08.63,2.07,1.42,2.97,2.38.9.95,1.61,1.96,2.13,3.03l-2.03,1.47c-.21-.39-.46-.8-.74-1.2-.29-.4-.6-.78-.95-1.12-.35-.34-.71-.62-1.09-.84-.58-.34-1.09-.49-1.54-.45-.45.04-.8.25-1.05.63-.25.38-.38.91-.39,1.58-.01.64.11,1.3.35,1.97.24.67.58,1.29,1.02,1.85.44.56.94,1.01,1.5,1.34.4.23.76.39,1.1.48.34.09.65.1.93.05.28-.05.55-.17.8-.35l1.92,3.81c-.53.42-1.26.58-2.19.46-.93-.12-1.92-.48-2.97-1.1Z"/>
        <path d="M210.86,227.81l.06-3.54,8.15,4.77-.06,3.54-8.15-4.77ZM212.83,238.96l.28-16.83,3.65,2.14-.28,16.83-3.65-2.14Z"/>
        <path d="M226.51,247.22c-1.26-.74-2.38-1.7-3.35-2.88-.97-1.18-1.73-2.46-2.29-3.84-.55-1.38-.82-2.74-.8-4.09.02-1.35.33-2.38.92-3.09.59-.71,1.38-1.09,2.37-1.12s2.12.32,3.38,1.06,2.38,1.7,3.35,2.88c.97,1.18,1.73,2.46,2.28,3.84.55,1.38.81,2.74.78,4.09-.02,1.35-.32,2.38-.91,3.1-.58.72-1.37,1.09-2.36,1.12-.99.03-2.12-.32-3.38-1.06ZM226.57,243.72c.55.32,1.04.45,1.47.4.43-.06.77-.27,1.03-.65.25-.38.38-.91.37-1.6.03-.67-.08-1.34-.31-2.01-.24-.67-.56-1.29-.98-1.84-.42-.55-.91-.99-1.45-1.31-.55-.32-1.04-.46-1.48-.41-.44.05-.79.27-1.04.66-.25.39-.38.93-.37,1.61-.03.67.08,1.33.31,2,.24.67.57,1.28,1,1.83.43.56.92,1,1.47,1.32Z"/>
        <path d="M235.83,252.41l.3-17.71,3.47,2.03,8.17,17.55-.75-.57c-.07-.6-.12-1.17-.16-1.7-.04-.53-.07-1.06-.1-1.57-.03-.51-.05-1.03-.07-1.55-.01-.52-.02-1.08-.02-1.67,0-.6,0-1.24.02-1.93l.07-4.38,3.77,2.2-.3,17.71-3.52-2.06-8.53-18.17,1.16.86c.06.85.12,1.58.16,2.18.04.6.08,1.13.11,1.59.03.46.05.87.06,1.24.01.36.02.72.02,1.07,0,.35,0,.74,0,1.16l-.1,5.92-3.77-2.2Z"/>
        <path d="M259.65,266.6c-1.34-.78-2.5-1.76-3.48-2.94-.98-1.18-1.74-2.45-2.27-3.8-.53-1.36-.79-2.7-.76-4.04.02-1.03.19-1.89.5-2.57.32-.68.76-1.18,1.32-1.49.56-.31,1.22-.42,1.98-.33.76.1,1.59.4,2.49.93.85.5,1.63,1.12,2.33,1.87.7.75,1.31,1.58,1.82,2.49.51.91.89,1.86,1.15,2.85s.37,1.96.32,2.92l-.04,1.08-9.66-5.65-.49-2.59,7.22,4.22-.4.25v-.51c-.01-.44-.13-.88-.33-1.33-.2-.45-.47-.86-.8-1.25-.33-.38-.71-.7-1.14-.95-.59-.35-1.1-.51-1.53-.5-.42.02-.75.21-.97.59-.22.37-.34.92-.35,1.65-.01.74.12,1.47.39,2.18.27.71.68,1.38,1.21,2,.53.62,1.18,1.15,1.92,1.58.52.3.98.49,1.39.56.41.07.85.03,1.33-.09l1.67,3.68c-.48.18-.99.26-1.53.23-.54-.02-1.09-.13-1.64-.31-.56-.18-1.11-.43-1.66-.75Z"/>
        <path d="M266.29,260.23l.06-3.54,8.15,4.77-.06,3.54-8.15-4.77ZM268.27,271.38l.28-16.83,3.65,2.14-.28,16.83-3.65-2.14Z"/>
      </g>
      <g>
        <path d="M262.77,382.06l.3-17.71,6.9,4.03c1.01.59,1.9,1.36,2.67,2.33.77.96,1.39,2.02,1.84,3.17s.66,2.27.65,3.37c-.02,1.15-.27,2.04-.75,2.67-.48.63-1.12.98-1.91,1.04-.79.06-1.69-.2-2.7-.79l-3.02-1.76-.1,5.92-3.88-2.27ZM266.75,374.6l2.53,1.48c.33.19.64.28.92.26.28-.02.5-.15.67-.37.17-.22.26-.54.27-.97,0-.44-.07-.86-.23-1.26-.16-.4-.38-.77-.65-1.09-.27-.33-.58-.59-.91-.79l-2.53-1.48-.07,4.23Z"/>
        <path d="M279.81,375.77c-.68-.4-1.22-.89-1.6-1.49-.38-.59-.57-1.22-.56-1.9.01-.61.22-.99.62-1.15.4-.16.94-.04,1.61.35.69.4,1.22.89,1.59,1.48.37.59.56,1.21.55,1.86-.01.62-.21,1.02-.61,1.18-.4.16-.93.05-1.6-.35ZM277.71,390.79l.23-13.44,3.65,2.14-.23,13.44-3.65-2.14Z"/>
        <path d="M290.11,398.3c-1.17-.69-2.22-1.6-3.14-2.75-.92-1.15-1.64-2.41-2.16-3.78-.52-1.37-.77-2.72-.75-4.05s.31-2.37.87-3.11,1.31-1.14,2.25-1.2c.94-.07,1.99.25,3.17.93,1.08.63,2.07,1.42,2.97,2.38.9.95,1.61,1.96,2.13,3.03l-2.03,1.47c-.21-.39-.46-.79-.74-1.2-.29-.41-.6-.78-.95-1.12-.35-.34-.71-.62-1.09-.84-.58-.34-1.09-.49-1.54-.45-.45.04-.8.25-1.05.63-.25.38-.38.91-.4,1.58-.01.64.11,1.3.35,1.97.24.67.58,1.29,1.02,1.85s.94,1.01,1.5,1.34c.4.23.76.39,1.1.48.34.09.65.1.93.05.28-.05.55-.17.8-.35l1.92,3.81c-.53.42-1.26.58-2.19.46-.93-.12-1.92-.48-2.97-1.1Z"/>
        <path d="M296.26,391.65l.06-3.54,8.15,4.77-.06,3.54-8.15-4.77ZM298.24,402.8l.28-16.83,3.65,2.14-.28,16.83-3.65-2.14Z"/>
        <path d="M311.92,411.05c-1.26-.74-2.38-1.7-3.35-2.88s-1.73-2.46-2.29-3.84c-.55-1.38-.82-2.74-.8-4.09.02-1.35.33-2.38.92-3.09.59-.71,1.38-1.08,2.37-1.12.99-.03,2.12.32,3.38,1.06s2.38,1.7,3.35,2.88c.97,1.18,1.73,2.46,2.28,3.84.55,1.38.81,2.74.78,4.09-.02,1.35-.33,2.38-.91,3.1-.58.72-1.37,1.09-2.36,1.12-.99.03-2.12-.32-3.39-1.06ZM311.98,407.56c.55.32,1.04.45,1.47.4.43-.05.77-.27,1.03-.65.25-.38.38-.91.37-1.6.03-.67-.08-1.34-.31-2.01-.23-.67-.56-1.29-.98-1.84-.42-.55-.91-.99-1.45-1.31-.55-.32-1.04-.46-1.48-.41-.44.05-.79.27-1.04.66-.25.39-.38.93-.37,1.61-.03.67.08,1.33.31,2,.23.67.57,1.28,1,1.83.43.56.92,1,1.47,1.32Z"/>
        <path d="M321.24,416.25l.3-17.71,3.88,2.27-.3,17.71-3.88-2.27ZM323.16,410.52l.06-3.59,8.27,4.84-.06,3.59-8.27-4.84ZM323.28,403.39l.06-3.8,9.21,5.38-.06,3.79-9.21-5.38Z"/>
        <path d="M340.33,427.67c-1.26-.74-2.38-1.7-3.35-2.88s-1.73-2.46-2.29-3.84c-.56-1.38-.82-2.74-.8-4.09.02-1.35.33-2.38.92-3.09.59-.71,1.38-1.08,2.37-1.12.99-.03,2.12.32,3.39,1.06,1.26.74,2.38,1.7,3.35,2.88.97,1.18,1.73,2.46,2.28,3.84.55,1.38.81,2.74.78,4.09-.02,1.35-.33,2.38-.91,3.1-.58.72-1.37,1.09-2.36,1.12-.99.03-2.12-.32-3.38-1.06ZM340.39,424.18c.55.32,1.04.45,1.47.4.43-.05.77-.27,1.03-.65.25-.38.38-.91.37-1.6.03-.67-.08-1.34-.31-2.01-.23-.67-.56-1.29-.98-1.84-.42-.55-.91-.99-1.45-1.31-.55-.32-1.04-.46-1.48-.41-.44.05-.79.27-1.04.66-.25.39-.38.92-.37,1.61-.03.67.08,1.33.31,2,.23.67.57,1.28,1,1.83.43.56.92,1,1.47,1.32Z"/>
        <path d="M349.26,432.64l.23-13.44,3.47,2.03.09,4.47-.67-1.24c.19-.62.51-1.09.93-1.42.43-.33.93-.5,1.5-.5.57,0,1.17.17,1.81.55.27.16.53.34.76.52.23.19.45.38.65.56l-1.08,3.89c-.17-.22-.39-.44-.67-.69-.28-.24-.57-.45-.88-.63-.34-.2-.65-.32-.94-.36-.29-.04-.54,0-.74.12-.2.12-.36.31-.48.56-.12.25-.18.58-.19.99l-.11,6.73-3.68-2.15Z"/>
        <path d="M364.76,447.58c-.99-.58-1.97-1.32-2.95-2.21-.98-.89-1.77-1.77-2.37-2.63l1.33-2.09c.32.42.67.84,1.05,1.24.38.4.79.78,1.21,1.13.42.35.86.65,1.3.91.78.45,1.41.7,1.9.73.49.03.86-.14,1.12-.51.25-.37.39-.95.4-1.72l.04-2.25.71.54c-.12.5-.39.85-.81,1.06-.43.21-.95.28-1.56.2-.62-.08-1.27-.32-1.95-.72-1.1-.64-2.07-1.5-2.92-2.56-.85-1.07-1.52-2.25-1.99-3.54-.48-1.29-.71-2.6-.68-3.91.02-1.35.28-2.4.79-3.15.51-.75,1.19-1.18,2.05-1.28.86-.1,1.83.16,2.89.78.46.27.89.58,1.31.95.42.36.8.75,1.16,1.15.35.4.67.82.95,1.24.28.43.5.84.67,1.25.17.41.28.79.34,1.14l-.76-.24.19-2.96,3.47,2.03-.21,12.35c-.02,1.1-.18,1.98-.49,2.66-.31.68-.76,1.15-1.34,1.41-.58.26-1.28.31-2.09.15-.81-.17-1.73-.55-2.75-1.15ZM365.01,438.57c.59.35,1.11.5,1.55.46.44-.04.78-.25,1.03-.64.25-.38.37-.93.39-1.64.01-.71-.1-1.4-.32-2.07-.23-.67-.55-1.28-.98-1.83s-.94-1-1.53-1.34c-.58-.34-1.08-.48-1.52-.44s-.77.27-1.01.66c-.25.39-.37.94-.39,1.65-.01.71.1,1.39.32,2.05.23.66.55,1.26.97,1.81.42.54.92.99,1.5,1.32Z"/>
        <path d="M380.37,451.08c-1.34-.78-2.5-1.76-3.48-2.94-.98-1.18-1.74-2.45-2.26-3.8-.53-1.36-.79-2.7-.76-4.04.02-1.03.19-1.88.5-2.57s.76-1.18,1.32-1.49c.56-.31,1.22-.42,1.98-.33.76.1,1.59.4,2.49.93.85.5,1.63,1.12,2.33,1.87.7.75,1.31,1.58,1.82,2.49.51.91.89,1.86,1.15,2.85.26.99.37,1.96.32,2.92l-.04,1.08-9.66-5.65-.49-2.59,7.22,4.22-.4.25v-.51c-.01-.44-.13-.88-.33-1.33-.2-.45-.47-.87-.8-1.25-.33-.38-.71-.7-1.14-.95-.59-.35-1.1-.51-1.53-.5-.42.02-.75.21-.97.58-.22.37-.34.92-.35,1.65-.01.74.12,1.47.39,2.18.27.71.68,1.38,1.21,2,.54.62,1.18,1.15,1.92,1.58.52.3.98.49,1.39.56.41.07.85.04,1.33-.09l1.67,3.68c-.48.18-.99.26-1.53.23-.54-.02-1.09-.13-1.64-.31-.56-.18-1.11-.43-1.66-.75Z"/>
      </g>
      <g>
        <path d="M396.84,640.74l.3-17.71,3.47,2.03,5.65,13.91-2.49-1.48,6.07-7.03,3.33,1.95-.3,17.71-3.77-2.2.09-5.52c.03-1.52.08-2.87.17-4.04.09-1.17.23-2.31.42-3.41l.41,1.57-4.56,5.03-1.51-.88-4.21-10.1.46-1.11c.15,1.23.25,2.46.3,3.69.05,1.23.06,2.66.03,4.3l-.09,5.52-3.77-2.2Z"/>
        <path d="M422.28,655.87c-1.34-.78-2.5-1.76-3.48-2.94-.98-1.18-1.74-2.45-2.27-3.8-.53-1.36-.79-2.7-.76-4.04.02-1.03.19-1.89.5-2.57.32-.68.76-1.18,1.32-1.49.56-.31,1.22-.42,1.98-.33.76.09,1.59.4,2.49.93.85.5,1.63,1.13,2.33,1.88.7.75,1.31,1.58,1.82,2.49.51.91.89,1.86,1.15,2.85.26.99.37,1.96.32,2.92l-.04,1.08-9.66-5.65-.49-2.58,7.22,4.22-.4.25v-.51c-.01-.44-.13-.88-.33-1.33s-.47-.87-.8-1.25-.71-.7-1.14-.95c-.59-.35-1.1-.51-1.53-.5-.42.02-.75.21-.97.58-.22.37-.34.92-.35,1.65-.01.74.12,1.47.39,2.18.27.71.68,1.38,1.21,2,.54.62,1.18,1.15,1.92,1.58.52.3.98.49,1.39.55.41.07.85.04,1.33-.09l1.67,3.68c-.48.18-.99.26-1.53.23-.54-.02-1.09-.13-1.65-.31-.56-.18-1.11-.43-1.66-.75Z"/>
        <path d="M434.47,663.03c-1.05-.61-1.98-1.46-2.78-2.54-.8-1.07-1.43-2.28-1.89-3.61-.45-1.33-.67-2.67-.65-4.02.02-1.35.28-2.41.77-3.19.49-.78,1.15-1.23,1.98-1.36s1.78.12,2.85.74c.55.32,1.07.72,1.57,1.2.5.48.95,1,1.36,1.56.41.56.74,1.12.99,1.69.25.57.4,1.08.44,1.55l-.87-.28.15-8.66,3.68,2.15-.32,18.73-3.4-1.99-.15-3.18.73.55c-.05.4-.21.71-.46.96-.26.24-.59.39-.99.46-.4.06-.86.03-1.37-.09-.51-.12-1.05-.35-1.61-.67ZM435.47,660.21c.56.33,1.05.46,1.47.4.42-.06.74-.3.97-.71.23-.41.35-.98.36-1.7.01-.74-.09-1.45-.3-2.12-.21-.67-.52-1.28-.93-1.82-.41-.55-.89-.98-1.45-1.31-.56-.33-1.05-.46-1.46-.39-.41.07-.73.31-.97.71-.24.41-.36.98-.37,1.72-.01.73.09,1.42.31,2.1.22.67.53,1.28.93,1.82.4.54.88.97,1.44,1.31Z"/>
        <path d="M447.13,653.89c-.68-.4-1.22-.89-1.6-1.49-.38-.59-.57-1.22-.56-1.9.01-.61.22-.99.62-1.15.4-.16.94-.04,1.61.35.69.4,1.22.89,1.59,1.48.38.59.56,1.21.55,1.86-.01.63-.21,1.02-.61,1.18-.39.16-.93.05-1.6-.35ZM445.03,668.92l.23-13.44,3.65,2.14-.23,13.44-3.65-2.14Z"/>
        <path d="M456.58,675.91c-1.02-.6-1.93-1.43-2.71-2.49-.79-1.07-1.41-2.27-1.87-3.6-.45-1.33-.67-2.66-.65-4,.02-1.37.28-2.44.77-3.2.49-.77,1.15-1.21,1.98-1.33.83-.12,1.77.13,2.82.74.58.34,1.11.74,1.58,1.21.48.47.89.97,1.26,1.51.36.54.66,1.1.92,1.69.25.58.43,1.15.55,1.71l-.75-.54.05-3.19,3.63,2.12-.23,13.44-3.7-2.16.05-3.24.82.46c-.13.4-.34.73-.62.99-.28.26-.62.44-1.02.52s-.85.08-1.34-.01c-.49-.1-1.01-.31-1.56-.63ZM457.64,673.08c.56.33,1.05.47,1.47.42s.74-.27.98-.67c.24-.4.36-.96.37-1.69.01-.72-.09-1.42-.31-2.08-.22-.66-.53-1.26-.94-1.8-.41-.54-.89-.97-1.45-1.3-.55-.32-1.03-.45-1.43-.39-.41.06-.73.29-.97.69-.24.4-.36.96-.37,1.69-.01.72.09,1.42.31,2.08.22.67.53,1.26.93,1.78.4.52.87.94,1.42,1.26Z"/>
        <path d="M467.55,682.09l.3-17.71,3.88,2.27-.3,17.71-3.88-2.27ZM469.47,676.36l.06-3.59,8.27,4.84-.06,3.59-8.27-4.84ZM469.59,669.23l.06-3.8,9.21,5.38-.06,3.8-9.21-5.38Z"/>
        <path d="M481.07,690l.23-13.44,3.47,2.03.09,4.47-.67-1.24c.19-.62.51-1.09.94-1.42.43-.33.93-.5,1.49-.5.57,0,1.17.17,1.81.55.27.16.53.33.77.52.23.19.45.38.65.56l-1.08,3.89c-.17-.22-.39-.44-.67-.69-.28-.24-.57-.45-.88-.63-.34-.19-.65-.31-.94-.36-.29-.04-.54,0-.74.12-.2.12-.36.31-.48.56-.12.25-.18.58-.19.99l-.11,6.73-3.68-2.15Z"/>
        <path d="M495.43,698.63c-1.02-.6-1.92-1.43-2.71-2.49-.79-1.07-1.41-2.26-1.87-3.59-.45-1.33-.67-2.66-.65-4,.02-1.37.28-2.44.77-3.2.49-.77,1.15-1.22,1.98-1.33.83-.12,1.77.13,2.82.74.58.34,1.11.74,1.58,1.21.48.47.9.97,1.26,1.51.36.54.66,1.1.92,1.69.25.58.43,1.15.55,1.71l-.75-.54.05-3.19,3.63,2.12-.23,13.44-3.7-2.16.05-3.24.82.46c-.13.4-.34.73-.62.99-.28.26-.62.44-1.02.53-.4.09-.85.08-1.34-.02-.49-.1-1.01-.31-1.56-.63ZM496.49,695.8c.56.33,1.05.47,1.47.42.42-.05.74-.27.98-.67.24-.4.36-.96.37-1.69s-.09-1.42-.31-2.09c-.22-.66-.53-1.26-.94-1.8-.41-.54-.89-.97-1.45-1.3-.55-.32-1.03-.45-1.43-.39-.41.06-.73.29-.97.68-.24.4-.36.96-.37,1.69s.09,1.42.31,2.09c.22.66.53,1.26.93,1.78.4.52.87.95,1.42,1.26Z"/>
        <path d="M506.01,704.58l.23-13.44,3.47,2.03.07,2.8-.74-.12c.18-.51.49-.89.93-1.13s.97-.34,1.58-.29c.61.05,1.26.27,1.93.67.91.54,1.68,1.19,2.3,1.97.62.78,1.08,1.67,1.38,2.68.31,1,.45,2.1.43,3.28l-.14,8.25-3.68-2.15.13-7.92c0-.54-.05-1.03-.18-1.46-.13-.43-.34-.82-.61-1.16-.28-.34-.62-.62-1.04-.85-.32-.19-.62-.31-.89-.36-.28-.05-.52-.03-.72.07-.2.09-.36.24-.48.45-.12.2-.18.47-.19.79l-.14,8.05-1.8-1.05c-.43-.25-.79-.46-1.1-.64-.3-.18-.55-.33-.75-.44Z"/>
        <path d="M525.83,716.43c-1.17-.68-2.22-1.6-3.14-2.75s-1.64-2.41-2.16-3.78c-.52-1.37-.77-2.72-.75-4.06.02-1.33.31-2.37.87-3.11s1.31-1.14,2.25-1.2c.94-.07,1.99.25,3.17.93,1.08.63,2.07,1.42,2.97,2.38.9.95,1.61,1.96,2.13,3.04l-2.03,1.47c-.21-.39-.46-.79-.74-1.2-.29-.41-.6-.78-.95-1.12s-.71-.62-1.09-.84c-.58-.34-1.09-.49-1.54-.45-.45.04-.8.25-1.05.63-.25.38-.38.91-.39,1.58-.01.64.11,1.3.35,1.97.24.67.58,1.29,1.02,1.85s.94,1.01,1.5,1.34c.4.23.76.39,1.1.48.34.09.65.1.93.05.28-.06.55-.17.8-.35l1.92,3.81c-.53.42-1.26.58-2.19.46s-1.92-.48-2.97-1.1Z"/>
        <path d="M537.44,723.19c-1.02-.6-1.93-1.43-2.71-2.49-.79-1.07-1.41-2.26-1.87-3.59-.45-1.33-.67-2.66-.65-4,.02-1.37.28-2.44.77-3.2.49-.77,1.15-1.22,1.98-1.33.83-.12,1.77.13,2.82.75.58.34,1.11.74,1.58,1.21.48.47.9.97,1.26,1.51.36.54.66,1.1.92,1.69.25.58.43,1.15.55,1.71l-.75-.54.05-3.19,3.63,2.12-.23,13.44-3.7-2.16.05-3.24.82.46c-.13.4-.34.73-.62.99-.28.26-.62.44-1.02.53-.4.09-.85.08-1.34-.02-.49-.1-1.01-.31-1.56-.63ZM538.5,720.36c.56.33,1.05.47,1.47.42.42-.05.74-.27.98-.67.24-.4.36-.96.37-1.69s-.09-1.42-.31-2.09c-.22-.66-.53-1.26-.94-1.8-.41-.54-.89-.97-1.46-1.3-.55-.32-1.03-.45-1.43-.39-.41.06-.73.29-.97.68-.24.4-.36.96-.37,1.69s.09,1.42.31,2.09c.22.66.53,1.26.93,1.78.4.52.87.95,1.42,1.26Z"/>
      </g>
    </g>
  </g>
</svg>