<?xml version="1.0" encoding="UTF-8"?>
<svg id="Layer_1" data-name="Layer 1" xmlns="http://www.w3.org/2000/svg" viewBox="0 0 1196.41 941.78">
  <defs>
    <style>
      .cls-1 {
        fill: #c73319;
        font-family: Lexend-Regular, Lexend;
        font-size: 22.28px;
        font-variation-settings: 'wght' 400;
      }

      .cls-2 {
        fill: #fff;
      }

      .cls-3 {
        letter-spacing: .06em;
      }

      .cls-4 {
        letter-spacing: .05em;
      }
    </style>
  </defs>
  <rect class="cls-2" x="0" width="1196.41" height="941.78"/>
  <text class="cls-1" transform="translate(521.57 688.89)"><tspan class="cls-3" x="0" y="0">SAFE HO</tspan><tspan class="cls-4" x="106.71" y="0">U</tspan><tspan class="cls-3" x="124.33" y="0">SE</tspan></text>
  <g>
    <path d="M880.6,830.38c.46,0,2.12.08,3.19.08.11,0,.4.21.46.27.32.38.9,1.03,1.76,2.04,1.03,1.26,5.14,5.52,6.26,6.7.11.1.19-.08.19-.13.1-.61.04-2.98.04-4.77,0-.69-.06-1.68-.12-2.23-.04-.44-.25-.9-1.3-1.18-.42-.1-.69-.23-.69-.48,0-.15.25-.25.61-.25.53,0,1.01.02,1.45.02.99,0,1.85-.1,2.39-.1.36,0,.5.13.5.27,0,.13-.15.32-.52.42-1.09.36-1.2.74-1.3,1.58-.06.76-.21,6.07-.21,7.85,0,.88.12,2.73.12,3.28,0,.19-.23.4-.34.4-.44,0-.94-.55-1.13-.8-.4-.52-.8-1.01-1.37-1.7-1.97-2.42-5.4-6.05-7.26-8.23-.1-.13-.23.04-.23.08-.04.57-.08,1.07-.1,2.73-.02,2.92-.06,4.51.04,5.54.08.67.31,1.03,1.32,1.34.44.13.59.27.59.4,0,.23-.29.32-.69.32-.61,0-1.09-.08-1.83-.08-.46,0-1.64.06-1.99.06-.29,0-.55-.1-.55-.27,0-.21.25-.32.46-.38.97-.29,1.47-.46,1.53-2.04.1-2.35.38-6.38.38-7.89,0-.84-.06-1.09-.12-1.18-.38-.46-.53-.76-1.62-1.01-.23-.04-.55-.21-.55-.36,0-.17.25-.32.63-.32Z"/>
    <path d="M904.89,839.57c0,1.79-1.09,3.07-1.87,3.57-.86.61-1.93.86-2.9.86s-2.12-.44-2.9-1.09c-.9-.74-1.58-2.06-1.58-3.23,0-1.47.65-2.58,1.45-3.25.63-.55,1.81-1.22,3.36-1.22,2.1,0,4.43,1.64,4.43,4.37ZM899.03,836.36c-.48.44-.86,1.36-.86,2.75,0,.69.08,1.49.25,2.02.44,1.47,1.41,2.18,2.29,2.18.21,0,.61-.17.92-.55.44-.55.78-1.66.78-2.86,0-.88-.19-2.25-.84-3.17-.38-.48-.92-.84-1.51-.84-.36,0-.69.15-1.03.46Z"/>
    <path d="M912.22,842.18c.08-.06.23-.4.23-.48v-4.7c0-.15-.13-.38-.36-.48-.34-.1-.57-.21-.84-.31-.15-.04-.34-.21-.34-.38,0-.08.19-.21.36-.21.84,0,2.16-.15,2.77-.27.21-.04.36-.08.5-.08s.21.25.21.34c-.04.76-.11,6.09-.11,6.76,0,.06.04.38.27.38.21-.02.67-.15.95-.15.08,0,.23.48.25.55.02.04-.15.23-.25.23-.57.04-1.66.32-2.14.44-.36.1-1.03.27-1.09.27-.08,0-.23-.15-.23-.29,0-.13.04-.5.06-.86,0-.11-.1-.19-.15-.17-.53.4-1.2.84-1.47.94-.36.17-.74.32-1.34.32-.99,0-1.68-.42-2.12-1.11-.15-.21-.25-.84-.25-1.11,0-1.49-.02-3.53-.06-4.64-.02-.61-.36-.73-.71-.88-.19-.08-.38-.25-.38-.44,0-.11.15-.23.34-.23.59,0,2.81-.23,2.9-.23s.17.23.17.31c.04,1.6-.02,4.75-.02,5.71,0,.4.19.71.4.9.34.25.78.4,1.18.4.32,0,.82-.13,1.28-.5Z"/>
    <path d="M917.39,835.94c.4-.15,1.34-.46,1.68-.63s.61-.32.71-.32c.08,0,.23.23.23.32,0,.23-.02.73-.02.92,0,.13.13.1.15.1.84-.63,1.72-1.13,2.67-1.13,1.03,0,1.64.5,1.93.84.48.55.76,1.47.76,2.54,0,.44.04,3.53.06,3.82.04.31.19.57.74.71.4.1.55.21.55.38s-.25.29-.61.29c-.5,0-1.32-.04-1.91-.04-.53,0-1.37.06-1.66.06s-.57-.06-.57-.29c0-.15.23-.27.5-.36.48-.19.59-.38.63-1.07.04-.69.04-3.3.04-3.91,0-.42-.17-.99-.46-1.26-.23-.21-.76-.44-1.2-.44-.73,0-1.09.21-1.38.42-.08.06-.19.34-.21.46-.02.36.02,4.87.04,5.12.02.29.08.44.73.65.19.08.36.23.36.36,0,.15-.23.29-.59.29-.4,0-1.18-.04-1.62-.04-.78,0-1.6.06-1.95.06s-.57-.13-.57-.31c0-.17.21-.27.44-.34.69-.23.8-.4.86-1.18.06-.63.1-2.31.1-4.43,0-.23-.15-.44-.61-.86-.17-.17-.23-.23-.23-.29,0-.13.23-.4.4-.46Z"/>
    <path d="M937.17,830.99c-.19,0-.48.1-.57.19-.06.06-.17.29-.19.78-.02.42-.02,3.02-.04,5.42,0,1.89.04,3.28.04,3.78.02,1.28.08,1.68,1.3,1.97.42.1.59.25.59.44s-.36.29-.65.29c-.55,0-1.74-.1-2.67-.1-.61,0-1.64.06-2.29.06-.48,0-.78-.08-.78-.34,0-.15.29-.31.5-.38,1.03-.23,1.28-.55,1.36-1.51.06-.84.1-2.23.1-3.28,0-.69,0-5.4-.04-5.98-.04-.74-.17-1.07-1.32-1.22-.27-.04-.48-.19-.48-.32,0-.17.19-.29.44-.34.15-.02.5-.02.69-.02,1.34,0,3.06-.19,4.01-.19,2.02,0,3.38.38,4.24,1.24.99.97,1.22,2.1,1.22,2.83,0,1.72-.78,2.65-1.39,3.17-.55.46-1.7.94-2.52.94-.23,0-.82-.04-1.09-.15-.29-.13-.44-.23-.44-.42,0-.08.15-.21.31-.21h.31c.88,0,2.18-1.05,2.18-3.23,0-1.68-1.13-3.44-2.86-3.44Z"/>
    <path d="M943.97,836.05c.8-.25,1.74-.57,2.12-.8.23-.15.44-.25.5-.25.13,0,.25.19.25.25,0,.38-.06.78-.06,1.18,0,.06.1.15.17.08.65-.69,1.57-1.3,2.22-1.3.92,0,1.22.57,1.22.86,0,.06-.06.23-.13.34-.23.36-.88,1.22-1.03,1.24-.08,0-.32-.02-.38-.08-.23-.21-.92-.59-1.32-.59-.19,0-.4,0-.53.13-.13.11-.19.23-.19.42,0,.42.11,4.07.13,4.39.04.65.19,1.03.48,1.09.21.04.65.19.9.27.34.11.42.25.42.34,0,.17-.25.25-.59.25-.63,0-1.72-.1-2.96-.1-.44,0-.88.06-1.36.06-.25,0-.53-.06-.53-.29,0-.15.31-.25.48-.31.76-.27.8-.5.82-1.76v-3.46c0-.38-.04-.69-.17-.8-.34-.27-.76-.65-.76-.73,0-.04.04-.34.27-.4Z"/>
    <path d="M960.12,839.57c0,1.79-1.09,3.07-1.87,3.57-.86.61-1.93.86-2.9.86s-2.12-.44-2.9-1.09c-.9-.74-1.58-2.06-1.58-3.23,0-1.47.65-2.58,1.45-3.25.63-.55,1.81-1.22,3.36-1.22,2.1,0,4.43,1.64,4.43,4.37ZM954.26,836.36c-.48.44-.86,1.36-.86,2.75,0,.69.08,1.49.25,2.02.44,1.47,1.41,2.18,2.29,2.18.21,0,.61-.17.92-.55.44-.55.78-1.66.78-2.86,0-.88-.19-2.25-.84-3.17-.38-.48-.92-.84-1.51-.84-.36,0-.69.15-1.03.46Z"/>
    <path d="M961.76,836.09c.57-.15,1.87-.48,2.48-.82.15-.08.29-.13.38-.13s.23.19.23.27c-.02,1.09-.06,6.78-.08,7.33-.04,1.45-.34,2.67-.88,3.57-.5.86-1.16,1.66-1.85,2.2-.55.48-1.26.84-1.41.84-.1,0-.4-.1-.5-.25-.04-.04-.04-.19.06-.25.96-.61,1.18-.86,1.3-1.01.59-.71,1.03-2.37,1.03-5.1,0-1.03-.02-4.37-.06-5.04-.02-.29-.08-.53-.82-1.01-.06-.04-.23-.21-.23-.36,0-.08.13-.19.36-.25ZM964.78,832.1c0,.95-.84,1.28-1.3,1.28-.42,0-1.2-.5-1.22-1.26-.02-.4.19-.8.48-1.05.17-.17.34-.25.63-.25,1.09,0,1.41.94,1.41,1.28Z"/>
    <path d="M973.41,836.09c.48.46.8,1.11.8,1.85,0,.15-.21.5-.46.5h-4.58c-.11,0-.21.06-.23.15-.06.17-.08.48-.08.76,0,.46.25,1.43.65,1.95.53.67,1.41,1.05,2.33,1.05s1.49-.21,1.89-.73c.08-.13.19-.25.27-.25s.19.15.19.27-.06.36-.17.53c-.65,1.01-1.64,1.83-3.36,1.83-2.41,0-3.88-1.83-3.88-4.22,0-1.68.92-3.36,2.67-4.16.52-.25,1.15-.4,1.72-.4.84,0,1.7.34,2.25.88ZM969.07,837.58c-.02.1.06.21.15.21.55.02,1.2,0,2.25,0,.36,0,.73-.21.73-.71,0-.59-.59-1.28-1.18-1.28-.88,0-1.7.82-1.95,1.79Z"/>
    <path d="M982.72,835.77c.27.19.36.48.36.76,0,.38-.69.99-.82.99-.19,0-.53-.15-.97-.52-.57-.46-1.01-.9-1.66-.9-.23,0-.59.13-.9.46-.53.55-.82,1.6-.82,2.56,0,1.37.57,2.08.67,2.21.4.55,1.16,1.13,2.29,1.13.61,0,1.3-.25,2.02-.69.11-.06.27,0,.27.17,0,.21-.17.48-.34.65-.71.76-1.93,1.41-3.23,1.41-1.53,0-2.71-.8-3.3-1.68-.42-.65-.69-1.57-.69-2.44,0-1.64.84-2.83,2.1-3.65.73-.52,2.12-.9,2.96-.9.63,0,1.68.17,2.06.46Z"/>
    <path d="M989.84,835.44c.08,0,.31.08.31.23,0-.06.06.61.06.86,0,.21-.4.25-.55.25h-1.99c-.13,0-.21.1-.21.15,0,1.05-.02,3-.02,4.24,0,.53.1.78.34.99s.69.36,1.03.36c.21,0,.65-.15.92-.29.17-.1.27-.15.36-.15.06,0,.15.1.15.34,0,.19-.21.46-.34.61-.57.59-1.41.99-2.39.99-.84,0-1.62-.42-1.95-.9-.25-.36-.38-.67-.38-1.49s.08-3.82.08-4.56c0-.15-.36-.29-.8-.46-.17-.06-.25-.23-.25-.36,0-.08.02-.13.11-.19,1.05-.69,1.74-1.2,2.2-1.68.25-.29.4-.46.48-.46.15,0,.42.21.42.36v1.05c0,.06.1.19.19.19.46,0,2.14-.06,2.23-.06Z"/>
    <path d="M888.74,853.43c.8.59,1.09,1.3,1.09,2.04,0,1.78-1.22,2.79-2.9,3.32-.06,0-.1.06-.02.08,1.36.57,2.29,1.45,2.31,3.04,0,1.43-.8,2.6-2.06,3.21-1.03.57-2.31.71-3.4.71-.73,0-1.72-.08-2.54-.08-.78,0-1.74.08-2.12.08-.42,0-.44-.25-.02-.29,1.28-.13,1.45-.46,1.95-2.1.52-1.76,1.87-6.17,2.67-9.26.21-.84-.11-.92-1.09-.99-.44-.04-.42-.29.04-.29h1.2c.63,0,1.39-.11,2.23-.11,1.05,0,1.99.19,2.67.63ZM883.87,859.09c-.13.04-.23.29-.31.55-.34,1.09-1.18,4.05-1.32,4.79-.06.36.08.61.17.65.34.25,1.05.44,1.62.44,1.6,0,3.59-1.07,3.59-3.57,0-.71-.34-1.55-.88-2.1-.61-.59-1.49-.86-2.31-.86-.15,0-.4.06-.55.1ZM885.32,853.68c-.23.65-1.05,3.38-1.43,4.85-.02.13.02.17.1.17,1.36,0,2.27-.19,2.9-.57.78-.52,1.49-1.36,1.47-2.73,0-.97-.65-2.27-2.39-2.27-.23,0-.48.19-.65.55Z"/>
    <path d="M891.58,865.08c0,.55-.5.92-.88.92-.46,0-.65-.34-.65-.74,0-.55.46-.99.86-.99s.67.29.67.8Z"/>
    <path d="M903.59,852.92c3.07,0,3.84-.04,4.24-.19.08-.02.11.1.06.21-.34.52-.65,1.53-.76,2.06-.06.38-.31.4-.29-.04.08-1.41.1-1.68-1.53-1.68-.73,0-1.87.02-2.56.06-.15,0-.38.13-.55.53-.31.82-1.41,4.45-1.49,5.02-.02.13,0,.29.08.32.4.04,2.48-.04,3-.08.55-.04.88-.5,1.11-.92.19-.36.38-.34.27.08-.08.29-.27.78-.44,1.24-.08.36-.21.82-.25,1.24-.04.44-.32.36-.32-.04-.02-.74-.1-1.07-.86-1.07-1.3,0-2.06.02-2.62.06-.08,0-.23.08-.27.21-.27.71-1.05,3.46-1.26,4.47-.19.86.15.99,1.05,1.13.4.06.48.32-.08.32-.34,0-1.62-.08-1.95-.08-.61,0-1.51.08-2.04.08s-.4-.25.06-.32c.97-.1,1.16-.4,1.49-1.49.57-1.6,2.31-7.5,2.81-9.51.27-1.09.11-1.24-.82-1.34-.55-.06-.55-.29-.02-.29.69,0,1.55.04,2.39.04h1.53Z"/>
    <path d="M910.94,858.59s.08,0,.11-.04c.27-.48.42-.63.5-.63.15,0,.36.11.52.23.06.04.08.19.04.34-.17.55-1.45,3.88-2.21,6.11-.04.11.02.19.13.19.52,0,1.24-.63,1.76-1.34.12-.13.21-.11.17.06,0,.08-.06.21-.13.34-.54.97-1.85,2.23-2.92,2.23-.27,0-.46-.13-.46-.31,0-.27.61-1.7,1.18-3.23.04-.11-.02-.15-.06-.08-2.27,2.58-3.76,3.63-4.45,3.63-.34,0-.65-.34-.65-.88s.4-1.51,1.03-2.46c.69-1.07,1.76-2.23,2.9-3.11.82-.65,1.83-1.24,2.1-1.24.15,0,.32.11.44.21ZM907.54,860.84c-.82.9-1.72,2.73-1.72,3.65,0,.17.06.44.31.44.38,0,.92-.4,1.53-.94,1.32-1.24,2.35-2.83,2.9-4.39.02-.04,0-.1,0-.15-.08-.04-.34-.17-.59-.17-.82,0-1.78.82-2.44,1.55Z"/>
    <path d="M916.11,858.86c-.02.48-.65,2.06-.78,2.5-.06.23.04.29.15.11.48-.78.97-1.6,1.53-2.27.59-.76,1.28-1.26,1.83-1.26.46,0,.67.42.67.76,0,.78-.67,1.22-.9,1.22-.15,0-.25-.06-.23-.27,0-.59-.04-.92-.34-.92-.36,0-.97.71-2.02,2.75-.63,1.22-1.41,2.81-2.04,4.18-.12.29-.29.4-.38.4-.15,0-.4-.04-.53-.23-.04-.06-.06-.17-.02-.34.06-.27,1.07-3.19,2-5.92.13-.38.06-.52-.08-.52-.44,0-1.05.71-1.41,1.05-.12.1-.21.02-.21-.06.02-.46.88-1.95,2.1-1.95.44,0,.67.34.65.8Z"/>
    <path d="M923.25,858.42c0,.17-.13.74-.27,1.09-.46,1.18-1.7,4.18-2.16,5.23-.15.34-.06.4.04.4.29,0,1.2-.8,1.53-1.15.31-.36.25,0,.08.23-.84,1.22-1.93,1.83-2.58,1.83-.17,0-.4-.29-.4-.59-.02-.23.15-.76.5-1.62.38-.84,1.2-3,1.89-4.51.1-.23.06-.38-.04-.38-.29,0-.8.34-1.38.9-.34.34-.34.06-.15-.19.9-1.13,2.02-1.72,2.58-1.72.25,0,.34.29.36.48ZM924.57,853.8c.15,0,.25.4.25.57,0,.13-.11.29-.23.44-.48.63-1.2,1.49-1.74,2.08-.08.1-.23.25-.34.25-.06,0-.04-.17.04-.32.36-.61,1.28-2.08,1.7-2.77.15-.19.23-.25.32-.25Z"/>
    <path d="M929.84,858.59s.08,0,.1-.04c.27-.48.42-.63.5-.63.15,0,.36.11.53.23.06.04.08.19.04.34-.17.55-1.45,3.88-2.2,6.11-.04.11.02.19.12.19.53,0,1.24-.63,1.76-1.34.13-.13.21-.11.17.06,0,.08-.06.21-.12.34-.55.97-1.85,2.23-2.92,2.23-.27,0-.46-.13-.46-.31,0-.27.61-1.7,1.18-3.23.04-.11-.02-.15-.06-.08-2.27,2.58-3.76,3.63-4.45,3.63-.34,0-.65-.34-.65-.88s.4-1.51,1.03-2.46c.69-1.07,1.76-2.23,2.9-3.11.82-.65,1.83-1.24,2.1-1.24.15,0,.31.11.44.21ZM926.44,860.84c-.82.9-1.72,2.73-1.72,3.65,0,.17.06.44.32.44.38,0,.92-.4,1.53-.94,1.32-1.24,2.35-2.83,2.9-4.39.02-.04,0-.1,0-.15-.08-.04-.34-.17-.59-.17-.82,0-1.79.82-2.44,1.55Z"/>
    <path d="M936.33,858.34c.1.11.15.23.15.36,0,.27-.4.61-.57.61-.06,0-.15-.02-.29-.17-.23-.21-.59-.52-.92-.52-.46,0-.88.36-.86.99,0,.48.21,1.07.8,2.04.4.73.63,1.39.61,1.89,0,.63-.44,1.26-1.22,1.85-.67.5-1.36.67-1.83.67-.67,0-1.11-.53-1.13-1.05-.02-.21.08-.63.25-.78.08-.06.17-.08.23.02.34.61.88,1.15,1.57,1.15.63,0,1.15-.42,1.13-1.18,0-.4-.17-.94-.63-1.78-.55-.97-.71-1.49-.71-1.85,0-.53.29-1.28,1.01-1.89.55-.48,1.13-.76,1.6-.76.32,0,.65.17.82.4Z"/>
    <path d="M938.07,865.18c0,1.64-2.04,2.54-2.42,2.58-.27.02-.23-.08-.02-.19.76-.38,1.58-1.11,1.58-1.85,0-.44-.34-.61-.69-.69-.11-.02-.19-.17-.19-.25.02-.4.42-.76.82-.76.78,0,.92.73.92,1.15Z"/>
    <path d="M951.41,856.05c0,1.51-1.15,2.88-2.27,3.95-1.32,1.26-3.32,2.92-5.1,4.51-.08.06-.06.13.06.13,1.39,0,4.43-.02,4.96-.04.71-.02.99-.29,1.34-.82.31-.44.4-.19.21.19-.19.4-.8,1.43-.92,1.74-.04.08-.17.15-.23.15-.5,0-3.9-.1-5.06-.1-.76,0-1.01.02-1.55.02-.25,0-.44-.04-.44-.17,0-.1.17-.27.38-.44.9-.74,2.86-2.39,3.93-3.51,1.76-1.78,3.28-3.32,3.28-5.31,0-1.37-.76-2.12-1.93-2.12-.82,0-1.85.46-2.62,1.37-.17.17-.21.23-.29.23-.06,0-.02-.21.02-.29.65-1.18,2.04-2.29,3.59-2.29s2.67,1.18,2.67,2.81Z"/>
    <path d="M960.46,856.91c0,2.04-1.05,5.4-2.56,7.22-.99,1.22-2.08,1.89-3.04,1.89-2.18,0-2.46-2.23-2.46-3.67,0-2.04,1.11-5.44,2.52-7.14,1.07-1.26,2.1-1.97,3.23-1.97,2.04,0,2.31,2.16,2.31,3.67ZM955.84,855.63c-1.16,2.06-2.16,5.46-2.16,8.06,0,1.15.29,2.02,1.16,2.02,1.53,0,2.44-2.48,3.09-4.09.65-1.66,1.22-4.24,1.22-5.92,0-1.11-.17-2.16-1.05-2.16-.82,0-1.49.82-2.25,2.1Z"/>
    <path d="M968.79,856.05c0,1.51-1.15,2.88-2.27,3.95-1.32,1.26-3.32,2.92-5.1,4.51-.08.06-.06.13.06.13,1.39,0,4.43-.02,4.96-.04.71-.02.99-.29,1.34-.82.31-.44.4-.19.21.19-.19.4-.8,1.43-.92,1.74-.04.08-.17.15-.23.15-.5,0-3.9-.1-5.06-.1-.76,0-1.01.02-1.55.02-.25,0-.44-.04-.44-.17,0-.1.17-.27.38-.44.9-.74,2.86-2.39,3.93-3.51,1.76-1.78,3.28-3.32,3.28-5.31,0-1.37-.76-2.12-1.93-2.12-.82,0-1.85.46-2.62,1.37-.17.17-.21.23-.29.23-.06,0-.02-.21.02-.29.65-1.18,2.04-2.29,3.59-2.29s2.67,1.18,2.67,2.81Z"/>
    <path d="M977.84,856.91c0,2.04-1.05,5.4-2.56,7.22-.99,1.22-2.08,1.89-3.04,1.89-2.18,0-2.46-2.23-2.46-3.67,0-2.04,1.11-5.44,2.52-7.14,1.07-1.26,2.1-1.97,3.23-1.97,2.04,0,2.31,2.16,2.31,3.67ZM973.22,855.63c-1.16,2.06-2.16,5.46-2.16,8.06,0,1.15.29,2.02,1.16,2.02,1.53,0,2.44-2.48,3.09-4.09.65-1.66,1.22-4.24,1.22-5.92,0-1.11-.17-2.16-1.05-2.16-.82,0-1.49.82-2.25,2.1Z"/>
  </g>
  <path d="M631.61,404.37v35.99h-52.85v-35.99c0-14.57,11.86-26.42,26.43-26.42,14.57,0,26.42,11.85,26.42,26.42ZM619.64,482.48c0-8.11-6.58-14.69-14.7-14.69s-14.69,6.58-14.69,14.69c0,4.71,2.22,8.9,5.66,11.59l-5.66,27.85h29.39l-5.66-27.85c3.44-2.69,5.66-6.88,5.66-11.59ZM794.71,452.6c-3.22,7.77-10.8,12.84-19.21,12.84h-28.87v108.41c0,11.49-9.31,20.8-20.8,20.8h-239.79c-11.49,0-20.8-9.31-20.8-20.8v-108.41h-28.87c-8.41,0-16-5.07-19.21-12.84-3.22-7.77-1.44-16.72,4.51-22.66l169.55-169.56c8.12-8.12,21.29-8.12,29.42,0l169.55,169.56c5.95,5.95,7.73,14.9,4.51,22.67ZM668.2,446.47c0-3.38-2.74-6.11-6.11-6.11h-11.6v-35.99c0-24.98-20.32-45.3-45.3-45.3s-45.3,20.32-45.3,45.3v35.99h-10.09c-3.38,0-6.11,2.74-6.11,6.11v99.77c0,3.38,2.74,6.11,6.11,6.11h112.3c3.38,0,6.11-2.74,6.11-6.11v-99.77h0Z"/>
</svg>