<svg xmlns="http://www.w3.org/2000/svg" data-name="Layer 1" viewBox="0 0 512 640" x="0px" y="0px"><path d="M35.32715,155.27979h19.9458c3.05249,0,5.5271-2.47461,5.5271-5.52686V66.32666c0-3.05225,2.47461-5.52686,5.5271-5.52686h83.42578c3.05249,0,5.5271-2.47461,5.5271-5.52686v-19.94629c0-3.05225-2.47461-5.52686-5.5271-5.52686H56.16553c-14.56128,0-26.36548,11.8042-26.36548,26.36523v93.58789c0,3.05225,2.47461,5.52686,5.5271,5.52686Z"/><path d="M149.75293,451.2002H66.32715c-3.05249,0-5.5271-2.47461-5.5271-5.52686v-83.42676c0-3.05225-2.47461-5.52686-5.5271-5.52686h-19.9458c-3.05249,0-5.5271,2.47461-5.5271,5.52686v93.58789c0,14.56152,11.8042,26.36572,26.36548,26.36572h93.5874c3.05249,0,5.5271-2.47461,5.5271-5.52686v-19.94629c0-3.05225-2.47461-5.52686-5.5271-5.52686Z"/><path d="M362.24707,60.7998h83.42578c3.05249,0,5.5271,2.47461,5.5271,5.52686v83.42627c0,3.05225,2.47461,5.52686,5.5271,5.52686h19.9458c3.05249,0,5.5271-2.47461,5.5271-5.52686V56.16504c0-14.56104-11.8042-26.36523-26.36548-26.36523h-93.5874c-3.05249,0-5.5271,2.47461-5.5271,5.52686v19.94629c0,3.05225,2.47461,5.52686,5.5271,5.52686Z"/><path d="M476.67285,356.71973h-19.9458c-3.05249,0-5.5271,2.47461-5.5271,5.52686v83.42676c0,3.05225-2.47461,5.52686-5.5271,5.52686h-83.42578c-3.05249,0-5.5271,2.47461-5.5271,5.52686v19.94629c0,3.05225,2.47461,5.52686,5.5271,5.52686h93.5874c14.56128,0,26.36548-11.8042,26.36548-26.36572v-93.58789c0-3.05225-2.47461-5.52686-5.5271-5.52686Z"/><path d="M256,59.41797c1.93262,0,3.5-1.56738,3.5-3.5V16c0-1.93262-1.56738-3.5-3.5-3.5s-3.5,1.56738-3.5,3.5V55.91797c0,1.93262,1.56738,3.5,3.5,3.5Z"/><path d="M256,452.58203c-1.93262,0-3.5,1.56738-3.5,3.5v39.91797c0,1.93262,1.56738,3.5,3.5,3.5s3.5-1.56738,3.5-3.5v-39.91797c0-1.93262-1.56738-3.5-3.5-3.5Z"/><path d="M496,252.5h-39.91797c-1.93262,0-3.5,1.56738-3.5,3.5s1.56738,3.5,3.5,3.5h39.91797c1.93262,0,3.5-1.56738,3.5-3.5s-1.56738-3.5-3.5-3.5Z"/><path d="M59.41797,256c0-1.93262-1.56738-3.5-3.5-3.5H16c-1.93262,0-3.5,1.56738-3.5,3.5s1.56738,3.5,3.5,3.5H55.91797c1.93262,0,3.5-1.56738,3.5-3.5Z"/><path d="M16,226.21973H87.99658c-1.72314,9.77002-2.60596,19.77295-2.60596,29.78027,0,94.07422,76.53516,170.60938,170.60938,170.60938s170.60938-76.53516,170.60938-170.60938c0-10.00732-.88281-20.01025-2.60596-29.78027h71.99658c1.93262,0,3.5-1.56738,3.5-3.5s-1.56738-3.5-3.5-3.5h-119.2085c-7.67212-25.20752-23.46265-47.86426-44.5708-63.87305-22.0791-16.74512-48.43652-25.59668-76.2207-25.59668s-54.14062,8.85059-76.2207,25.5957c-21.1084,16.00879-36.89893,38.66602-44.57104,63.87402h-38.66089c8.06323-35.05957,27.81152-66.87988,55.82861-89.83691,29.11328-23.85449,65.91406-36.99219,103.62402-36.99219,35.55371,0,69.3623,11.20801,97.76953,32.41211,27.46973,20.50488,48.20801,49.71582,58.39551,82.25391,.57812,1.84375,2.54004,2.87402,4.38574,2.29395,1.84473-.57715,2.87207-2.54102,2.29395-4.38574-10.62305-33.93164-32.24707-64.39258-60.8877-85.77148-29.62598-22.11426-64.88184-33.80273-101.95703-33.80273-39.32324,0-77.69922,13.7002-108.06055,38.57715-29.62939,24.27832-50.38867,58.06836-58.5647,95.25195H16c-1.93262,0-3.5,1.56738-3.5,3.5s1.56738,3.5,3.5,3.5Zm168.00977-65.2959c20.85254-15.81445,45.74609-24.17383,71.99023-24.17383s51.13867,8.35938,71.99121,24.17383c19.37061,14.69092,33.99219,35.30664,41.45532,58.2959H142.55322c7.46313-22.98877,22.08472-43.60596,41.45654-58.2959Zm116.37036,120.49707c-8.83813,15.36914-25.41455,25.74902-44.38013,25.74902-28.21484,0-51.16992-22.95508-51.16992-51.16992,0-8.11865,1.88086-15.97119,5.48291-23.0791,6.5813,32.25586,35.07129,56.5249,69.27563,56.5249,.07764,0,.15503,0,.23267-.00049,7.85059-.02539,15.08496-3.05176,20.55884-8.02441Zm-205.27173-55.20117h110.91211c-5.36963,8.98047-8.19043,19.18164-8.19043,29.78027,0,32.0752,26.09473,58.16992,58.16992,58.16992s58.16992-26.09473,58.16992-58.16992c0-10.62891-2.82324-20.80762-8.19556-29.78027h65.51221c2.49072,9.67383,3.76343,19.68701,3.76343,29.78027,0,65.75488-53.49512,119.25-119.25,119.25s-119.25-53.49512-119.25-119.25c0-6.40625,.5127-12.83594,1.52344-19.11035,.30762-1.9082-.99023-3.7041-2.89844-4.01172-1.91504-.30664-3.70508,.99023-4.01172,2.89844-1.07031,6.6416-1.61328,13.44531-1.61328,20.22363,0,69.61426,56.63574,126.25,126.25,126.25s126.25-56.63574,126.25-126.25c0-10.07617-1.20386-20.07861-3.55249-29.78027h38.19409c1.79688,9.75439,2.71777,19.76416,2.71777,29.78027,0,90.21484-73.39453,163.60938-163.60938,163.60938s-163.60938-73.39453-163.60938-163.60938c0-10.01611,.9209-20.02588,2.71777-29.78027Z"/><text x="0" y="527" fill="#000000" font-size="5px" font-weight="bold" font-family="'Helvetica Neue', Helvetica, Arial-Unicode, Arial, Sans-serif">Created by iconfield</text><text x="0" y="532" fill="#000000" font-size="5px" font-weight="bold" font-family="'Helvetica Neue', Helvetica, Arial-Unicode, Arial, Sans-serif">from the Noun Project</text></svg>