<?xml version="1.0" encoding="UTF-8"?>
<svg id="Capa_1" xmlns="http://www.w3.org/2000/svg" xmlns:serif="http://www.serif.com/" version="1.1" viewBox="0 0 100 125">
  <!-- Generator: Adobe Illustrator 29.8.2, SVG Export Plug-In . SVG Version: 2.1.1 Build 3)  -->
  <defs>
    <style>
      .st0 {
        fill: none;
      }

      .st1 {
        fill-rule: evenodd;
      }
    </style>
  </defs>
  <rect class="st0" y="0" width="100" height="100" serif:id="62 - accessibility"/>
  <path class="st1" d="M50,5C25.2,5,5,25.2,5,50s20.2,45,45,45,45-20.2,45-45S74.8,5,50,5ZM43.4,47.8c-.8,8.9-2.8,17.6-6,26-.8,2.1.3,4.4,2.3,5.1,2.1.8,4.4-.3,5.1-2.3,2.3-6,4-12,5.1-18.2,1.2,6.2,2.9,12.3,5.1,18.2.8,2.1,3.1,3.1,5.1,2.3,2.1-.8,3.1-3.1,2.3-5.1-3.2-8.4-5.2-17.1-6-26,4.8-.2,9.5-.7,14.3-1.5,2.2-.4,3.6-2.4,3.3-4.6-.4-2.2-2.4-3.6-4.6-3.3-13.1,2.1-26.2,2-39.2,0-2.2-.3-4.2,1.1-4.5,3.3-.3,2.2,1.1,4.2,3.3,4.5,4.8.7,9.5,1.2,14.3,1.5ZM50,22.3c4,0,7.2,3.2,7.2,7.2s-3.2,7.2-7.2,7.2-7.2-3.2-7.2-7.2,3.2-7.2,7.2-7.2Z"/>
</svg>