<svg xmlns="http://www.w3.org/2000/svg" data-name="Layer 1" viewBox="0 0 512 640" x="0px" y="0px"><path d="M309.22168,311.43262c-3.25977-5.65869-9.56934-8.99707-16.08594-8.52295l-38.88013,2.87085c4.91089-14.57178,8.29224-27.92041,10.25806-40.46753,1.87109-11.9458-3.37891-23.99609-13.37695-30.7002-2.46777-1.65576-5.52051-2.12549-8.37109-1.28662-2.85156,.83789-5.16357,2.88232-6.34375,5.60986l-24.36084,56.28174c-2.38818,5.51807-6.0249,10.51855-10.5166,14.46045-11.33154,9.94678-23.09961,23.21436-35.97607,40.56201-4.46191,6.01172-11.32129,10.07031-18.81934,11.13428l-15.25488,2.16455c-1.91406,.27148-3.24512,2.04297-2.97363,3.95703,.24805,1.74707,1.74561,3.00879,3.46094,3.00879,.16357,0,.32959-.01172,.49609-.03516l15.25488-2.16455c9.33789-1.3252,17.88721-6.38916,23.45703-13.89307,12.57764-16.94482,24.01758-29.85693,34.97266-39.47314,5.26465-4.62012,9.52588-10.47852,12.32275-16.94092l24.36084-56.28174c.48242-1.11426,1.39307-1.52734,1.89307-1.67383,.50146-.14648,1.49072-.29297,2.5,.38379,7.74463,5.19385,11.81104,14.53711,10.35889,23.80273-2.57324,16.42432-7.66602,34.32812-15.56934,54.73486-.69824,1.80273,.19727,3.82959,1.99951,4.52783,1.80371,.7002,3.83008-.19678,4.52783-1.99951,1.11694-2.88379,2.17358-5.71533,3.18188-8.50635l41.91382-3.09473c3.84082-.29541,7.57812,1.69141,9.50488,5.03613l2.82227,4.89844c1.37793,2.39062,1.71875,5.16895,.96191,7.82227-.75781,2.65381-2.51465,4.83301-4.94727,6.13672l-20.12305,10.78223c-4.97266,2.66504-10.34766,4.2168-15.97656,4.61328l-25.62988,1.80371c-1.66162,.11426-3.20752-.56836-4.23779-1.87988-1.0293-1.31201-1.32812-2.9751-.81885-4.56299,.3291-1.02637,1.14941-1.79541,2.19434-2.05713l32.43848-8.11914c1.70312-.42529,3.35449-1.05811,4.9082-1.88037l12.64844-6.69141c1.70898-.90381,2.36133-3.02197,1.45703-4.73047-.9043-1.70898-3.02344-2.36133-4.73047-1.45703l-12.64844,6.69141c-1.05566,.55859-2.17676,.98828-3.33301,1.27734l-32.43945,8.11914c-3.41064,.854-6.0874,3.3623-7.16113,6.71094-1.21143,3.7793-.47168,7.89941,1.97852,11.02148,.29883,.38062,.62036,.7373,.95776,1.07471-1.67773,1.65771-2.87793,3.80933-3.34302,6.24854l-.46484,2.4375c-.64844,3.40137,.20898,6.91162,2.35205,9.63135,.91235,1.15723,2.02637,2.10742,3.26245,2.84619-1.72852,1.8916-3.00488,4.23193-3.61743,6.87939-.97607,4.21484-.11475,8.66699,2.3623,12.21387,.44531,.6377,.9502,1.22119,1.48047,1.77734-1.55811,1.177-2.85352,2.72729-3.73682,4.57666-1.64844,3.45068-1.63184,7.40137,.04443,10.83838,1.67676,3.4375,4.78027,5.88232,8.51465,6.70752l31.21313,6.89844c-18.65527,16.07593-69.59595,7.52759-109.57251-5.46094-1.84131-.59961-3.81348,.40869-4.41016,2.24707-.59766,1.83838,.40869,3.81299,2.24707,4.41016,7.80029,2.53442,15.56836,4.77319,23.1665,6.68848-17.15723,2.95557-33.1311,7.71704-47.70654,14.22974l-15.07959-80.198c-1.27344-6.771-7.81396-11.24609-14.58936-9.97119l-18.99316,3.57129c-1.90552,.35815-3.65576,1.14648-5.16406,2.27466l-.18213-.96899c-.59277-3.15234-2.37793-5.88525-5.02588-7.69531-2.64893-1.81055-5.84326-2.48145-8.99561-1.88818l-49.88623,9.37988c-1.89941,.35742-3.1499,2.18701-2.79297,4.08691,.35742,1.89941,2.18457,3.15088,4.08691,2.79297l49.88574-9.37988c1.31396-.24951,2.64746,.03271,3.75195,.78711,1.10498,.75537,1.84912,1.89502,2.09619,3.20996l2.25439,11.9895v.00024l17.07935,90.83398c.00024,.00098,0,.00195,.00024,.00293,.00037,.00195,.00098,.00391,.00146,.00586l2.25342,11.98486c.24707,1.31494-.03271,2.64746-.7876,3.75195s-1.89502,1.84912-3.20996,2.09619l-43.73535,8.22314c-1.89941,.35742-3.1499,2.18701-2.79297,4.08691,.31641,1.68115,1.78564,2.85352,3.43604,2.85352,.21436,0,.43213-.01953,.65088-.06055l43.73535-8.22314c3.15234-.59326,5.88525-2.37793,7.69531-5.02637s2.48047-5.84277,1.8877-8.99561l-.18115-.96313c1.07251,.29736,2.17993,.45679,3.30127,.45679,.77539,0,1.55664-.07275,2.33545-.21875l18.99268-3.57129c3.28027-.6167,6.12402-2.47412,8.00781-5.22949,1.8833-2.75537,2.58105-6.07959,1.96436-9.35986l-.66675-3.5459c19.6145-9,41.95264-14.68506,66.4563-16.88379,.06372-.00586,.12183-.02637,.18457-.0354,9.2832,1.68286,18.07983,2.79053,26.07324,3.23999,2.86865,.16162,5.62891,.24219,8.28564,.24219,20.29517,0,34.37305-4.71777,41.96924-14.03979,.76538,.12549,1.53467,.20874,2.30518,.20874,2.86133,0,5.69727-.85742,8.08887-2.49121,3.24902-2.21973,5.45996-5.72266,6.06641-9.61084,.5752-3.68848-.29468-7.35498-2.42529-10.39526,5.30615-2.25708,9.32324-7.17847,10.10205-13.29175,.57715-4.52197-.74219-9.11475-3.60596-12.65381,1.85767-.67188,3.57837-1.71704,5.05811-3.12842,2.88867-2.75488,4.47949-6.46973,4.47949-10.46143v-10.55762c0-5.13086-2.62793-9.76758-7.03027-12.40283-.0105-.00635-.02124-.01147-.03174-.01758l4.72119-2.52979c4.11621-2.20605,7.08887-5.89404,8.37109-10.38525,1.28223-4.49023,.7041-9.19141-1.62695-13.23828l-2.82227-4.89844Zm-219.38281,71.4917c-2.44348-.47534-4.74023,.30664-6.37598,1.80273l-1.94775-10.35913v-.00024c-.27148-1.44238,.03516-2.9043,.86377-4.11572,.82812-1.21191,2.07861-2.02881,3.52148-2.2998l18.99365-3.57129c2.97266-.56104,5.85596,1.40723,6.41602,4.38525l6.10291,32.45801c-6.27039-9.33447-16.08386-16.06445-27.5741-18.2998Zm197.27734,31.39062c-.31445,2.01514-1.41504,3.7583-3.09961,4.90918-1.68359,1.1499-3.71094,1.54102-5.7002,1.10156l-38.47412-8.50342c-1.6377-.36182-2.99854-1.43408-3.73389-2.94141s-.74219-3.23975-.01953-4.75293c1.01611-2.12744,3.26807-3.36035,5.60986-3.06836l39.1001,4.87744c1.97949,.24658,3.73047,1.25977,4.93164,2.85254,1.2002,1.59277,1.69238,3.55469,1.38574,5.52539Zm7.64941-23.49365c-.67969,5.32178-5.57617,9.10449-10.88379,8.4458l-40.33301-5.03125c-2.36377-.29492-4.41699-1.5332-5.78125-3.48633-1.36377-1.95312-1.81885-4.30664-1.28174-6.62744,.87695-3.78809,4.23584-6.43213,8.08398-6.43213,.14795,0,.29639,.00391,.44531,.01172l40.58838,2.14404c2.73926,.14502,5.21582,1.38428,6.97363,3.48975,1.75781,2.10596,2.53516,4.76416,2.18848,7.48584Zm5.875-35.9165v10.55762c0,2.05859-.82031,3.9751-2.31055,5.39551-1.49023,1.4209-3.43359,2.15283-5.49902,2.05225l-53.66211-2.54688c-1.45312-.06885-2.74902-.73633-3.64941-1.87842-.90039-1.14258-1.24658-2.55859-.97412-3.9873l.46484-2.4375c.41992-2.20166,2.2749-3.84912,4.51074-4.00684l25.29932-1.78027c.00049,0,.00122-.00024,.00195-.00024l1.56348-.11011c6.61914-.46582,12.94141-2.2915,18.79102-5.42578l4.48291-2.40186c.00146-.00098,.00293-.00122,.00439-.00195,2.33105-1.24902,5.0791-1.18506,7.35059,.1748,2.27051,1.35938,3.62598,3.75049,3.62598,6.39697Z"/><path d="M60.21875,380.20215c-.35791-1.89941-2.18652-3.14893-4.08691-2.79297l-40.77881,7.66748c-1.89941,.35742-3.1499,2.18701-2.79297,4.08691,.31641,1.68115,1.78564,2.85352,3.43604,2.85352,.21436,0,.43213-.01953,.65088-.06055l40.77881-7.66748c1.89941-.35742,3.1499-2.18701,2.79297-4.08691Z"/><path d="M499.19922,334.29199l-19.72852-44.44482c-2.81641-6.34619-10.27246-9.21631-16.61816-6.40039l-1.30859,.58081c.14355-2.10083-.2229-4.21851-1.10156-6.19751l-8.37793-18.87402c-1.4209-3.20117-4.00293-5.65723-7.27148-6.91602-3.2666-1.25781-6.83008-1.16943-10.03223,.25146l-6.3064,2.79932-4.2063-9.06055c-2.41797-5.20801-4.12988-10.71729-5.08887-16.37549l-8.25391-48.68848c-1.04492-6.16016-1.1084-12.4375-.18945-18.65723,4.51367-30.5332,9.08887-65.17822,8.80859-90.63037-.03516-3.2124-1.53711-6.15479-4.12109-8.07373-2.5957-1.92773-5.86328-2.5166-8.96875-1.61719-7.66602,2.22168-13.23145,8.75586-14.17773,16.64648-.92383,7.70117-2.823,16.4856-5.07861,25.8457l-3.59814-35.62939c-.2002-1.99268-.73633-3.9209-1.59082-5.73096l-20.35449-43.11572c-2.88672-6.11572-9.86523-9.01416-16.23828-6.74023-6.23828,2.22705-9.83691,8.75537-8.37012,15.18506,1.5105,6.62378,2.40479,12.60889,2.72925,18.13037l-21.39526-20.2915c-3.05859-2.90039-7.34277-4.09131-11.45996-3.18701-4.11719,.90527-7.50684,3.78369-9.06641,7.69971-1.7373,4.36182-.93457,9.2998,2.09473,12.88672l27.11719,32.11279c3.18359,3.77002,5.18164,8.35254,5.77734,13.25195l.93359,7.6748c.2334,1.91846,1.97168,3.27832,3.89746,3.05176,1.91895-.23389,3.28516-1.97852,3.05176-3.89746l-.93359-7.6748c-.76172-6.25586-3.3125-12.10791-7.37891-16.92285l-27.11719-32.11279c-1.3584-1.6084-1.71875-3.82324-.93848-5.77979,.70996-1.78271,2.19141-3.04102,4.06543-3.45312,1.87695-.4126,3.74805,.10889,5.14062,1.4292l45.61719,43.26416c2.20605,2.09229,3.91406,4.70898,4.94141,7.56738l21.83203,60.74805c.51367,1.42822,1.85938,2.31738,3.29395,2.31738,.39258,0,.79297-.06689,1.18359-.20703,1.81934-.65381,2.76367-2.65869,2.11035-4.47754l-2.36279-6.57422-.89844-8.896c.49756-1.99121,.99365-3.96655,1.48389-5.91504,3.63379-14.4502,7.06641-28.09912,8.46094-39.72559,.61133-5.09619,4.21387-9.31885,9.17773-10.75684,.98145-.28662,2.02148-.09961,2.8457,.51318,.8125,.60303,1.28418,1.52539,1.29492,2.53125,.27539,24.96436-4.25977,59.26709-8.73242,89.52979-1.02734,6.94873-.95605,13.96387,.21094,20.85059l8.25391,48.68848c1.06348,6.27246,2.96191,12.37988,5.6416,18.15283l4.15674,8.95386-68.63916,30.46851-.86719-1.70752c-4.25586-8.38281-10.44238-15.84619-17.88965-21.58301l-80.83301-62.26562c-5.3125-4.09229-8.48389-10.53857-8.48389-17.24463v-25.17627c0-1.42969,.65137-2.74707,1.7876-3.61523,1.13623-.86768,2.57861-1.14844,3.95752-.77393,5.44629,1.48389,9.65283,5.60156,11.25244,11.01465l1.5957,5.40381c2.03613,6.88818,6.99121,12.45654,13.5957,15.27734l19.84277,8.47656c5.89941,2.51953,12.68652,.68213,16.51074-4.4668l15.81836-21.30664c3.72266-5.01465,3.39648-12.02686-.77539-16.67334l-18.5332-20.64941c-5.68066-6.33105-15.22754-6.9917-21.72852-1.50293l-26.64453,22.5c-2.31714-2.00464-5.04907-3.54614-8.06934-4.51709,.11572-.17529,.24243-.35059,.396-.52393l33.12939-37.38477c6.22266-7.02051,16.41113-8.95996,24.77734-4.71045l38.5,19.55273c7.36523,3.74072,13.11816,10.02246,16.19824,17.6875l4.11328,10.24023c.54883,1.36572,1.8623,2.19629,3.24902,2.19629,.43457,0,.87598-.08154,1.30371-.25342,1.79395-.72021,2.66406-2.7583,1.94336-4.55225l-4.11328-10.24072c-3.71289-9.23877-10.64648-16.81006-19.52441-21.31885l-38.5-19.55273c-11.20605-5.68994-24.85059-3.09473-33.18555,6.30908l-33.13037,37.38477c-1.26099,1.4231-2.12939,3.12744-2.56128,4.94336-1.30298,.39648-2.54517,1.02148-3.66772,1.87891-2.88379,2.20312-4.5376,5.54785-4.5376,9.17725v25.17627c0,8.8623,4.19141,17.38184,11.2124,22.79053l80.83301,62.26562c6.62695,5.10449,12.13184,11.74609,15.91895,19.20605l.70215,1.38281-2.51465,1.11621c-3.20117,1.4209-5.65723,4.00342-6.91602,7.27148s-1.16895,6.83105,.25195,10.03174l8.37793,18.87402c.87866,1.97949,2.20312,3.67139,3.85742,4.97412l-1.30859,.58105c-3.07422,1.36475-5.43359,3.84473-6.6416,6.9834-1.20898,3.13867-1.12305,6.56006,.24121,9.63428l43.67285,98.38818c.5791,1.30518,1.85938,2.08105,3.20117,2.08105,.47461,0,.95605-.09717,1.41797-.30176,1.7666-.78467,2.56348-2.85254,1.7793-4.61914l-43.67285-98.38818c-.60645-1.36523-.64453-2.88477-.10742-4.27881,.53613-1.39355,1.58398-2.49463,2.94922-3.10059l102.17993-45.35669c.00024-.00024,.00049-.00024,.00073-.00024l.00146-.00073,11.91357-5.28833c2.81934-1.25195,6.12988,.02441,7.37988,2.8418l19.72852,44.44482c.7832,1.7666,2.85059,2.56201,4.61914,1.7793,1.7666-.78467,2.56348-2.85254,1.7793-4.61914ZM370.69043,79.83105c-1.39551-3.88281-3.71582-7.43701-6.71191-10.27881l-17.11841-16.23535c.22778-7.8623-.74951-16.51416-3.00952-26.4248-.67773-2.9751,.99805-6,3.89941-7.03564,2.96582-1.05762,6.21191,.29004,7.55469,3.13574l20.35449,43.11621c.51367,1.08789,.83594,2.24609,.95605,3.44434l3.75903,37.22363-9.68384-26.94531Zm-77.50879,57.12451c3.59082-3.03223,8.86426-2.66846,12.00391,.83008l18.5332,20.64941c1.95801,2.18066,2.11035,5.47168,.36328,7.82471l-15.81836,21.30664c-1.88477,2.53809-5.23145,3.44482-8.13965,2.20215l-19.84277-8.47656c-4.67871-1.99854-8.19043-5.94385-9.63281-10.82324l-1.5957-5.40332c-.59375-2.01025-1.43848-3.89551-2.5-5.62305l26.62891-22.48682Zm160.98047,148.39062c-.58691,1.52319-1.73193,2.72705-3.22388,3.38916l-14.64966,6.50293c1.2793-3.91284,.31079-8.4978-3.26318-11.48315-8.25073-6.89233-18.55591-10.36938-28.927-10.19409l33.5022-14.87158c1.49316-.66211,3.15234-.70312,4.67676-.11719,1.52344,.58691,2.72656,1.73193,3.38867,3.22363l8.37793,18.87451c.66309,1.49219,.7041,3.15283,.11816,4.67578Z"/><path d="M463.91504,308.35693c-.78613-1.76709-2.85254-2.56348-4.61914-1.7793-1.7666,.78467-2.56348,2.85254-1.7793,4.61914l18.82031,42.39844c.58008,1.30518,1.85938,2.08105,3.20117,2.08105,.47461,0,.95605-.09717,1.41797-.30176,1.7666-.78467,2.56348-2.85254,1.7793-4.61914l-18.82031-42.39844Z"/><path d="M36.10999,211.54614c.89465,6.43188,6.85852,10.90259,13.28308,9.95801l118.76978-17.46436c2.22681-.32739,4.50073-.00537,6.54883,.92773l38.90405,17.72314c3.68091,1.677,7.77441-1.33325,7.271-5.34692l-4.80933-38.33545c-.13965-1.11353-.11841-2.24121,.06323-3.34863l14.65869-89.36328c1.09595-6.68066-3.69312-12.89331-10.43286-13.53369L28.80261,54.55566c-7.51575-.71436-13.72864,5.77441-12.68835,13.2522l19.99573,143.73828ZM177.9585,117.23975c8.62524,0,15.61768,6.99219,15.61768,15.61768s-6.99243,15.61768-15.61768,15.61768-15.61768-6.99219-15.61768-15.61768,6.99219-15.61768,15.61768-15.61768Zm-54.48059,0c8.62537,0,15.6178,6.99219,15.6178,15.61768s-6.99243,15.61768-15.6178,15.61768-15.61768-6.99219-15.61768-15.61768,6.99231-15.61768,15.61768-15.61768Zm-54.48047,0c8.62537,0,15.61768,6.99219,15.61768,15.61768s-6.99231,15.61768-15.61768,15.61768-15.61768-6.99219-15.61768-15.61768,6.99231-15.61768,15.61768-15.61768Z"/><text x="0" y="527" fill="#000000" font-size="5px" font-weight="bold" font-family="'Helvetica Neue', Helvetica, Arial-Unicode, Arial, Sans-serif">Created by iconfield</text><text x="0" y="532" fill="#000000" font-size="5px" font-weight="bold" font-family="'Helvetica Neue', Helvetica, Arial-Unicode, Arial, Sans-serif">from the Noun Project</text></svg>