<svg xmlns="http://www.w3.org/2000/svg" data-name="Layer 1" viewBox="0 0 512 640" x="0px" y="0px"><path d="M467.74951,120.19336c-2.16797-.25684-3.81104-2.07227-3.81104-4.25537v-49.02637c0-10.4104-8.43945-18.84985-18.8501-18.84985h-170.23828c-7.4502,0-13.87158,4.33301-16.93213,10.60669-3.28857-8.25464-11.35498-14.10693-20.76758-14.10693h-49.02637c-.40234,0-.73047-.30371-.78027-.72217-2.11523-17.86621-17.2959-31.33936-35.3125-31.33936-18.01562,0-33.19727,13.47314-35.31348,31.33936-.0498,.41846-.37793,.72217-.78027,.72217h-49.02539c-12.32422,0-22.35059,10.02637-22.35059,22.3501V237.1499c0,7.91553,4.14014,14.87817,10.36499,18.8501-6.22485,3.97192-10.36499,10.93457-10.36499,18.8501v49.02588c0,.40234-.30371,.73047-.72168,.78027-17.86719,2.11572-31.33984,17.29688-31.33984,35.31299s13.47266,33.19727,31.33887,35.31299c.41895,.0498,.72266,.37744,.72266,.77979v49.02637c0,12.32373,10.02637,22.3501,22.35059,22.3501H237.15039c1.93262,0,3.5-1.56689,3.5-3.5s-1.56738-3.5-3.5-3.5H66.91211c-8.46484,0-15.35059-6.88623-15.35059-15.3501v-49.02637c0-3.94141-2.96582-7.26514-6.89941-7.73096-14.34473-1.69873-25.16211-13.8916-25.16211-28.36182s10.81738-26.66309,25.16309-28.36182c3.93262-.46582,6.89844-3.78955,6.89844-7.73145v-49.02588c0-8.46387,6.88574-15.3501,15.35059-15.3501h49.02539c3.94141,0,7.26562-2.96631,7.73145-6.89941,1.69922-14.34473,13.89258-25.16211,28.3623-25.16211s26.66309,10.81738,28.36133,25.16211c.46582,3.93311,3.79004,6.89941,7.73145,6.89941h64.37598v64.37598c0,.40234-.30371,.73047-.72266,.78027-17.86621,2.11572-31.33887,17.29688-31.33887,35.31299s13.47266,33.19727,31.33887,35.31299c.41895,.0498,.72266,.37744,.72266,.77979v49.02637c0,12.32373,10.02637,22.3501,22.34961,22.3501h49.02637c.40234,0,.73047,.30371,.78027,.72217,2.11523,17.86621,17.2959,31.33936,35.3125,31.33936,18.01562,0,33.19727-13.47314,35.31348-31.33936,.0498-.41846,.37793-.72217,.78027-.72217h49.02637c12.32324,0,22.34961-10.02637,22.34961-22.3501v-170.23828c0-9.41284-5.85254-17.47949-14.10645-20.76807,6.27344-3.06055,10.60645-9.48193,10.60645-16.93188v-49.02637c0-2.18311,1.64307-3.99878,3.81104-4.25537,15.91064-1.88452,28.25049-15.41992,28.25049-31.83765s-12.33984-29.95312-28.25049-31.8374Zm-146.85938,21.55811l24.68848-3.5874c.66162-.09619,1.23291-.51147,1.52881-1.11084l11.04102-22.37158c.74463-1.50903,2.89648-1.50903,3.6416,0l11.04102,22.37158c.29541,.59937,.86719,1.01465,1.52832,1.11084l24.68896,3.5874c1.66553,.24194,2.33008,2.28857,1.125,3.46289l-17.86475,17.41406c-.47852,.46655-.69678,1.13867-.58398,1.79712l4.21729,24.58911c.28467,1.65845-1.45605,2.92334-2.9458,2.14014l-22.08203-11.60938c-.5918-.31079-1.29834-.31079-1.88965,0l-22.08252,11.60938c-1.48926,.7832-3.22998-.48169-2.9458-2.14014l4.21729-24.58911c.11328-.65845-.10498-1.33057-.5835-1.79712l-17.86523-17.41406c-1.20508-1.17432-.54004-3.22095,1.12549-3.46289Zm-132.76611,110.74854c-.40234,0-.73047-.30371-.78027-.72266-2.11523-17.86621-17.2959-31.33887-35.3125-31.33887-18.01562,0-33.19727,13.47266-35.31348,31.33887-.0498,.41895-.37793,.72266-.78027,.72266h-49.02539c-8.46387,0-15.35059-6.88623-15.35059-15.3501V66.91162c0-8.46387,6.88672-15.3501,15.35059-15.3501h49.02539c3.94141,0,7.26562-2.96582,7.73145-6.89893,1.69922-14.34521,13.89258-25.1626,28.3623-25.1626s26.66309,10.81738,28.36133,25.16309c.46582,3.93262,3.79004,6.89844,7.73145,6.89844h49.02637c8.46387,0,15.34961,6.88623,15.34961,15.3501v49.02637c0,3.94141,2.96582,7.26514,6.89941,7.73096,14.34473,1.69873,25.16211,13.8916,25.16211,28.36182s-10.81738,26.66309-25.16309,28.36182c-3.93262,.46582-6.89844,3.79004-6.89844,7.73145v64.37598h-64.37598Zm272.31445,22.3501v170.23828c0,8.46387-6.88574,15.3501-15.34961,15.3501h-49.02637c-3.94141,0-7.26562,2.96582-7.73145,6.89893-1.69922,14.34473-13.89258,25.1626-28.3623,25.1626s-26.66309-10.81738-28.36133-25.1626c-.46582-3.93311-3.79004-6.89893-7.73145-6.89893h-49.02637c-8.46387,0-15.34961-6.88623-15.34961-15.3501v-49.02637c0-3.94141-2.96582-7.26514-6.89941-7.73096-14.34473-1.69873-25.16211-13.8916-25.16211-28.36182s10.81738-26.66309,25.16309-28.36182c3.93262-.46582,6.89844-3.79004,6.89844-7.73145v-64.37598h64.37598c.40234,0,.73047,.3042,.78027,.72266,2.11523,17.86621,17.2959,31.33936,35.3125,31.33936,18.01562,0,33.19727-13.47314,35.31348-31.33936,.0498-.41846,.37793-.72266,.78027-.72266h49.02637c8.46387,0,15.34961,6.88623,15.34961,15.3501Z"/><path d="M152.03125,315.43066c-24.55859,0-44.53906,19.97998-44.53906,44.53857s19.98047,44.53809,44.53906,44.53809,44.53809-19.97949,44.53809-44.53809-19.97949-44.53857-44.53809-44.53857Zm13.19141,15.14307c-.5791-.02197-1.16162-.03174-1.74658-.02954-22.35352,.08984-40.78418,18.52393-40.87012,40.8772-.00049,.17969-.00024,.35938,.00146,.53833,.05762,6.38843,2.1814,12.29761,5.72778,17.09766-8.44116-6.88892-13.84302-17.36816-13.84302-29.08813,0-20.69873,16.83984-37.53857,37.53906-37.53857,11.56128,0,21.91528,5.25708,28.80688,13.50293-4.45386-3.18018-9.82642-5.14038-15.61548-5.35986Z"/><path d="M181.58203,107.49268h-59.10254c-8.26367,0-14.9873,6.72314-14.9873,14.9873v59.10205c0,8.26416,6.72363,14.9873,14.9873,14.9873h49.49902c1.93262,0,3.5-1.56689,3.5-3.5s-1.56738-3.5-3.5-3.5h-49.49902c-4.4043,0-7.9873-3.58301-7.9873-7.9873v-59.10205c0-4.4043,3.58301-7.9873,7.9873-7.9873h59.10254c4.4043,0,7.9873,3.58301,7.9873,7.9873v59.10205c0,1.93311,1.56738,3.5,3.5,3.5s3.5-1.56689,3.5-3.5v-59.10205c0-8.26416-6.72363-14.9873-14.9873-14.9873Z"/><path d="M365.00098,320.64746c-1.0498-1.81982-2.93066-2.90625-5.03223-2.90625-2.10059,0-3.98145,1.08594-5.03125,2.90527l-43.38477,75.14453c-1.05078,1.81885-1.05176,3.99072-.00098,5.81006,1.0498,1.81982,2.93164,2.90625,5.03223,2.90625h86.77051c2.10059,0,3.98145-1.08594,5.03125-2.90479,1.05078-1.81885,1.05078-3.99072,.00098-5.81055l-43.38574-75.14453Zm-46.35645,76.85986l41.3252-71.57568,41.32422,71.57568h-82.64941Z"/><text x="0" y="527" fill="#000000" font-size="5px" font-weight="bold" font-family="'Helvetica Neue', Helvetica, Arial-Unicode, Arial, Sans-serif">Created by iconfield</text><text x="0" y="532" fill="#000000" font-size="5px" font-weight="bold" font-family="'Helvetica Neue', Helvetica, Arial-Unicode, Arial, Sans-serif">from the Noun Project</text></svg>