<svg xmlns="http://www.w3.org/2000/svg" data-name="Layer 1" viewBox="0 0 512 640" x="0px" y="0px"><path d="M348.37549,400.76074l36.42432,16.59326c3.44629,1.57031,7.2793-1.24854,6.80762-5.00586l-4.50244-35.89209c-.13086-1.04297-.11084-2.09863,.05908-3.13525l13.72461-83.66797c1.02588-6.25488-3.45801-12.07129-9.76807-12.67139l-179.35474-17.04639c-7.03687-.66895-12.85376,5.40674-11.87964,12.40771l18.72119,134.57715c.83789,6.02197,6.42163,10.20801,12.43677,9.32324l111.19995-16.35107c2.08447-.30664,4.21387-.00488,6.13135,.86865Zm9.70557-80.16895c8.0752,0,14.62207,6.54639,14.62207,14.62207s-6.54688,14.62207-14.62207,14.62207c-8.07568,0-14.62256-6.54639-14.62256-14.62207s6.54688-14.62207,14.62256-14.62207Zm-115.34766,29.24414c-8.07568,0-14.62231-6.54639-14.62231-14.62207s6.54663-14.62207,14.62231-14.62207,14.62207,6.54639,14.62207,14.62207-6.54639,14.62207-14.62207,14.62207Zm57.67383,0c-8.07568,0-14.62256-6.54639-14.62256-14.62207s6.54688-14.62207,14.62256-14.62207,14.62207,6.54639,14.62207,14.62207-6.54639,14.62207-14.62207,14.62207Z"/><path d="M495.49023,288.00439c-3.07715-3.21582-7.38574-4.81982-11.81055-4.39648l-68.72949,6.53711c-1.9248,.18311-3.33594,1.8916-3.15332,3.81592,.18457,1.92383,1.8877,3.3374,3.81543,3.15283l68.73047-6.53711c2.28418-.21826,4.50293,.6084,6.08887,2.2666,1.58398,1.65576,2.31055,3.90576,1.99219,6.17676l-18.71973,134.56934c-.27637,1.98535-1.30957,3.73975-2.91016,4.93994-1.59863,1.19971-3.56543,1.70166-5.54395,1.41016l-111.19531-16.34912c-2.75488-.40967-5.55762-.0166-8.10449,1.13721l-36.41992,16.59912c-.62598,.28516-1.11328,.03516-1.34863-.13916-.2373-.17432-.62305-.56885-.53809-1.25l2.71875-21.70459c.24023-1.91797-1.12012-3.66748-3.03809-3.90771-1.91895-.23975-3.66699,1.12061-3.90723,3.0376l-2.71875,21.70557c-.38086,3.04297,.86719,5.94336,3.33691,7.75928,1.47266,1.08252,3.18262,1.63477,4.91602,1.63477,1.17188,0,2.35547-.25293,3.48047-.76562l36.41406-16.59619c1.3125-.59521,2.75586-.79932,4.18652-.58545l111.20215,16.3501c3.83496,.56201,7.6582-.40967,10.75977-2.73633,3.10352-2.32764,5.10742-5.72754,5.64355-9.57422l18.71875-134.56689c.61719-4.40234-.79199-8.77002-3.86621-11.9834Z"/><path d="M154.51392,353.03613l33.35596-16.31152,3.28931,6.72656c.60742,1.2417,1.85254,1.96338,3.14746,1.96338,.51562-.00049,1.04004-.11475,1.53418-.35693,1.7373-.84912,2.45605-2.94531,1.60742-4.68164L123.33398,188.81787c-1.18555-2.42334-.66699-5.29883,1.29004-7.15527l93.68848-88.89551c2.88574-2.73877,6.81348-4.11963,10.77539-3.77441,3.94922,.33789,7.57031,2.35107,9.93652,5.52295,22.75977,30.51709,43.44336,64.68799,61.47656,101.56494,10.58496,21.64453,19.98828,43.7334,27.9502,65.65332,.59863,1.64551,2.31348,2.59668,4.03125,2.22607,4.03809-.87451,9.7998-2.58154,13.56543-4.42383,15.10254-7.38477,25.69336-21.59424,29.82324-40.00928,4.06641-18.1333,1.3623-38.22705-7.6123-56.58057-18.65625-38.14893-58.97754-56.88965-89.875-41.77832-3.08301,1.50684-6.01367,3.32666-8.74609,5.42773-8.0166-12.57422-16.36035-24.67773-25.00195-36.26514-3.56152-4.77441-9.01074-7.8042-14.9502-8.3125-5.95801-.50781-11.85547,1.55762-16.19141,5.6709l-93.68848,88.89551c-4.18652,3.97168-5.2959,10.12354-2.76074,15.30859l3.28931,6.72656L30.1748,242.70898c-3.90918,1.91113-6.83984,5.23047-8.25195,9.34668-1.41309,4.11572-1.1377,8.53516,.77344,12.44434l8.22949,16.82861-12.75488,9.93311c-5.45703,4.24951-7.21289,11.84424-4.1748,18.05859l21.20508,43.3623c2.50098,5.11377,7.7334,8.23877,13.24609,8.23877,1.18555,0,2.38379-.14453,3.57031-.44482,1.87402-.47461,3.00879-2.37793,2.53418-4.25195-.47363-1.87402-2.37109-3.00684-4.25195-2.53418-3.50879,.8916-7.21777-.82715-8.80957-4.08301l-21.20508-43.36182c-1.5918-3.25586-.67285-7.23486,2.18652-9.46143l11.59595-9.03076,41.85132,85.58301c2.82422,5.77295,8.62988,9.13281,14.66113,9.13281,2.39941,0,4.83398-.53174,7.12988-1.65527l9.24097-4.51904,46.52563,95.14111c2.58105,5.27734,7.06152,9.2334,12.61816,11.14014,2.34082,.80322,4.75391,1.20264,7.15723,1.20264,3.30371,0,6.58887-.75391,9.64258-2.24756l8.04883-3.93604c5.27734-2.58008,9.23438-7.06152,11.14062-12.61816,1.90723-5.55615,1.53613-11.52246-1.04395-16.7998l-46.52612-95.14111Zm126.94409-225.58008c23.73975-11.60645,53.95898-.21069,72.66309,25.52686-23.36475-13.68774-49.81738-17.21021-72.9292-7.53931-2.56592-4.34546-5.16309-8.6499-7.8042-12.89478,2.50684-1.98682,5.21387-3.6958,8.07031-5.09277ZM94.63477,374.52588c-2.22754,1.09033-4.74609,1.24854-7.09668,.44141-2.34668-.80566-4.24023-2.47705-5.33008-4.70605l-53.22266-108.83643c-1.09082-2.22949-1.24707-4.75-.44238-7.09717,.80566-2.34717,2.47754-4.24023,4.70605-5.33057l90.16016-44.0896,61.38574,125.52954-90.16016,44.08887Zm48.1748,3.35352c-.11914,.12012-.23828,.24072-.35669,.36182-8.16626,8.32812-12.2229,19.4917-11.75952,30.66943l-17.45361-35.69092,34.98535-17.1084,9.13843,18.6875c-4.77222-1.86963-10.52222-.98438-14.55396,3.08057Z"/><path d="M217.64062,116.86865l-74.37109,70.56543c-1.40234,1.33057-1.45996,3.5459-.12988,4.94824,.68848,.7251,1.61328,1.09082,2.54004,1.09082,.86426,0,1.73145-.31885,2.4082-.96094l74.37109-70.56543c1.40234-1.33057,1.45996-3.5459,.12988-4.94824-1.33105-1.40137-3.5459-1.46045-4.94824-.12988Z"/><path d="M381.81055,159.82129c.51562,0,1.04004-.11475,1.53418-.35693l66.94727-32.73779c1.7373-.84912,2.45605-2.94531,1.60742-4.68164-.84961-1.73633-2.94727-2.45703-4.68164-1.60645l-66.94727,32.73779c-1.7373,.84912-2.45605,2.94531-1.60742,4.68164,.60742,1.2417,1.85254,1.96338,3.14746,1.96338Z"/><path d="M338.40918,101.51953c.37598,.12891,.75879,.19043,1.13574,.19043,1.4541,0,2.8125-.91309,3.31055-2.36475l22.81348-66.48047c.62695-1.82861-.3457-3.81934-2.1748-4.44678-1.82617-.62598-3.81934,.34619-4.44629,2.17432l-22.81348,66.48047c-.62695,1.82861,.3457,3.81934,2.1748,4.44678Z"/><path d="M398.56055,224.52539c-.62695,1.82861,.3457,3.81934,2.1748,4.44678l66.48047,22.81396c.37598,.12891,.75879,.19043,1.13574,.19043,1.4541,0,2.8125-.91309,3.31055-2.36475,.62695-1.82861-.3457-3.81934-2.1748-4.44678l-66.48047-22.81396c-1.82617-.62598-3.81934,.34619-4.44629,2.17432Z"/><path d="M403.87109,363.84277h19.29492c1.93262,0,3.5-1.56689,3.5-3.5s-1.56738-3.5-3.5-3.5h-19.29492c-1.93262,0-3.5,1.56689-3.5,3.5s1.56738,3.5,3.5,3.5Z"/><path d="M462.71875,363.84277c1.93262,0,3.5-1.56689,3.5-3.5s-1.56738-3.5-3.5-3.5h-19.89941c-1.93262,0-3.5,1.56689-3.5,3.5s1.56738,3.5,3.5,3.5h19.89941Z"/><text x="0" y="527" fill="#000000" font-size="5px" font-weight="bold" font-family="'Helvetica Neue', Helvetica, Arial-Unicode, Arial, Sans-serif">Created by iconfield</text><text x="0" y="532" fill="#000000" font-size="5px" font-weight="bold" font-family="'Helvetica Neue', Helvetica, Arial-Unicode, Arial, Sans-serif">from the Noun Project</text></svg>